G04 #@! TF.GenerationSoftware,KiCad,Pcbnew,5.1.6-c6e7f7d~87~ubuntu18.04.1*
G04 #@! TF.CreationDate,2020-08-29T05:24:03+09:00*
G04 #@! TF.ProjectId,flex10k70-eval,666c6578-3130-46b3-9730-2d6576616c2e,rev?*
G04 #@! TF.SameCoordinates,PX3b82600PY9fd5f80*
G04 #@! TF.FileFunction,Copper,L2,Bot*
G04 #@! TF.FilePolarity,Positive*
%FSLAX46Y46*%
G04 Gerber Fmt 4.6, Leading zero omitted, Abs format (unit mm)*
G04 Created by KiCad (PCBNEW 5.1.6-c6e7f7d~87~ubuntu18.04.1) date 2020-08-29 05:24:03*
%MOMM*%
%LPD*%
G01*
G04 APERTURE LIST*
G04 #@! TA.AperFunction,ViaPad*
%ADD10C,1.000000*%
G04 #@! TD*
G04 #@! TA.AperFunction,Conductor*
%ADD11C,0.500000*%
G04 #@! TD*
G04 #@! TA.AperFunction,Conductor*
%ADD12C,0.300000*%
G04 #@! TD*
G04 #@! TA.AperFunction,Conductor*
%ADD13C,0.254000*%
G04 #@! TD*
G04 APERTURE END LIST*
G04 #@! TA.AperFunction,SMDPad,CuDef*
G36*
G01*
X36875010Y87240402D02*
X37237403Y86878010D01*
G75*
G02*
X37237403Y86568650I-154680J-154680D01*
G01*
X36928044Y86259291D01*
G75*
G02*
X36618684Y86259291I-154680J154680D01*
G01*
X36256291Y86621684D01*
G75*
G02*
X36256291Y86931044I154680J154680D01*
G01*
X36565650Y87240403D01*
G75*
G02*
X36875010Y87240403I154680J-154680D01*
G01*
G37*
G04 #@! TD.AperFunction*
G04 #@! TA.AperFunction,SMDPad,CuDef*
G36*
G01*
X35761316Y86126708D02*
X36123709Y85764316D01*
G75*
G02*
X36123709Y85454956I-154680J-154680D01*
G01*
X35814350Y85145597D01*
G75*
G02*
X35504990Y85145597I-154680J154680D01*
G01*
X35142597Y85507990D01*
G75*
G02*
X35142597Y85817350I154680J154680D01*
G01*
X35451956Y86126709D01*
G75*
G02*
X35761316Y86126709I154680J-154680D01*
G01*
G37*
G04 #@! TD.AperFunction*
G04 #@! TA.AperFunction,SMDPad,CuDef*
G36*
G01*
X31697316Y82062708D02*
X32059709Y81700316D01*
G75*
G02*
X32059709Y81390956I-154680J-154680D01*
G01*
X31750350Y81081597D01*
G75*
G02*
X31440990Y81081597I-154680J154680D01*
G01*
X31078597Y81443990D01*
G75*
G02*
X31078597Y81753350I154680J154680D01*
G01*
X31387956Y82062709D01*
G75*
G02*
X31697316Y82062709I154680J-154680D01*
G01*
G37*
G04 #@! TD.AperFunction*
G04 #@! TA.AperFunction,SMDPad,CuDef*
G36*
G01*
X32811010Y83176402D02*
X33173403Y82814010D01*
G75*
G02*
X33173403Y82504650I-154680J-154680D01*
G01*
X32864044Y82195291D01*
G75*
G02*
X32554684Y82195291I-154680J154680D01*
G01*
X32192291Y82557684D01*
G75*
G02*
X32192291Y82867044I154680J154680D01*
G01*
X32501650Y83176403D01*
G75*
G02*
X32811010Y83176403I154680J-154680D01*
G01*
G37*
G04 #@! TD.AperFunction*
G04 #@! TA.AperFunction,SMDPad,CuDef*
G36*
G01*
X29001010Y79366402D02*
X29363403Y79004010D01*
G75*
G02*
X29363403Y78694650I-154680J-154680D01*
G01*
X29054044Y78385291D01*
G75*
G02*
X28744684Y78385291I-154680J154680D01*
G01*
X28382291Y78747684D01*
G75*
G02*
X28382291Y79057044I154680J154680D01*
G01*
X28691650Y79366403D01*
G75*
G02*
X29001010Y79366403I154680J-154680D01*
G01*
G37*
G04 #@! TD.AperFunction*
G04 #@! TA.AperFunction,SMDPad,CuDef*
G36*
G01*
X27887316Y78252708D02*
X28249709Y77890316D01*
G75*
G02*
X28249709Y77580956I-154680J-154680D01*
G01*
X27940350Y77271597D01*
G75*
G02*
X27630990Y77271597I-154680J154680D01*
G01*
X27268597Y77633990D01*
G75*
G02*
X27268597Y77943350I154680J154680D01*
G01*
X27577956Y78252709D01*
G75*
G02*
X27887316Y78252709I154680J-154680D01*
G01*
G37*
G04 #@! TD.AperFunction*
G04 #@! TA.AperFunction,SMDPad,CuDef*
G36*
G01*
X25445010Y75810402D02*
X25807403Y75448010D01*
G75*
G02*
X25807403Y75138650I-154680J-154680D01*
G01*
X25498044Y74829291D01*
G75*
G02*
X25188684Y74829291I-154680J154680D01*
G01*
X24826291Y75191684D01*
G75*
G02*
X24826291Y75501044I154680J154680D01*
G01*
X25135650Y75810403D01*
G75*
G02*
X25445010Y75810403I154680J-154680D01*
G01*
G37*
G04 #@! TD.AperFunction*
G04 #@! TA.AperFunction,SMDPad,CuDef*
G36*
G01*
X24331316Y74696708D02*
X24693709Y74334316D01*
G75*
G02*
X24693709Y74024956I-154680J-154680D01*
G01*
X24384350Y73715597D01*
G75*
G02*
X24074990Y73715597I-154680J154680D01*
G01*
X23712597Y74077990D01*
G75*
G02*
X23712597Y74387350I154680J154680D01*
G01*
X24021956Y74696709D01*
G75*
G02*
X24331316Y74696709I154680J-154680D01*
G01*
G37*
G04 #@! TD.AperFunction*
G04 #@! TA.AperFunction,SMDPad,CuDef*
G36*
G01*
X21889010Y72381402D02*
X22251403Y72019010D01*
G75*
G02*
X22251403Y71709650I-154680J-154680D01*
G01*
X21942044Y71400291D01*
G75*
G02*
X21632684Y71400291I-154680J154680D01*
G01*
X21270291Y71762684D01*
G75*
G02*
X21270291Y72072044I154680J154680D01*
G01*
X21579650Y72381403D01*
G75*
G02*
X21889010Y72381403I154680J-154680D01*
G01*
G37*
G04 #@! TD.AperFunction*
G04 #@! TA.AperFunction,SMDPad,CuDef*
G36*
G01*
X20775316Y71267708D02*
X21137709Y70905316D01*
G75*
G02*
X21137709Y70595956I-154680J-154680D01*
G01*
X20828350Y70286597D01*
G75*
G02*
X20518990Y70286597I-154680J154680D01*
G01*
X20156597Y70648990D01*
G75*
G02*
X20156597Y70958350I154680J154680D01*
G01*
X20465956Y71267709D01*
G75*
G02*
X20775316Y71267709I154680J-154680D01*
G01*
G37*
G04 #@! TD.AperFunction*
G04 #@! TA.AperFunction,SMDPad,CuDef*
G36*
G01*
X17518750Y66285000D02*
X18031250Y66285000D01*
G75*
G02*
X18250000Y66066250I0J-218750D01*
G01*
X18250000Y65628750D01*
G75*
G02*
X18031250Y65410000I-218750J0D01*
G01*
X17518750Y65410000D01*
G75*
G02*
X17300000Y65628750I0J218750D01*
G01*
X17300000Y66066250D01*
G75*
G02*
X17518750Y66285000I218750J0D01*
G01*
G37*
G04 #@! TD.AperFunction*
G04 #@! TA.AperFunction,SMDPad,CuDef*
G36*
G01*
X17518750Y67860000D02*
X18031250Y67860000D01*
G75*
G02*
X18250000Y67641250I0J-218750D01*
G01*
X18250000Y67203750D01*
G75*
G02*
X18031250Y66985000I-218750J0D01*
G01*
X17518750Y66985000D01*
G75*
G02*
X17300000Y67203750I0J218750D01*
G01*
X17300000Y67641250D01*
G75*
G02*
X17518750Y67860000I218750J0D01*
G01*
G37*
G04 #@! TD.AperFunction*
G04 #@! TA.AperFunction,SMDPad,CuDef*
G36*
G01*
X22886402Y59472990D02*
X22524010Y59110597D01*
G75*
G02*
X22214650Y59110597I-154680J154680D01*
G01*
X21905291Y59419956D01*
G75*
G02*
X21905291Y59729316I154680J154680D01*
G01*
X22267684Y60091709D01*
G75*
G02*
X22577044Y60091709I154680J-154680D01*
G01*
X22886403Y59782350D01*
G75*
G02*
X22886403Y59472990I-154680J-154680D01*
G01*
G37*
G04 #@! TD.AperFunction*
G04 #@! TA.AperFunction,SMDPad,CuDef*
G36*
G01*
X21772708Y60586684D02*
X21410316Y60224291D01*
G75*
G02*
X21100956Y60224291I-154680J154680D01*
G01*
X20791597Y60533650D01*
G75*
G02*
X20791597Y60843010I154680J154680D01*
G01*
X21153990Y61205403D01*
G75*
G02*
X21463350Y61205403I154680J-154680D01*
G01*
X21772709Y60896044D01*
G75*
G02*
X21772709Y60586684I-154680J-154680D01*
G01*
G37*
G04 #@! TD.AperFunction*
G04 #@! TA.AperFunction,SMDPad,CuDef*
G36*
G01*
X27839402Y54519990D02*
X27477010Y54157597D01*
G75*
G02*
X27167650Y54157597I-154680J154680D01*
G01*
X26858291Y54466956D01*
G75*
G02*
X26858291Y54776316I154680J154680D01*
G01*
X27220684Y55138709D01*
G75*
G02*
X27530044Y55138709I154680J-154680D01*
G01*
X27839403Y54829350D01*
G75*
G02*
X27839403Y54519990I-154680J-154680D01*
G01*
G37*
G04 #@! TD.AperFunction*
G04 #@! TA.AperFunction,SMDPad,CuDef*
G36*
G01*
X26725708Y55633684D02*
X26363316Y55271291D01*
G75*
G02*
X26053956Y55271291I-154680J154680D01*
G01*
X25744597Y55580650D01*
G75*
G02*
X25744597Y55890010I154680J154680D01*
G01*
X26106990Y56252403D01*
G75*
G02*
X26416350Y56252403I154680J-154680D01*
G01*
X26725709Y55943044D01*
G75*
G02*
X26725709Y55633684I-154680J-154680D01*
G01*
G37*
G04 #@! TD.AperFunction*
G04 #@! TA.AperFunction,SMDPad,CuDef*
G36*
G01*
X29392708Y52966684D02*
X29030316Y52604291D01*
G75*
G02*
X28720956Y52604291I-154680J154680D01*
G01*
X28411597Y52913650D01*
G75*
G02*
X28411597Y53223010I154680J154680D01*
G01*
X28773990Y53585403D01*
G75*
G02*
X29083350Y53585403I154680J-154680D01*
G01*
X29392709Y53276044D01*
G75*
G02*
X29392709Y52966684I-154680J-154680D01*
G01*
G37*
G04 #@! TD.AperFunction*
G04 #@! TA.AperFunction,SMDPad,CuDef*
G36*
G01*
X30506402Y51852990D02*
X30144010Y51490597D01*
G75*
G02*
X29834650Y51490597I-154680J154680D01*
G01*
X29525291Y51799956D01*
G75*
G02*
X29525291Y52109316I154680J154680D01*
G01*
X29887684Y52471709D01*
G75*
G02*
X30197044Y52471709I154680J-154680D01*
G01*
X30506403Y52162350D01*
G75*
G02*
X30506403Y51852990I-154680J-154680D01*
G01*
G37*
G04 #@! TD.AperFunction*
G04 #@! TA.AperFunction,SMDPad,CuDef*
G36*
G01*
X34218708Y48140684D02*
X33856316Y47778291D01*
G75*
G02*
X33546956Y47778291I-154680J154680D01*
G01*
X33237597Y48087650D01*
G75*
G02*
X33237597Y48397010I154680J154680D01*
G01*
X33599990Y48759403D01*
G75*
G02*
X33909350Y48759403I154680J-154680D01*
G01*
X34218709Y48450044D01*
G75*
G02*
X34218709Y48140684I-154680J-154680D01*
G01*
G37*
G04 #@! TD.AperFunction*
G04 #@! TA.AperFunction,SMDPad,CuDef*
G36*
G01*
X35332402Y47026990D02*
X34970010Y46664597D01*
G75*
G02*
X34660650Y46664597I-154680J154680D01*
G01*
X34351291Y46973956D01*
G75*
G02*
X34351291Y47283316I154680J154680D01*
G01*
X34713684Y47645709D01*
G75*
G02*
X35023044Y47645709I154680J-154680D01*
G01*
X35332403Y47336350D01*
G75*
G02*
X35332403Y47026990I-154680J-154680D01*
G01*
G37*
G04 #@! TD.AperFunction*
G04 #@! TA.AperFunction,SMDPad,CuDef*
G36*
G01*
X41600990Y43108598D02*
X41238597Y43470990D01*
G75*
G02*
X41238597Y43780350I154680J154680D01*
G01*
X41547956Y44089709D01*
G75*
G02*
X41857316Y44089709I154680J-154680D01*
G01*
X42219709Y43727316D01*
G75*
G02*
X42219709Y43417956I-154680J-154680D01*
G01*
X41910350Y43108597D01*
G75*
G02*
X41600990Y43108597I-154680J154680D01*
G01*
G37*
G04 #@! TD.AperFunction*
G04 #@! TA.AperFunction,SMDPad,CuDef*
G36*
G01*
X42714684Y44222292D02*
X42352291Y44584684D01*
G75*
G02*
X42352291Y44894044I154680J154680D01*
G01*
X42661650Y45203403D01*
G75*
G02*
X42971010Y45203403I154680J-154680D01*
G01*
X43333403Y44841010D01*
G75*
G02*
X43333403Y44531650I-154680J-154680D01*
G01*
X43024044Y44222291D01*
G75*
G02*
X42714684Y44222291I-154680J154680D01*
G01*
G37*
G04 #@! TD.AperFunction*
G04 #@! TA.AperFunction,SMDPad,CuDef*
G36*
G01*
X46065531Y47573139D02*
X45703138Y47935531D01*
G75*
G02*
X45703138Y48244891I154680J154680D01*
G01*
X46012497Y48554250D01*
G75*
G02*
X46321857Y48554250I154680J-154680D01*
G01*
X46684250Y48191857D01*
G75*
G02*
X46684250Y47882497I-154680J-154680D01*
G01*
X46374891Y47573138D01*
G75*
G02*
X46065531Y47573138I-154680J154680D01*
G01*
G37*
G04 #@! TD.AperFunction*
G04 #@! TA.AperFunction,SMDPad,CuDef*
G36*
G01*
X44951837Y46459445D02*
X44589444Y46821837D01*
G75*
G02*
X44589444Y47131197I154680J154680D01*
G01*
X44898803Y47440556D01*
G75*
G02*
X45208163Y47440556I154680J-154680D01*
G01*
X45570556Y47078163D01*
G75*
G02*
X45570556Y46768803I-154680J-154680D01*
G01*
X45261197Y46459444D01*
G75*
G02*
X44951837Y46459444I-154680J154680D01*
G01*
G37*
G04 #@! TD.AperFunction*
G04 #@! TA.AperFunction,SMDPad,CuDef*
G36*
G01*
X49699684Y51207292D02*
X49337291Y51569684D01*
G75*
G02*
X49337291Y51879044I154680J154680D01*
G01*
X49646650Y52188403D01*
G75*
G02*
X49956010Y52188403I154680J-154680D01*
G01*
X50318403Y51826010D01*
G75*
G02*
X50318403Y51516650I-154680J-154680D01*
G01*
X50009044Y51207291D01*
G75*
G02*
X49699684Y51207291I-154680J154680D01*
G01*
G37*
G04 #@! TD.AperFunction*
G04 #@! TA.AperFunction,SMDPad,CuDef*
G36*
G01*
X48585990Y50093598D02*
X48223597Y50455990D01*
G75*
G02*
X48223597Y50765350I154680J154680D01*
G01*
X48532956Y51074709D01*
G75*
G02*
X48842316Y51074709I154680J-154680D01*
G01*
X49204709Y50712316D01*
G75*
G02*
X49204709Y50402956I-154680J-154680D01*
G01*
X48895350Y50093597D01*
G75*
G02*
X48585990Y50093597I-154680J154680D01*
G01*
G37*
G04 #@! TD.AperFunction*
G04 #@! TA.AperFunction,SMDPad,CuDef*
G36*
G01*
X52014990Y53522598D02*
X51652597Y53884990D01*
G75*
G02*
X51652597Y54194350I154680J154680D01*
G01*
X51961956Y54503709D01*
G75*
G02*
X52271316Y54503709I154680J-154680D01*
G01*
X52633709Y54141316D01*
G75*
G02*
X52633709Y53831956I-154680J-154680D01*
G01*
X52324350Y53522597D01*
G75*
G02*
X52014990Y53522597I-154680J154680D01*
G01*
G37*
G04 #@! TD.AperFunction*
G04 #@! TA.AperFunction,SMDPad,CuDef*
G36*
G01*
X53128684Y54636292D02*
X52766291Y54998684D01*
G75*
G02*
X52766291Y55308044I154680J154680D01*
G01*
X53075650Y55617403D01*
G75*
G02*
X53385010Y55617403I154680J-154680D01*
G01*
X53747403Y55255010D01*
G75*
G02*
X53747403Y54945650I-154680J-154680D01*
G01*
X53438044Y54636291D01*
G75*
G02*
X53128684Y54636291I-154680J154680D01*
G01*
G37*
G04 #@! TD.AperFunction*
G04 #@! TA.AperFunction,SMDPad,CuDef*
G36*
G01*
X55697990Y57205598D02*
X55335597Y57567990D01*
G75*
G02*
X55335597Y57877350I154680J154680D01*
G01*
X55644956Y58186709D01*
G75*
G02*
X55954316Y58186709I154680J-154680D01*
G01*
X56316709Y57824316D01*
G75*
G02*
X56316709Y57514956I-154680J-154680D01*
G01*
X56007350Y57205597D01*
G75*
G02*
X55697990Y57205597I-154680J154680D01*
G01*
G37*
G04 #@! TD.AperFunction*
G04 #@! TA.AperFunction,SMDPad,CuDef*
G36*
G01*
X56811684Y58319292D02*
X56449291Y58681684D01*
G75*
G02*
X56449291Y58991044I154680J154680D01*
G01*
X56758650Y59300403D01*
G75*
G02*
X57068010Y59300403I154680J-154680D01*
G01*
X57430403Y58938010D01*
G75*
G02*
X57430403Y58628650I-154680J-154680D01*
G01*
X57121044Y58319291D01*
G75*
G02*
X56811684Y58319291I-154680J154680D01*
G01*
G37*
G04 #@! TD.AperFunction*
G04 #@! TA.AperFunction,SMDPad,CuDef*
G36*
G01*
X60367684Y61875292D02*
X60005291Y62237684D01*
G75*
G02*
X60005291Y62547044I154680J154680D01*
G01*
X60314650Y62856403D01*
G75*
G02*
X60624010Y62856403I154680J-154680D01*
G01*
X60986403Y62494010D01*
G75*
G02*
X60986403Y62184650I-154680J-154680D01*
G01*
X60677044Y61875291D01*
G75*
G02*
X60367684Y61875291I-154680J154680D01*
G01*
G37*
G04 #@! TD.AperFunction*
G04 #@! TA.AperFunction,SMDPad,CuDef*
G36*
G01*
X59253990Y60761598D02*
X58891597Y61123990D01*
G75*
G02*
X58891597Y61433350I154680J154680D01*
G01*
X59200956Y61742709D01*
G75*
G02*
X59510316Y61742709I154680J-154680D01*
G01*
X59872709Y61380316D01*
G75*
G02*
X59872709Y61070956I-154680J-154680D01*
G01*
X59563350Y60761597D01*
G75*
G02*
X59253990Y60761597I-154680J154680D01*
G01*
G37*
G04 #@! TD.AperFunction*
G04 #@! TA.AperFunction,SMDPad,CuDef*
G36*
G01*
X59208402Y71283990D02*
X58846010Y70921597D01*
G75*
G02*
X58536650Y70921597I-154680J154680D01*
G01*
X58227291Y71230956D01*
G75*
G02*
X58227291Y71540316I154680J154680D01*
G01*
X58589684Y71902709D01*
G75*
G02*
X58899044Y71902709I154680J-154680D01*
G01*
X59208403Y71593350D01*
G75*
G02*
X59208403Y71283990I-154680J-154680D01*
G01*
G37*
G04 #@! TD.AperFunction*
G04 #@! TA.AperFunction,SMDPad,CuDef*
G36*
G01*
X58094708Y72397684D02*
X57732316Y72035291D01*
G75*
G02*
X57422956Y72035291I-154680J154680D01*
G01*
X57113597Y72344650D01*
G75*
G02*
X57113597Y72654010I154680J154680D01*
G01*
X57475990Y73016403D01*
G75*
G02*
X57785350Y73016403I154680J-154680D01*
G01*
X58094709Y72707044D01*
G75*
G02*
X58094709Y72397684I-154680J-154680D01*
G01*
G37*
G04 #@! TD.AperFunction*
G04 #@! TA.AperFunction,SMDPad,CuDef*
G36*
G01*
X51998708Y78366684D02*
X51636316Y78004291D01*
G75*
G02*
X51326956Y78004291I-154680J154680D01*
G01*
X51017597Y78313650D01*
G75*
G02*
X51017597Y78623010I154680J154680D01*
G01*
X51379990Y78985403D01*
G75*
G02*
X51689350Y78985403I154680J-154680D01*
G01*
X51998709Y78676044D01*
G75*
G02*
X51998709Y78366684I-154680J-154680D01*
G01*
G37*
G04 #@! TD.AperFunction*
G04 #@! TA.AperFunction,SMDPad,CuDef*
G36*
G01*
X53112402Y77252990D02*
X52750010Y76890597D01*
G75*
G02*
X52440650Y76890597I-154680J154680D01*
G01*
X52131291Y77199956D01*
G75*
G02*
X52131291Y77509316I154680J154680D01*
G01*
X52493684Y77871709D01*
G75*
G02*
X52803044Y77871709I154680J-154680D01*
G01*
X53112403Y77562350D01*
G75*
G02*
X53112403Y77252990I-154680J-154680D01*
G01*
G37*
G04 #@! TD.AperFunction*
G04 #@! TA.AperFunction,SMDPad,CuDef*
G36*
G01*
X45775708Y84716684D02*
X45413316Y84354291D01*
G75*
G02*
X45103956Y84354291I-154680J154680D01*
G01*
X44794597Y84663650D01*
G75*
G02*
X44794597Y84973010I154680J154680D01*
G01*
X45156990Y85335403D01*
G75*
G02*
X45466350Y85335403I154680J-154680D01*
G01*
X45775709Y85026044D01*
G75*
G02*
X45775709Y84716684I-154680J-154680D01*
G01*
G37*
G04 #@! TD.AperFunction*
G04 #@! TA.AperFunction,SMDPad,CuDef*
G36*
G01*
X46889402Y83602990D02*
X46527010Y83240597D01*
G75*
G02*
X46217650Y83240597I-154680J154680D01*
G01*
X45908291Y83549956D01*
G75*
G02*
X45908291Y83859316I154680J154680D01*
G01*
X46270684Y84221709D01*
G75*
G02*
X46580044Y84221709I154680J-154680D01*
G01*
X46889403Y83912350D01*
G75*
G02*
X46889403Y83602990I-154680J-154680D01*
G01*
G37*
G04 #@! TD.AperFunction*
G04 #@! TA.AperFunction,SMDPad,CuDef*
G36*
G01*
X52443750Y69460000D02*
X52956250Y69460000D01*
G75*
G02*
X53175000Y69241250I0J-218750D01*
G01*
X53175000Y68803750D01*
G75*
G02*
X52956250Y68585000I-218750J0D01*
G01*
X52443750Y68585000D01*
G75*
G02*
X52225000Y68803750I0J218750D01*
G01*
X52225000Y69241250D01*
G75*
G02*
X52443750Y69460000I218750J0D01*
G01*
G37*
G04 #@! TD.AperFunction*
G04 #@! TA.AperFunction,SMDPad,CuDef*
G36*
G01*
X52443750Y71035000D02*
X52956250Y71035000D01*
G75*
G02*
X53175000Y70816250I0J-218750D01*
G01*
X53175000Y70378750D01*
G75*
G02*
X52956250Y70160000I-218750J0D01*
G01*
X52443750Y70160000D01*
G75*
G02*
X52225000Y70378750I0J218750D01*
G01*
X52225000Y70816250D01*
G75*
G02*
X52443750Y71035000I218750J0D01*
G01*
G37*
G04 #@! TD.AperFunction*
G04 #@! TA.AperFunction,SMDPad,CuDef*
G36*
G01*
X49903750Y71035000D02*
X50416250Y71035000D01*
G75*
G02*
X50635000Y70816250I0J-218750D01*
G01*
X50635000Y70378750D01*
G75*
G02*
X50416250Y70160000I-218750J0D01*
G01*
X49903750Y70160000D01*
G75*
G02*
X49685000Y70378750I0J218750D01*
G01*
X49685000Y70816250D01*
G75*
G02*
X49903750Y71035000I218750J0D01*
G01*
G37*
G04 #@! TD.AperFunction*
G04 #@! TA.AperFunction,SMDPad,CuDef*
G36*
G01*
X49903750Y69460000D02*
X50416250Y69460000D01*
G75*
G02*
X50635000Y69241250I0J-218750D01*
G01*
X50635000Y68803750D01*
G75*
G02*
X50416250Y68585000I-218750J0D01*
G01*
X49903750Y68585000D01*
G75*
G02*
X49685000Y68803750I0J218750D01*
G01*
X49685000Y69241250D01*
G75*
G02*
X49903750Y69460000I218750J0D01*
G01*
G37*
G04 #@! TD.AperFunction*
G04 #@! TA.AperFunction,SMDPad,CuDef*
G36*
G01*
X33726990Y87558598D02*
X33364597Y87920990D01*
G75*
G02*
X33364597Y88230350I154680J154680D01*
G01*
X33673956Y88539709D01*
G75*
G02*
X33983316Y88539709I154680J-154680D01*
G01*
X34345709Y88177316D01*
G75*
G02*
X34345709Y87867956I-154680J-154680D01*
G01*
X34036350Y87558597D01*
G75*
G02*
X33726990Y87558597I-154680J154680D01*
G01*
G37*
G04 #@! TD.AperFunction*
G04 #@! TA.AperFunction,SMDPad,CuDef*
G36*
G01*
X34840684Y88672292D02*
X34478291Y89034684D01*
G75*
G02*
X34478291Y89344044I154680J154680D01*
G01*
X34787650Y89653403D01*
G75*
G02*
X35097010Y89653403I154680J-154680D01*
G01*
X35459403Y89291010D01*
G75*
G02*
X35459403Y88981650I-154680J-154680D01*
G01*
X35150044Y88672291D01*
G75*
G02*
X34840684Y88672291I-154680J154680D01*
G01*
G37*
G04 #@! TD.AperFunction*
G04 #@! TA.AperFunction,SMDPad,CuDef*
G36*
G01*
X47109750Y71035000D02*
X47622250Y71035000D01*
G75*
G02*
X47841000Y70816250I0J-218750D01*
G01*
X47841000Y70378750D01*
G75*
G02*
X47622250Y70160000I-218750J0D01*
G01*
X47109750Y70160000D01*
G75*
G02*
X46891000Y70378750I0J218750D01*
G01*
X46891000Y70816250D01*
G75*
G02*
X47109750Y71035000I218750J0D01*
G01*
G37*
G04 #@! TD.AperFunction*
G04 #@! TA.AperFunction,SMDPad,CuDef*
G36*
G01*
X47109750Y69460000D02*
X47622250Y69460000D01*
G75*
G02*
X47841000Y69241250I0J-218750D01*
G01*
X47841000Y68803750D01*
G75*
G02*
X47622250Y68585000I-218750J0D01*
G01*
X47109750Y68585000D01*
G75*
G02*
X46891000Y68803750I0J218750D01*
G01*
X46891000Y69241250D01*
G75*
G02*
X47109750Y69460000I218750J0D01*
G01*
G37*
G04 #@! TD.AperFunction*
D10*
X10752000Y38060000D03*
X10790000Y12660000D03*
X10790000Y63460000D03*
X10790000Y91400000D03*
X10790000Y116800000D03*
X10790000Y142200000D03*
X24480000Y59940000D03*
X28710000Y55690000D03*
X31190000Y53220000D03*
X36850000Y47570000D03*
X43510000Y47920000D03*
X47040000Y51450000D03*
X50580000Y54980000D03*
X54080000Y58500000D03*
X57640000Y62050000D03*
X58320000Y69270000D03*
X52650000Y74920000D03*
X45980000Y81610000D03*
X34420000Y82010000D03*
X30500000Y78080000D03*
X26950000Y74530000D03*
X23430000Y71030000D03*
X19807008Y67460500D03*
X40381000Y44791000D03*
X38300000Y85880000D03*
X47366000Y71969000D03*
X50160000Y71969000D03*
X69210000Y38060000D03*
X69210000Y12660000D03*
X69210000Y63460000D03*
X69210000Y91400000D03*
X69210000Y116800000D03*
X69210000Y142200000D03*
X23236000Y47458000D03*
X48890000Y142072998D03*
X48890000Y118070000D03*
X52700000Y71969000D03*
X10790000Y50760000D03*
X10790000Y25360000D03*
X10790000Y2500000D03*
X10790000Y78700000D03*
X10790000Y104100000D03*
X10790000Y129500000D03*
X21650000Y62770000D03*
X27310000Y57120000D03*
X29967000Y54443000D03*
X34020000Y50400000D03*
X41730000Y46140000D03*
X45270000Y49680000D03*
X48800000Y53210000D03*
X55880000Y60270000D03*
X55510000Y72060000D03*
X48790000Y78790000D03*
X43120000Y84450000D03*
X36530000Y84100000D03*
X32290000Y79860000D03*
X28740000Y76320000D03*
X25180000Y72780000D03*
X21610398Y69175000D03*
X52380000Y56710000D03*
X46350000Y142098400D03*
X59329400Y63713998D03*
X21585000Y139660000D03*
X35555000Y139660000D03*
X58404000Y139660000D03*
X50828000Y5200000D03*
X43479800Y36688400D03*
X33523000Y92670000D03*
X46096000Y95464000D03*
X37790200Y80960600D03*
X37460000Y51014000D03*
X23591600Y66050800D03*
X55494000Y64603000D03*
X41422400Y80173200D03*
X41778000Y49744000D03*
X51582400Y17714600D03*
X58288000Y13574400D03*
X61336000Y14438000D03*
X53970000Y22058000D03*
X51684000Y36282000D03*
X51684000Y42098600D03*
X51557000Y28331800D03*
X5710000Y104100000D03*
X5710000Y129500000D03*
X5710000Y78700000D03*
X5710000Y50760000D03*
X5710000Y25360000D03*
X69210000Y50760000D03*
X69210000Y25360000D03*
X69210000Y78700000D03*
X69210000Y104100000D03*
X69210000Y129500000D03*
X74290000Y129500000D03*
X74290000Y104100000D03*
X74290000Y78700000D03*
X74290000Y50760000D03*
X74290000Y25360000D03*
X5710000Y2500000D03*
X25014000Y48474000D03*
X24760000Y38441000D03*
X13076000Y140676000D03*
X16632000Y129500000D03*
X25522000Y105370000D03*
X20188000Y118324000D03*
X25268000Y129500000D03*
X25268000Y118324000D03*
X46858000Y118070000D03*
X51938000Y116292000D03*
X55087600Y125893200D03*
X50414000Y127214000D03*
X52192000Y101560000D03*
X51938000Y109688000D03*
X46604000Y109688000D03*
X54732000Y104100000D03*
X57018000Y106386000D03*
X55240000Y118578000D03*
X60574000Y117054000D03*
X64130000Y128484000D03*
X68702000Y139914000D03*
X38222000Y96226000D03*
X42286000Y100036000D03*
X42286000Y118070000D03*
X29840000Y118070000D03*
X30094000Y130008000D03*
X42286000Y139660000D03*
X42032000Y64476000D03*
X37460000Y64476000D03*
X42032000Y73112000D03*
X37460000Y73112000D03*
X42032000Y56856000D03*
X37460000Y56856000D03*
X15616000Y38060000D03*
X15616000Y32726000D03*
X21204000Y32726000D03*
X32634000Y29424000D03*
X32634000Y23074000D03*
X15616000Y12152000D03*
X24252000Y20788000D03*
X22982000Y13930000D03*
X23236000Y3262000D03*
X38222000Y3262000D03*
X50922000Y1738000D03*
X29840000Y72604000D03*
X5964000Y66000000D03*
X74290000Y65746000D03*
X60828000Y75906000D03*
X30094000Y99274000D03*
X45588000Y16470000D03*
X42794000Y13930000D03*
X39746000Y17486000D03*
X45588000Y27392000D03*
X39746000Y27392000D03*
X56256000Y34250000D03*
X60066000Y23328000D03*
X66416000Y1484000D03*
X47366000Y7580000D03*
X54224000Y7580000D03*
X50922000Y12660000D03*
X59234693Y66438693D03*
X44064000Y95336992D03*
X36571000Y89368004D03*
X44064000Y96861000D03*
X41524000Y41108000D03*
X38603000Y91146008D03*
X64257006Y65238000D03*
X41905000Y92924000D03*
X60548600Y66914400D03*
X44064000Y93932987D03*
X50160010Y125055000D03*
X56510000Y131405000D03*
X59253200Y65111000D03*
X38603000Y92542996D03*
X17013008Y69556000D03*
X38603000Y89748994D03*
D11*
X36746847Y86749847D02*
X37460000Y86036694D01*
X37592894Y85880000D02*
X38300000Y85880000D01*
X37460000Y86012894D02*
X37592894Y85880000D01*
X37460000Y86036694D02*
X37460000Y86012894D01*
X33358694Y82010000D02*
X34420000Y82010000D01*
X32682847Y82685847D02*
X33358694Y82010000D01*
X29668694Y78080000D02*
X30500000Y78080000D01*
X28872847Y78875847D02*
X29668694Y78080000D01*
X26106694Y74530000D02*
X26950000Y74530000D01*
X25316847Y75319847D02*
X26106694Y74530000D01*
X22621694Y71030000D02*
X23430000Y71030000D01*
X21760847Y71890847D02*
X22621694Y71030000D01*
X19769008Y67422500D02*
X19807008Y67460500D01*
X17775000Y67422500D02*
X19769008Y67422500D01*
X24470000Y59940000D02*
X24480000Y59940000D01*
X23333694Y60539000D02*
X23871000Y60539000D01*
X23871000Y60539000D02*
X24470000Y59940000D01*
X22395847Y59601153D02*
X23333694Y60539000D01*
X30015847Y52045847D02*
X31190000Y53220000D01*
X30015847Y51981153D02*
X30015847Y52045847D01*
X36327000Y48093000D02*
X36850000Y47570000D01*
X35779694Y48093000D02*
X36327000Y48093000D01*
X34841847Y47155153D02*
X35779694Y48093000D01*
X41729153Y43599153D02*
X41045306Y44283000D01*
X40889000Y44283000D02*
X40381000Y44791000D01*
X41045306Y44283000D02*
X40889000Y44283000D01*
X43972000Y47458000D02*
X43510000Y47920000D01*
X44572000Y47458000D02*
X43972000Y47458000D01*
X45080000Y46950000D02*
X44572000Y47458000D01*
X47848306Y51450000D02*
X47040000Y51450000D01*
X48714153Y50584153D02*
X47848306Y51450000D01*
X51176306Y54980000D02*
X50580000Y54980000D01*
X52143153Y54013153D02*
X51176306Y54980000D01*
X58584306Y62050000D02*
X57640000Y62050000D01*
X59382153Y61252153D02*
X58584306Y62050000D01*
X57830800Y70525106D02*
X58717847Y71412153D01*
X57830800Y69759200D02*
X57830800Y70525106D01*
X58320000Y69270000D02*
X57830800Y69759200D01*
X52039600Y76798906D02*
X52621847Y77381153D01*
X52039600Y75530400D02*
X52039600Y76798906D01*
X52650000Y74920000D02*
X52039600Y75530400D01*
X45435600Y82767906D02*
X46398847Y83731153D01*
X45435600Y82154400D02*
X45435600Y82767906D01*
X45980000Y81610000D02*
X45435600Y82154400D01*
X47366000Y70597500D02*
X47366000Y71969000D01*
X50160000Y70597500D02*
X50160000Y71969000D01*
X10790000Y63460000D02*
X18537000Y63460000D01*
X19807008Y64730008D02*
X19807008Y67460500D01*
X18537000Y63460000D02*
X19807008Y64730008D01*
X36033694Y87463000D02*
X34441306Y87463000D01*
X34441306Y87463000D02*
X33855153Y88049153D01*
X36746847Y86749847D02*
X36033694Y87463000D01*
X55022306Y58500000D02*
X54080000Y58500000D01*
X55826153Y57696153D02*
X55022306Y58500000D01*
X27348847Y54648153D02*
X27880294Y55179600D01*
X28199600Y55179600D02*
X28710000Y55690000D01*
X27880294Y55179600D02*
X28199600Y55179600D01*
X69210000Y116800000D02*
X70480000Y118070000D01*
X70480000Y140930000D02*
X69210000Y142200000D01*
X70480000Y118070000D02*
X70480000Y140930000D01*
X69210000Y116800000D02*
X70480000Y115530000D01*
X70480000Y92670000D02*
X69210000Y91400000D01*
X70480000Y115530000D02*
X70480000Y92670000D01*
X69210000Y91400000D02*
X70480000Y90130000D01*
X70480000Y64730000D02*
X69210000Y63460000D01*
X70480000Y90130000D02*
X70480000Y64730000D01*
X69210000Y63460000D02*
X70480000Y62190000D01*
X70480000Y39330000D02*
X69210000Y38060000D01*
X70480000Y62190000D02*
X70480000Y39330000D01*
X69210000Y38060000D02*
X70480000Y36790000D01*
X70480000Y13930000D02*
X69210000Y12660000D01*
X70480000Y36790000D02*
X70480000Y13930000D01*
X59382153Y61252153D02*
X61619306Y59015000D01*
X64765000Y59015000D02*
X69210000Y63460000D01*
X61619306Y59015000D02*
X64765000Y59015000D01*
X48890000Y86222306D02*
X48890000Y118070000D01*
X46398847Y83731153D02*
X48890000Y86222306D01*
X9520000Y118070000D02*
X10290001Y117299999D01*
X10290001Y117299999D02*
X10790000Y116800000D01*
X10790000Y142200000D02*
X9520000Y140930000D01*
X9520000Y140930000D02*
X9520000Y118070000D01*
X10290001Y91899999D02*
X10790000Y91400000D01*
X9520000Y92670000D02*
X10290001Y91899999D01*
X10790000Y116800000D02*
X9520000Y115530000D01*
X9520000Y115530000D02*
X9520000Y92670000D01*
X10290001Y63959999D02*
X10790000Y63460000D01*
X9520000Y64730000D02*
X10290001Y63959999D01*
X10790000Y91400000D02*
X9520000Y90130000D01*
X9520000Y90130000D02*
X9520000Y64730000D01*
X10252001Y38559999D02*
X10752000Y38060000D01*
X9520000Y39292000D02*
X10252001Y38559999D01*
X10790000Y63460000D02*
X9520000Y62190000D01*
X9520000Y62190000D02*
X9520000Y39292000D01*
X10290001Y13159999D02*
X10790000Y12660000D01*
X9520000Y13930000D02*
X10290001Y13159999D01*
X10752000Y38060000D02*
X9520000Y36828000D01*
X9520000Y36828000D02*
X9520000Y13930000D01*
X23236000Y50535306D02*
X27348847Y54648153D01*
X23236000Y47458000D02*
X23236000Y50535306D01*
X48890000Y118070000D02*
X48890000Y142072998D01*
X52700000Y70597500D02*
X52700000Y71969000D01*
D12*
X58734694Y66938692D02*
X59234693Y66438693D01*
X58334375Y67339011D02*
X58734694Y66938692D01*
X50160000Y68159000D02*
X50979989Y67339011D01*
X50979989Y67339011D02*
X58334375Y67339011D01*
X50160000Y69022500D02*
X50160000Y68159000D01*
X43356894Y95336992D02*
X44064000Y95336992D01*
X49423500Y69022500D02*
X48890000Y69556000D01*
X41650992Y95336992D02*
X43356894Y95336992D01*
X48890000Y75398000D02*
X40496978Y83791022D01*
X50160000Y69022500D02*
X49423500Y69022500D01*
X40496978Y94182978D02*
X41650992Y95336992D01*
X48890000Y69556000D02*
X48890000Y75398000D01*
X40496978Y83791022D02*
X40496978Y94182978D01*
X34968847Y89162847D02*
X35525694Y88606000D01*
X35808996Y88606000D02*
X36571000Y89368004D01*
X35525694Y88606000D02*
X35808996Y88606000D01*
X43356894Y96861000D02*
X44064000Y96861000D01*
X36571000Y91781000D02*
X41651000Y96861000D01*
X41651000Y96861000D02*
X43356894Y96861000D01*
X36571000Y89368004D02*
X36571000Y91781000D01*
X41524000Y41108000D02*
X39580999Y43051001D01*
X39580999Y90168009D02*
X39102999Y90646009D01*
X39580999Y43051001D02*
X39580999Y90168009D01*
X39102999Y90646009D02*
X38603000Y91146008D01*
X41905000Y92216894D02*
X41905000Y92924000D01*
X41397000Y91708894D02*
X41905000Y92216894D01*
X57526000Y68286000D02*
X41397000Y84415000D01*
X64257006Y65238000D02*
X61209006Y68286000D01*
X41397000Y84415000D02*
X41397000Y91708894D01*
X61209006Y68286000D02*
X57526000Y68286000D01*
X60048601Y67414399D02*
X60548600Y66914400D01*
X59673978Y67789022D02*
X60048601Y67414399D01*
X53069978Y67789022D02*
X59673978Y67789022D01*
X52700000Y68159000D02*
X53069978Y67789022D01*
X52700000Y69022500D02*
X52700000Y68159000D01*
X43356894Y93932987D02*
X44064000Y93932987D01*
X51963500Y69022500D02*
X51430000Y69556000D01*
X52700000Y69022500D02*
X51963500Y69022500D01*
X40946989Y84040922D02*
X40946989Y93181095D01*
X51430000Y69556000D02*
X51430000Y73557911D01*
X41698881Y93932987D02*
X43356894Y93932987D01*
X51430000Y73557911D02*
X40946989Y84040922D01*
X40946989Y93181095D02*
X41698881Y93932987D01*
X50160010Y125055010D02*
X50160010Y125055000D01*
X56510000Y131405000D02*
X50160010Y125055010D01*
X47366000Y68159000D02*
X47366000Y69022500D01*
X48636000Y66889000D02*
X47366000Y68159000D01*
X57475200Y66889000D02*
X48636000Y66889000D01*
X59253200Y65111000D02*
X57475200Y66889000D01*
X39102999Y92042997D02*
X38603000Y92542996D01*
X46629500Y69022500D02*
X46223000Y69429000D01*
X40031009Y83558491D02*
X40031009Y91114987D01*
X47366000Y69022500D02*
X46629500Y69022500D01*
X46223000Y77366500D02*
X40031009Y83558491D01*
X46223000Y69429000D02*
X46223000Y77366500D01*
X40031009Y91114987D02*
X39102999Y92042997D01*
X39102999Y84914999D02*
X39102999Y89248995D01*
X21966000Y67778000D02*
X39102999Y84914999D01*
X21077000Y67778000D02*
X21966000Y67778000D01*
X17013008Y69556000D02*
X19299000Y69556000D01*
X39102999Y89248995D02*
X38603000Y89748994D01*
X19299000Y69556000D02*
X21077000Y67778000D01*
D13*
G36*
X79340001Y660000D02*
G01*
X660000Y660000D01*
X660000Y140930000D01*
X8630719Y140930000D01*
X8635000Y140886531D01*
X8635001Y118113479D01*
X8630719Y118070000D01*
X8647805Y117896510D01*
X8698412Y117729687D01*
X8780590Y117575941D01*
X8863468Y117474954D01*
X8863469Y117474953D01*
X8891184Y117441183D01*
X8924951Y117413471D01*
X9538421Y116800000D01*
X8924956Y116186534D01*
X8891183Y116158817D01*
X8780589Y116024058D01*
X8698411Y115870312D01*
X8675315Y115794176D01*
X8647806Y115703491D01*
X8647805Y115703489D01*
X8635000Y115573476D01*
X8635000Y115573469D01*
X8630719Y115530000D01*
X8635000Y115486531D01*
X8635001Y92713479D01*
X8630719Y92670000D01*
X8647805Y92496510D01*
X8698412Y92329687D01*
X8780590Y92175941D01*
X8863468Y92074954D01*
X8863469Y92074953D01*
X8891184Y92041183D01*
X8924951Y92013471D01*
X9538421Y91400000D01*
X8924956Y90786534D01*
X8891183Y90758817D01*
X8780589Y90624058D01*
X8698411Y90470312D01*
X8663596Y90355545D01*
X8647806Y90303491D01*
X8647805Y90303489D01*
X8635000Y90173476D01*
X8635000Y90173469D01*
X8630719Y90130000D01*
X8635000Y90086531D01*
X8635001Y64773479D01*
X8630719Y64730000D01*
X8647805Y64556510D01*
X8698412Y64389687D01*
X8780590Y64235941D01*
X8863468Y64134954D01*
X8863469Y64134953D01*
X8891184Y64101183D01*
X8924951Y64073471D01*
X9538421Y63460000D01*
X8924956Y62846534D01*
X8891183Y62818817D01*
X8780589Y62684058D01*
X8698411Y62530312D01*
X8694326Y62516845D01*
X8647806Y62363491D01*
X8647805Y62363489D01*
X8635000Y62233476D01*
X8635000Y62233469D01*
X8630719Y62190000D01*
X8635000Y62146531D01*
X8635001Y39335479D01*
X8630719Y39292000D01*
X8647805Y39118510D01*
X8698412Y38951687D01*
X8780590Y38797941D01*
X8863468Y38696954D01*
X8863471Y38696951D01*
X8891184Y38663183D01*
X8924951Y38635471D01*
X9500421Y38060000D01*
X8924956Y37484534D01*
X8891183Y37456817D01*
X8780589Y37322058D01*
X8698411Y37168312D01*
X8647805Y37001489D01*
X8635000Y36871476D01*
X8635000Y36871469D01*
X8630719Y36828000D01*
X8635000Y36784531D01*
X8635001Y13973479D01*
X8630719Y13930000D01*
X8647805Y13756510D01*
X8698412Y13589687D01*
X8780590Y13435941D01*
X8863468Y13334954D01*
X8863469Y13334953D01*
X8891184Y13301183D01*
X8924951Y13273471D01*
X9656190Y12542231D01*
X9698617Y12328933D01*
X9784176Y12122376D01*
X9908388Y11936480D01*
X10066480Y11778388D01*
X10252376Y11654176D01*
X10458933Y11568617D01*
X10678212Y11525000D01*
X10901788Y11525000D01*
X11121067Y11568617D01*
X11327624Y11654176D01*
X11513520Y11778388D01*
X11671612Y11936480D01*
X11795824Y12122376D01*
X11881383Y12328933D01*
X11925000Y12548212D01*
X11925000Y12771788D01*
X11881383Y12991067D01*
X11795824Y13197624D01*
X11671612Y13383520D01*
X11513520Y13541612D01*
X11327624Y13665824D01*
X11121067Y13751383D01*
X10907769Y13793810D01*
X10405000Y14296578D01*
X10405000Y36461422D01*
X10869768Y36926190D01*
X11083067Y36968617D01*
X11289624Y37054176D01*
X11475520Y37178388D01*
X11633612Y37336480D01*
X11757824Y37522376D01*
X11843383Y37728933D01*
X11887000Y37948212D01*
X11887000Y38171788D01*
X11843383Y38391067D01*
X11757824Y38597624D01*
X11633612Y38783520D01*
X11475520Y38941612D01*
X11289624Y39065824D01*
X11083067Y39151383D01*
X10869769Y39193810D01*
X10405000Y39658578D01*
X10405000Y47569788D01*
X22101000Y47569788D01*
X22101000Y47346212D01*
X22144617Y47126933D01*
X22230176Y46920376D01*
X22354388Y46734480D01*
X22512480Y46576388D01*
X22698376Y46452176D01*
X22904933Y46366617D01*
X23124212Y46323000D01*
X23347788Y46323000D01*
X23567067Y46366617D01*
X23773624Y46452176D01*
X23959520Y46576388D01*
X24117612Y46734480D01*
X24241824Y46920376D01*
X24327383Y47126933D01*
X24371000Y47346212D01*
X24371000Y47506409D01*
X33145320Y47506409D01*
X33145320Y47281903D01*
X33250451Y47172427D01*
X33347143Y47093074D01*
X33457457Y47034110D01*
X33577155Y46997801D01*
X33662867Y46989359D01*
X33665613Y46961478D01*
X33714371Y46800744D01*
X33793550Y46652611D01*
X33900106Y46522771D01*
X34209465Y46213412D01*
X34339305Y46106856D01*
X34487438Y46027677D01*
X34648172Y45978919D01*
X34815330Y45962455D01*
X34982488Y45978919D01*
X35143222Y46027677D01*
X35291355Y46106856D01*
X35421195Y46213412D01*
X35783588Y46575805D01*
X35890144Y46705645D01*
X35966740Y46848946D01*
X35968388Y46846480D01*
X36126480Y46688388D01*
X36312376Y46564176D01*
X36518933Y46478617D01*
X36738212Y46435000D01*
X36961788Y46435000D01*
X37181067Y46478617D01*
X37387624Y46564176D01*
X37573520Y46688388D01*
X37731612Y46846480D01*
X37855824Y47032376D01*
X37941383Y47238933D01*
X37985000Y47458212D01*
X37985000Y47681788D01*
X37941383Y47901067D01*
X37855824Y48107624D01*
X37731612Y48293520D01*
X37573520Y48451612D01*
X37387624Y48575824D01*
X37181067Y48661383D01*
X36971146Y48703139D01*
X36955817Y48721817D01*
X36821059Y48832411D01*
X36667313Y48914589D01*
X36500490Y48965195D01*
X36370477Y48978000D01*
X36370469Y48978000D01*
X36327000Y48982281D01*
X36283531Y48978000D01*
X35823163Y48978000D01*
X35779694Y48982281D01*
X35736225Y48978000D01*
X35736217Y48978000D01*
X35621000Y48966652D01*
X35606203Y48965195D01*
X35555597Y48949843D01*
X35439381Y48914589D01*
X35285635Y48832411D01*
X35257451Y48809281D01*
X35184647Y48749532D01*
X35184645Y48749530D01*
X35150877Y48721817D01*
X35123164Y48688049D01*
X34965629Y48530514D01*
X34962890Y48539543D01*
X34903926Y48649857D01*
X34824573Y48746549D01*
X34715097Y48851680D01*
X34490591Y48851680D01*
X33907758Y48268847D01*
X33921901Y48254704D01*
X33742296Y48075099D01*
X33728153Y48089242D01*
X33145320Y47506409D01*
X24371000Y47506409D01*
X24371000Y47569788D01*
X24327383Y47789067D01*
X24241824Y47995624D01*
X24121000Y48176450D01*
X24121000Y48242330D01*
X32444846Y48242330D01*
X32457107Y48117849D01*
X32493416Y47998151D01*
X32552380Y47887837D01*
X32631733Y47791145D01*
X32741209Y47686014D01*
X32965715Y47686014D01*
X33548548Y48268847D01*
X32992232Y48825163D01*
X32767725Y48825163D01*
X32631733Y48693516D01*
X32552380Y48596824D01*
X32493416Y48486510D01*
X32457107Y48366812D01*
X32444846Y48242330D01*
X24121000Y48242330D01*
X24121000Y49229275D01*
X33171837Y49229275D01*
X33171837Y49004768D01*
X33728153Y48448452D01*
X34310986Y49031285D01*
X34310986Y49255791D01*
X34205855Y49365267D01*
X34109163Y49444620D01*
X33998849Y49503584D01*
X33879151Y49539893D01*
X33754670Y49552154D01*
X33630188Y49539893D01*
X33510490Y49503584D01*
X33400176Y49444620D01*
X33303484Y49365267D01*
X33171837Y49229275D01*
X24121000Y49229275D01*
X24121000Y50168728D01*
X26284681Y52332409D01*
X28319320Y52332409D01*
X28319320Y52107903D01*
X28424451Y51998427D01*
X28521143Y51919074D01*
X28631457Y51860110D01*
X28751155Y51823801D01*
X28836867Y51815359D01*
X28839613Y51787478D01*
X28888371Y51626744D01*
X28967550Y51478611D01*
X29074106Y51348771D01*
X29383465Y51039412D01*
X29513305Y50932856D01*
X29661438Y50853677D01*
X29822172Y50804919D01*
X29989330Y50788455D01*
X30156488Y50804919D01*
X30317222Y50853677D01*
X30465355Y50932856D01*
X30595195Y51039412D01*
X30957588Y51401805D01*
X31064144Y51531645D01*
X31143323Y51679778D01*
X31192081Y51840512D01*
X31206283Y51984705D01*
X31307768Y52086190D01*
X31521067Y52128617D01*
X31727624Y52214176D01*
X31913520Y52338388D01*
X32071612Y52496480D01*
X32195824Y52682376D01*
X32281383Y52888933D01*
X32325000Y53108212D01*
X32325000Y53331788D01*
X32281383Y53551067D01*
X32195824Y53757624D01*
X32071612Y53943520D01*
X31913520Y54101612D01*
X31727624Y54225824D01*
X31521067Y54311383D01*
X31301788Y54355000D01*
X31078212Y54355000D01*
X30858933Y54311383D01*
X30652376Y54225824D01*
X30466480Y54101612D01*
X30308388Y53943520D01*
X30184176Y53757624D01*
X30098617Y53551067D01*
X30082103Y53468043D01*
X30077926Y53475857D01*
X29998573Y53572549D01*
X29889097Y53677680D01*
X29664591Y53677680D01*
X29081758Y53094847D01*
X29095901Y53080704D01*
X28916296Y52901099D01*
X28902153Y52915242D01*
X28319320Y52332409D01*
X26284681Y52332409D01*
X27020602Y53068330D01*
X27618846Y53068330D01*
X27631107Y52943849D01*
X27667416Y52824151D01*
X27726380Y52713837D01*
X27805733Y52617145D01*
X27915209Y52512014D01*
X28139715Y52512014D01*
X28722548Y53094847D01*
X28166232Y53651163D01*
X27941725Y53651163D01*
X27805733Y53519516D01*
X27726380Y53422824D01*
X27667416Y53312510D01*
X27631107Y53192812D01*
X27618846Y53068330D01*
X27020602Y53068330D01*
X27417058Y53464785D01*
X27489488Y53471919D01*
X27650222Y53520677D01*
X27798355Y53599856D01*
X27928195Y53706412D01*
X28277058Y54055275D01*
X28345837Y54055275D01*
X28345837Y53830768D01*
X28902153Y53274452D01*
X29484986Y53857285D01*
X29484986Y54081791D01*
X29379855Y54191267D01*
X29283163Y54270620D01*
X29172849Y54329584D01*
X29053151Y54365893D01*
X28928670Y54378154D01*
X28804188Y54365893D01*
X28684490Y54329584D01*
X28574176Y54270620D01*
X28477484Y54191267D01*
X28345837Y54055275D01*
X28277058Y54055275D01*
X28290588Y54068805D01*
X28397144Y54198645D01*
X28471183Y54337162D01*
X28539913Y54358011D01*
X28693659Y54440189D01*
X28828417Y54550783D01*
X28833846Y54557399D01*
X29041067Y54598617D01*
X29247624Y54684176D01*
X29433520Y54808388D01*
X29591612Y54966480D01*
X29715824Y55152376D01*
X29801383Y55358933D01*
X29845000Y55578212D01*
X29845000Y55801788D01*
X29801383Y56021067D01*
X29715824Y56227624D01*
X29591612Y56413520D01*
X29433520Y56571612D01*
X29247624Y56695824D01*
X29041067Y56781383D01*
X28821788Y56825000D01*
X28598212Y56825000D01*
X28378933Y56781383D01*
X28172376Y56695824D01*
X27986480Y56571612D01*
X27828388Y56413520D01*
X27704176Y56227624D01*
X27620501Y56025615D01*
X27539980Y56001189D01*
X27487853Y55973326D01*
X27469890Y56032543D01*
X27410926Y56142857D01*
X27331573Y56239549D01*
X27222097Y56344680D01*
X26997591Y56344680D01*
X26414758Y55761847D01*
X26428901Y55747704D01*
X26249296Y55568099D01*
X26235153Y55582242D01*
X25652320Y54999409D01*
X25652320Y54774903D01*
X25757451Y54665427D01*
X25854143Y54586074D01*
X25964457Y54527110D01*
X25973486Y54524371D01*
X22640951Y51191836D01*
X22607184Y51164123D01*
X22579471Y51130355D01*
X22579468Y51130352D01*
X22496590Y51029365D01*
X22414412Y50875619D01*
X22363805Y50708796D01*
X22346719Y50535306D01*
X22351001Y50491827D01*
X22351000Y48176450D01*
X22230176Y47995624D01*
X22144617Y47789067D01*
X22101000Y47569788D01*
X10405000Y47569788D01*
X10405000Y55735330D01*
X24951846Y55735330D01*
X24964107Y55610849D01*
X25000416Y55491151D01*
X25059380Y55380837D01*
X25138733Y55284145D01*
X25248209Y55179014D01*
X25472715Y55179014D01*
X26055548Y55761847D01*
X25499232Y56318163D01*
X25274725Y56318163D01*
X25138733Y56186516D01*
X25059380Y56089824D01*
X25000416Y55979510D01*
X24964107Y55859812D01*
X24951846Y55735330D01*
X10405000Y55735330D01*
X10405000Y56722275D01*
X25678837Y56722275D01*
X25678837Y56497768D01*
X26235153Y55941452D01*
X26817986Y56524285D01*
X26817986Y56748791D01*
X26712855Y56858267D01*
X26616163Y56937620D01*
X26505849Y56996584D01*
X26386151Y57032893D01*
X26261670Y57045154D01*
X26137188Y57032893D01*
X26017490Y56996584D01*
X25907176Y56937620D01*
X25810484Y56858267D01*
X25678837Y56722275D01*
X10405000Y56722275D01*
X10405000Y59952409D01*
X20699320Y59952409D01*
X20699320Y59727903D01*
X20804451Y59618427D01*
X20901143Y59539074D01*
X21011457Y59480110D01*
X21131155Y59443801D01*
X21216867Y59435359D01*
X21219613Y59407478D01*
X21268371Y59246744D01*
X21347550Y59098611D01*
X21454106Y58968771D01*
X21763465Y58659412D01*
X21893305Y58552856D01*
X22041438Y58473677D01*
X22202172Y58424919D01*
X22369330Y58408455D01*
X22536488Y58424919D01*
X22697222Y58473677D01*
X22845355Y58552856D01*
X22975195Y58659412D01*
X23337588Y59021805D01*
X23444144Y59151645D01*
X23523323Y59299778D01*
X23529383Y59319754D01*
X23598388Y59216480D01*
X23756480Y59058388D01*
X23942376Y58934176D01*
X24148933Y58848617D01*
X24368212Y58805000D01*
X24591788Y58805000D01*
X24811067Y58848617D01*
X25017624Y58934176D01*
X25203520Y59058388D01*
X25361612Y59216480D01*
X25485824Y59402376D01*
X25571383Y59608933D01*
X25615000Y59828212D01*
X25615000Y60051788D01*
X25571383Y60271067D01*
X25485824Y60477624D01*
X25361612Y60663520D01*
X25203520Y60821612D01*
X25017624Y60945824D01*
X24811067Y61031383D01*
X24591788Y61075000D01*
X24586578Y61075000D01*
X24527534Y61134044D01*
X24499817Y61167817D01*
X24365059Y61278411D01*
X24211313Y61360589D01*
X24044490Y61411195D01*
X23914477Y61424000D01*
X23914469Y61424000D01*
X23871000Y61428281D01*
X23827531Y61424000D01*
X23377163Y61424000D01*
X23333694Y61428281D01*
X23290225Y61424000D01*
X23290217Y61424000D01*
X23175000Y61412652D01*
X23160203Y61411195D01*
X23141163Y61405419D01*
X22993381Y61360589D01*
X22839635Y61278411D01*
X22828688Y61269427D01*
X22738647Y61195532D01*
X22738645Y61195530D01*
X22704877Y61167817D01*
X22677164Y61134049D01*
X22519629Y60976514D01*
X22516890Y60985543D01*
X22457926Y61095857D01*
X22378573Y61192549D01*
X22269097Y61297680D01*
X22044591Y61297680D01*
X21461758Y60714847D01*
X21475901Y60700704D01*
X21296296Y60521099D01*
X21282153Y60535242D01*
X20699320Y59952409D01*
X10405000Y59952409D01*
X10405000Y60688330D01*
X19998846Y60688330D01*
X20011107Y60563849D01*
X20047416Y60444151D01*
X20106380Y60333837D01*
X20185733Y60237145D01*
X20295209Y60132014D01*
X20519715Y60132014D01*
X21102548Y60714847D01*
X20546232Y61271163D01*
X20321725Y61271163D01*
X20185733Y61139516D01*
X20106380Y61042824D01*
X20047416Y60932510D01*
X20011107Y60812812D01*
X19998846Y60688330D01*
X10405000Y60688330D01*
X10405000Y61675275D01*
X20725837Y61675275D01*
X20725837Y61450768D01*
X21282153Y60894452D01*
X21864986Y61477285D01*
X21864986Y61701791D01*
X21759855Y61811267D01*
X21663163Y61890620D01*
X21552849Y61949584D01*
X21433151Y61985893D01*
X21308670Y61998154D01*
X21184188Y61985893D01*
X21064490Y61949584D01*
X20954176Y61890620D01*
X20857484Y61811267D01*
X20725837Y61675275D01*
X10405000Y61675275D01*
X10405000Y61823422D01*
X10907768Y62326190D01*
X11121067Y62368617D01*
X11327624Y62454176D01*
X11508450Y62575000D01*
X18493531Y62575000D01*
X18537000Y62570719D01*
X18580469Y62575000D01*
X18580477Y62575000D01*
X18710490Y62587805D01*
X18877313Y62638411D01*
X19031059Y62720589D01*
X19165817Y62831183D01*
X19193534Y62864956D01*
X20402058Y64073479D01*
X20435825Y64101191D01*
X20473106Y64146617D01*
X20546419Y64235949D01*
X20628597Y64389694D01*
X20679203Y64556518D01*
X20682993Y64595000D01*
X20692008Y64686531D01*
X20692008Y64686539D01*
X20696289Y64730008D01*
X20692008Y64773477D01*
X20692008Y66742050D01*
X20812832Y66922876D01*
X20855126Y67024982D01*
X20923113Y67004358D01*
X20998026Y66996980D01*
X21038439Y66993000D01*
X21038444Y66993000D01*
X21077000Y66989203D01*
X21115556Y66993000D01*
X21927447Y66993000D01*
X21966000Y66989203D01*
X22004553Y66993000D01*
X22004561Y66993000D01*
X22119887Y67004359D01*
X22267860Y67049246D01*
X22404233Y67122138D01*
X22523764Y67220236D01*
X22548347Y67250190D01*
X38796000Y83497842D01*
X38795999Y43089554D01*
X38792202Y43051001D01*
X38795999Y43012448D01*
X38795999Y43012441D01*
X38807358Y42897115D01*
X38852245Y42749142D01*
X38925137Y42612769D01*
X39023235Y42493237D01*
X39053189Y42468654D01*
X40389000Y41132842D01*
X40389000Y40996212D01*
X40432617Y40776933D01*
X40518176Y40570376D01*
X40642388Y40384480D01*
X40800480Y40226388D01*
X40986376Y40102176D01*
X41192933Y40016617D01*
X41412212Y39973000D01*
X41635788Y39973000D01*
X41855067Y40016617D01*
X42061624Y40102176D01*
X42247520Y40226388D01*
X42405612Y40384480D01*
X42529824Y40570376D01*
X42615383Y40776933D01*
X42659000Y40996212D01*
X42659000Y41219788D01*
X42615383Y41439067D01*
X42529824Y41645624D01*
X42405612Y41831520D01*
X42247520Y41989612D01*
X42061624Y42113824D01*
X41855067Y42199383D01*
X41635788Y42243000D01*
X41499158Y42243000D01*
X40365999Y43376158D01*
X40365999Y43567341D01*
X40394941Y43543589D01*
X40548687Y43461411D01*
X40552755Y43460177D01*
X40552919Y43458512D01*
X40601677Y43297778D01*
X40680856Y43149645D01*
X40787412Y43019805D01*
X41149805Y42657412D01*
X41279645Y42550856D01*
X41427778Y42471677D01*
X41588512Y42422919D01*
X41755670Y42406455D01*
X41922828Y42422919D01*
X42083562Y42471677D01*
X42231695Y42550856D01*
X42361535Y42657412D01*
X42670894Y42966771D01*
X42777450Y43096611D01*
X42856629Y43244744D01*
X42905387Y43405478D01*
X42908133Y43433359D01*
X42993845Y43441801D01*
X43113543Y43478110D01*
X43223857Y43537074D01*
X43320549Y43616427D01*
X43425680Y43725903D01*
X43425680Y43950409D01*
X42842847Y44533242D01*
X42828705Y44519099D01*
X42649100Y44698704D01*
X42663242Y44712847D01*
X43022452Y44712847D01*
X43605285Y44130014D01*
X43829791Y44130014D01*
X43939267Y44235145D01*
X44018620Y44331837D01*
X44077584Y44442151D01*
X44113893Y44561849D01*
X44126154Y44686330D01*
X44113893Y44810812D01*
X44077584Y44930510D01*
X44018620Y45040824D01*
X43939267Y45137516D01*
X43803275Y45269163D01*
X43578768Y45269163D01*
X43022452Y44712847D01*
X42663242Y44712847D01*
X42080409Y45295680D01*
X41855903Y45295680D01*
X41746427Y45190549D01*
X41667074Y45093857D01*
X41608110Y44983543D01*
X41603848Y44969491D01*
X41539365Y45022411D01*
X41486595Y45050617D01*
X41472383Y45122067D01*
X41386824Y45328624D01*
X41262612Y45514520D01*
X41104520Y45672612D01*
X41063844Y45699791D01*
X42260014Y45699791D01*
X42260014Y45475285D01*
X42842847Y44892452D01*
X43399163Y45448768D01*
X43399163Y45673275D01*
X43267516Y45809267D01*
X43170824Y45888620D01*
X43060510Y45947584D01*
X42940812Y45983893D01*
X42816330Y45996154D01*
X42691849Y45983893D01*
X42572151Y45947584D01*
X42461837Y45888620D01*
X42365145Y45809267D01*
X42260014Y45699791D01*
X41063844Y45699791D01*
X40918624Y45796824D01*
X40712067Y45882383D01*
X40492788Y45926000D01*
X40365999Y45926000D01*
X40365999Y48031788D01*
X42375000Y48031788D01*
X42375000Y47808212D01*
X42418617Y47588933D01*
X42504176Y47382376D01*
X42628388Y47196480D01*
X42786480Y47038388D01*
X42972376Y46914176D01*
X43178933Y46828617D01*
X43396638Y46785313D01*
X43477941Y46718589D01*
X43502158Y46705645D01*
X43631686Y46636411D01*
X43766250Y46595591D01*
X43798510Y46585805D01*
X43928523Y46573000D01*
X43928531Y46573000D01*
X43972000Y46568719D01*
X43994073Y46570893D01*
X44031703Y46500492D01*
X44138259Y46370652D01*
X44500652Y46008259D01*
X44630492Y45901703D01*
X44778625Y45822524D01*
X44939359Y45773766D01*
X45106517Y45757302D01*
X45273675Y45773766D01*
X45434409Y45822524D01*
X45582542Y45901703D01*
X45712382Y46008259D01*
X46021741Y46317618D01*
X46128297Y46447458D01*
X46207476Y46595591D01*
X46256234Y46756325D01*
X46258980Y46784206D01*
X46344692Y46792648D01*
X46464390Y46828957D01*
X46574704Y46887921D01*
X46671396Y46967274D01*
X46776527Y47076750D01*
X46776527Y47301256D01*
X46193694Y47884089D01*
X46179552Y47869946D01*
X45999947Y48049551D01*
X46014089Y48063694D01*
X46373299Y48063694D01*
X46956132Y47480861D01*
X47180638Y47480861D01*
X47290114Y47585992D01*
X47369467Y47682684D01*
X47428431Y47792998D01*
X47464740Y47912696D01*
X47477001Y48037177D01*
X47464740Y48161659D01*
X47428431Y48281357D01*
X47369467Y48391671D01*
X47290114Y48488363D01*
X47154122Y48620010D01*
X46929615Y48620010D01*
X46373299Y48063694D01*
X46014089Y48063694D01*
X45431256Y48646527D01*
X45206750Y48646527D01*
X45097274Y48541396D01*
X45017921Y48444704D01*
X44958957Y48334390D01*
X44938145Y48265781D01*
X44912313Y48279589D01*
X44745490Y48330195D01*
X44615477Y48343000D01*
X44615469Y48343000D01*
X44572000Y48347281D01*
X44561940Y48346290D01*
X44515824Y48457624D01*
X44391612Y48643520D01*
X44233520Y48801612D01*
X44047624Y48925824D01*
X43841067Y49011383D01*
X43643718Y49050638D01*
X45610861Y49050638D01*
X45610861Y48826132D01*
X46193694Y48243299D01*
X46750010Y48799615D01*
X46750010Y49024122D01*
X46618363Y49160114D01*
X46521671Y49239467D01*
X46411357Y49298431D01*
X46291659Y49334740D01*
X46167177Y49347001D01*
X46042696Y49334740D01*
X45922998Y49298431D01*
X45812684Y49239467D01*
X45715992Y49160114D01*
X45610861Y49050638D01*
X43643718Y49050638D01*
X43621788Y49055000D01*
X43398212Y49055000D01*
X43178933Y49011383D01*
X42972376Y48925824D01*
X42786480Y48801612D01*
X42628388Y48643520D01*
X42504176Y48457624D01*
X42418617Y48251067D01*
X42375000Y48031788D01*
X40365999Y48031788D01*
X40365999Y51561788D01*
X45905000Y51561788D01*
X45905000Y51338212D01*
X45948617Y51118933D01*
X46034176Y50912376D01*
X46158388Y50726480D01*
X46316480Y50568388D01*
X46502376Y50444176D01*
X46708933Y50358617D01*
X46928212Y50315000D01*
X47151788Y50315000D01*
X47371067Y50358617D01*
X47542172Y50429491D01*
X47586677Y50282778D01*
X47665856Y50134645D01*
X47772412Y50004805D01*
X48134805Y49642412D01*
X48264645Y49535856D01*
X48412778Y49456677D01*
X48573512Y49407919D01*
X48740670Y49391455D01*
X48907828Y49407919D01*
X49068562Y49456677D01*
X49216695Y49535856D01*
X49346535Y49642412D01*
X49655894Y49951771D01*
X49762450Y50081611D01*
X49841629Y50229744D01*
X49890387Y50390478D01*
X49893133Y50418359D01*
X49978845Y50426801D01*
X50098543Y50463110D01*
X50208857Y50522074D01*
X50305549Y50601427D01*
X50410680Y50710903D01*
X50410680Y50935409D01*
X49827847Y51518242D01*
X49813705Y51504099D01*
X49634100Y51683704D01*
X49648242Y51697847D01*
X50007452Y51697847D01*
X50590285Y51115014D01*
X50814791Y51115014D01*
X50924267Y51220145D01*
X51003620Y51316837D01*
X51062584Y51427151D01*
X51098893Y51546849D01*
X51111154Y51671330D01*
X51098893Y51795812D01*
X51062584Y51915510D01*
X51003620Y52025824D01*
X50924267Y52122516D01*
X50788275Y52254163D01*
X50563768Y52254163D01*
X50007452Y51697847D01*
X49648242Y51697847D01*
X49065409Y52280680D01*
X48840903Y52280680D01*
X48731427Y52175549D01*
X48652074Y52078857D01*
X48593110Y51968543D01*
X48590371Y51959513D01*
X48504840Y52045044D01*
X48477123Y52078817D01*
X48342365Y52189411D01*
X48188619Y52271589D01*
X48021796Y52322195D01*
X47891783Y52335000D01*
X47891775Y52335000D01*
X47848306Y52339281D01*
X47804837Y52335000D01*
X47758450Y52335000D01*
X47577624Y52455824D01*
X47371067Y52541383D01*
X47151788Y52585000D01*
X46928212Y52585000D01*
X46708933Y52541383D01*
X46502376Y52455824D01*
X46316480Y52331612D01*
X46158388Y52173520D01*
X46034176Y51987624D01*
X45948617Y51781067D01*
X45905000Y51561788D01*
X40365999Y51561788D01*
X40365999Y52684791D01*
X49245014Y52684791D01*
X49245014Y52460285D01*
X49827847Y51877452D01*
X50384163Y52433768D01*
X50384163Y52658275D01*
X50252516Y52794267D01*
X50155824Y52873620D01*
X50045510Y52932584D01*
X49925812Y52968893D01*
X49801330Y52981154D01*
X49676849Y52968893D01*
X49557151Y52932584D01*
X49446837Y52873620D01*
X49350145Y52794267D01*
X49245014Y52684791D01*
X40365999Y52684791D01*
X40365999Y55091788D01*
X49445000Y55091788D01*
X49445000Y54868212D01*
X49488617Y54648933D01*
X49574176Y54442376D01*
X49698388Y54256480D01*
X49856480Y54098388D01*
X50042376Y53974176D01*
X50248933Y53888617D01*
X50468212Y53845000D01*
X50691788Y53845000D01*
X50911067Y53888617D01*
X50963206Y53910214D01*
X50966919Y53872512D01*
X51015677Y53711778D01*
X51094856Y53563645D01*
X51201412Y53433805D01*
X51563805Y53071412D01*
X51693645Y52964856D01*
X51841778Y52885677D01*
X52002512Y52836919D01*
X52169670Y52820455D01*
X52336828Y52836919D01*
X52497562Y52885677D01*
X52645695Y52964856D01*
X52775535Y53071412D01*
X53084894Y53380771D01*
X53191450Y53510611D01*
X53270629Y53658744D01*
X53319387Y53819478D01*
X53322133Y53847359D01*
X53407845Y53855801D01*
X53527543Y53892110D01*
X53637857Y53951074D01*
X53734549Y54030427D01*
X53839680Y54139903D01*
X53839680Y54364409D01*
X53256847Y54947242D01*
X53242705Y54933099D01*
X53063100Y55112704D01*
X53077242Y55126847D01*
X53436452Y55126847D01*
X54019285Y54544014D01*
X54243791Y54544014D01*
X54353267Y54649145D01*
X54432620Y54745837D01*
X54491584Y54856151D01*
X54527893Y54975849D01*
X54540154Y55100330D01*
X54527893Y55224812D01*
X54491584Y55344510D01*
X54432620Y55454824D01*
X54353267Y55551516D01*
X54217275Y55683163D01*
X53992768Y55683163D01*
X53436452Y55126847D01*
X53077242Y55126847D01*
X52494409Y55709680D01*
X52269903Y55709680D01*
X52160427Y55604549D01*
X52081074Y55507857D01*
X52022110Y55397543D01*
X52019371Y55388513D01*
X51832840Y55575044D01*
X51805123Y55608817D01*
X51670365Y55719411D01*
X51516619Y55801589D01*
X51349796Y55852195D01*
X51308910Y55856222D01*
X51303520Y55861612D01*
X51117624Y55985824D01*
X50911067Y56071383D01*
X50697867Y56113791D01*
X52674014Y56113791D01*
X52674014Y55889285D01*
X53256847Y55306452D01*
X53813163Y55862768D01*
X53813163Y56087275D01*
X53681516Y56223267D01*
X53584824Y56302620D01*
X53474510Y56361584D01*
X53354812Y56397893D01*
X53230330Y56410154D01*
X53105849Y56397893D01*
X52986151Y56361584D01*
X52875837Y56302620D01*
X52779145Y56223267D01*
X52674014Y56113791D01*
X50697867Y56113791D01*
X50691788Y56115000D01*
X50468212Y56115000D01*
X50248933Y56071383D01*
X50042376Y55985824D01*
X49856480Y55861612D01*
X49698388Y55703520D01*
X49574176Y55517624D01*
X49488617Y55311067D01*
X49445000Y55091788D01*
X40365999Y55091788D01*
X40365999Y58611788D01*
X52945000Y58611788D01*
X52945000Y58388212D01*
X52988617Y58168933D01*
X53074176Y57962376D01*
X53198388Y57776480D01*
X53356480Y57618388D01*
X53542376Y57494176D01*
X53748933Y57408617D01*
X53968212Y57365000D01*
X54191788Y57365000D01*
X54411067Y57408617D01*
X54617624Y57494176D01*
X54659947Y57522455D01*
X54698677Y57394778D01*
X54777856Y57246645D01*
X54884412Y57116805D01*
X55246805Y56754412D01*
X55376645Y56647856D01*
X55524778Y56568677D01*
X55685512Y56519919D01*
X55852670Y56503455D01*
X56019828Y56519919D01*
X56180562Y56568677D01*
X56328695Y56647856D01*
X56458535Y56754412D01*
X56767894Y57063771D01*
X56874450Y57193611D01*
X56953629Y57341744D01*
X57002387Y57502478D01*
X57005133Y57530359D01*
X57090845Y57538801D01*
X57210543Y57575110D01*
X57320857Y57634074D01*
X57417549Y57713427D01*
X57522680Y57822903D01*
X57522680Y58047409D01*
X56939847Y58630242D01*
X56925705Y58616099D01*
X56746100Y58795704D01*
X56760242Y58809847D01*
X57119452Y58809847D01*
X57702285Y58227014D01*
X57926791Y58227014D01*
X58036267Y58332145D01*
X58115620Y58428837D01*
X58174584Y58539151D01*
X58210893Y58658849D01*
X58223154Y58783330D01*
X58210893Y58907812D01*
X58174584Y59027510D01*
X58115620Y59137824D01*
X58036267Y59234516D01*
X57900275Y59366163D01*
X57675768Y59366163D01*
X57119452Y58809847D01*
X56760242Y58809847D01*
X56177409Y59392680D01*
X55952903Y59392680D01*
X55843427Y59287549D01*
X55764074Y59190857D01*
X55705110Y59080543D01*
X55702371Y59071513D01*
X55678840Y59095044D01*
X55651123Y59128817D01*
X55516365Y59239411D01*
X55362619Y59321589D01*
X55195796Y59372195D01*
X55065783Y59385000D01*
X55065775Y59385000D01*
X55022306Y59389281D01*
X54978837Y59385000D01*
X54798450Y59385000D01*
X54617624Y59505824D01*
X54411067Y59591383D01*
X54191788Y59635000D01*
X53968212Y59635000D01*
X53748933Y59591383D01*
X53542376Y59505824D01*
X53356480Y59381612D01*
X53198388Y59223520D01*
X53074176Y59037624D01*
X52988617Y58831067D01*
X52945000Y58611788D01*
X40365999Y58611788D01*
X40365999Y59796791D01*
X56357014Y59796791D01*
X56357014Y59572285D01*
X56939847Y58989452D01*
X57496163Y59545768D01*
X57496163Y59770275D01*
X57364516Y59906267D01*
X57267824Y59985620D01*
X57157510Y60044584D01*
X57037812Y60080893D01*
X56913330Y60093154D01*
X56788849Y60080893D01*
X56669151Y60044584D01*
X56558837Y59985620D01*
X56462145Y59906267D01*
X56357014Y59796791D01*
X40365999Y59796791D01*
X40365999Y62161788D01*
X56505000Y62161788D01*
X56505000Y61938212D01*
X56548617Y61718933D01*
X56634176Y61512376D01*
X56758388Y61326480D01*
X56916480Y61168388D01*
X57102376Y61044176D01*
X57308933Y60958617D01*
X57528212Y60915000D01*
X57751788Y60915000D01*
X57971067Y60958617D01*
X58177624Y61044176D01*
X58218134Y61071244D01*
X58254677Y60950778D01*
X58333856Y60802645D01*
X58440412Y60672805D01*
X58802805Y60310412D01*
X58932645Y60203856D01*
X59080778Y60124677D01*
X59241512Y60075919D01*
X59313943Y60068785D01*
X60962776Y58419951D01*
X60990489Y58386183D01*
X61024257Y58358470D01*
X61024259Y58358468D01*
X61063200Y58326510D01*
X61125247Y58275589D01*
X61278993Y58193411D01*
X61445816Y58142805D01*
X61575829Y58130000D01*
X61575839Y58130000D01*
X61619305Y58125719D01*
X61662771Y58130000D01*
X64721531Y58130000D01*
X64765000Y58125719D01*
X64808469Y58130000D01*
X64808477Y58130000D01*
X64938490Y58142805D01*
X65105313Y58193411D01*
X65259059Y58275589D01*
X65393817Y58386183D01*
X65421534Y58419956D01*
X69210000Y62208421D01*
X69595000Y61823421D01*
X69595001Y39696580D01*
X69092232Y39193811D01*
X68878933Y39151383D01*
X68672376Y39065824D01*
X68486480Y38941612D01*
X68328388Y38783520D01*
X68204176Y38597624D01*
X68118617Y38391067D01*
X68075000Y38171788D01*
X68075000Y37948212D01*
X68118617Y37728933D01*
X68204176Y37522376D01*
X68328388Y37336480D01*
X68486480Y37178388D01*
X68672376Y37054176D01*
X68878933Y36968617D01*
X69092232Y36926189D01*
X69595000Y36423421D01*
X69595001Y14296580D01*
X69092232Y13793811D01*
X68878933Y13751383D01*
X68672376Y13665824D01*
X68486480Y13541612D01*
X68328388Y13383520D01*
X68204176Y13197624D01*
X68118617Y12991067D01*
X68075000Y12771788D01*
X68075000Y12548212D01*
X68118617Y12328933D01*
X68204176Y12122376D01*
X68328388Y11936480D01*
X68486480Y11778388D01*
X68672376Y11654176D01*
X68878933Y11568617D01*
X69098212Y11525000D01*
X69321788Y11525000D01*
X69541067Y11568617D01*
X69747624Y11654176D01*
X69933520Y11778388D01*
X70091612Y11936480D01*
X70215824Y12122376D01*
X70301383Y12328933D01*
X70343811Y12542232D01*
X71075049Y13273470D01*
X71108817Y13301183D01*
X71136533Y13334954D01*
X71219410Y13435940D01*
X71219411Y13435941D01*
X71301589Y13589687D01*
X71352195Y13756510D01*
X71365000Y13886523D01*
X71365000Y13886533D01*
X71369281Y13929999D01*
X71365000Y13973465D01*
X71365000Y36746535D01*
X71369281Y36790001D01*
X71365000Y36833467D01*
X71365000Y36833477D01*
X71352195Y36963490D01*
X71301589Y37130313D01*
X71219411Y37284059D01*
X71108817Y37418817D01*
X71075050Y37446529D01*
X70461578Y38060000D01*
X71075049Y38673470D01*
X71108817Y38701183D01*
X71219411Y38835941D01*
X71301589Y38989687D01*
X71352195Y39156510D01*
X71365000Y39286523D01*
X71365000Y39286533D01*
X71369281Y39329999D01*
X71365000Y39373465D01*
X71365000Y62146535D01*
X71369281Y62190001D01*
X71365000Y62233467D01*
X71365000Y62233477D01*
X71352195Y62363490D01*
X71301589Y62530313D01*
X71219411Y62684059D01*
X71145992Y62773520D01*
X71136532Y62785047D01*
X71136530Y62785049D01*
X71108817Y62818817D01*
X71075050Y62846529D01*
X70461578Y63460000D01*
X71075049Y64073470D01*
X71108817Y64101183D01*
X71136533Y64134954D01*
X71219410Y64235940D01*
X71219415Y64235949D01*
X71301589Y64389687D01*
X71352195Y64556510D01*
X71365000Y64686523D01*
X71365000Y64686533D01*
X71369281Y64729999D01*
X71365000Y64773465D01*
X71365000Y90086535D01*
X71369281Y90130001D01*
X71365000Y90173467D01*
X71365000Y90173477D01*
X71352195Y90303490D01*
X71301589Y90470313D01*
X71219411Y90624059D01*
X71150706Y90707776D01*
X71136532Y90725047D01*
X71136530Y90725049D01*
X71108817Y90758817D01*
X71075050Y90786529D01*
X70461578Y91400000D01*
X71075049Y92013470D01*
X71108817Y92041183D01*
X71136533Y92074954D01*
X71219410Y92175940D01*
X71219411Y92175941D01*
X71301589Y92329687D01*
X71352195Y92496510D01*
X71365000Y92626523D01*
X71365000Y92626533D01*
X71369281Y92669999D01*
X71365000Y92713465D01*
X71365000Y115486535D01*
X71369281Y115530001D01*
X71365000Y115573467D01*
X71365000Y115573477D01*
X71352195Y115703490D01*
X71301589Y115870313D01*
X71219411Y116024059D01*
X71176390Y116076480D01*
X71136532Y116125047D01*
X71136530Y116125049D01*
X71108817Y116158817D01*
X71075050Y116186529D01*
X70461578Y116800000D01*
X71075050Y117413471D01*
X71108817Y117441183D01*
X71136533Y117474954D01*
X71219410Y117575940D01*
X71219411Y117575941D01*
X71301589Y117729687D01*
X71352195Y117896510D01*
X71365000Y118026523D01*
X71365000Y118026533D01*
X71369281Y118069999D01*
X71365000Y118113465D01*
X71365000Y140886535D01*
X71369281Y140930001D01*
X71365000Y140973467D01*
X71365000Y140973477D01*
X71352195Y141103490D01*
X71301589Y141270313D01*
X71219411Y141424059D01*
X71176390Y141476480D01*
X71136532Y141525047D01*
X71136530Y141525049D01*
X71108817Y141558817D01*
X71075049Y141586530D01*
X70343811Y142317768D01*
X70301383Y142531067D01*
X70215824Y142737624D01*
X70091612Y142923520D01*
X69933520Y143081612D01*
X69747624Y143205824D01*
X69541067Y143291383D01*
X69321788Y143335000D01*
X69098212Y143335000D01*
X68878933Y143291383D01*
X68672376Y143205824D01*
X68486480Y143081612D01*
X68328388Y142923520D01*
X68204176Y142737624D01*
X68118617Y142531067D01*
X68075000Y142311788D01*
X68075000Y142088212D01*
X68118617Y141868933D01*
X68204176Y141662376D01*
X68328388Y141476480D01*
X68486480Y141318388D01*
X68672376Y141194176D01*
X68878933Y141108617D01*
X69092232Y141066189D01*
X69595001Y140563420D01*
X69595000Y118436579D01*
X69092232Y117933811D01*
X68878933Y117891383D01*
X68672376Y117805824D01*
X68486480Y117681612D01*
X68328388Y117523520D01*
X68204176Y117337624D01*
X68118617Y117131067D01*
X68075000Y116911788D01*
X68075000Y116688212D01*
X68118617Y116468933D01*
X68204176Y116262376D01*
X68328388Y116076480D01*
X68486480Y115918388D01*
X68672376Y115794176D01*
X68878933Y115708617D01*
X69092232Y115666189D01*
X69595000Y115163421D01*
X69595001Y93036580D01*
X69092232Y92533811D01*
X68878933Y92491383D01*
X68672376Y92405824D01*
X68486480Y92281612D01*
X68328388Y92123520D01*
X68204176Y91937624D01*
X68118617Y91731067D01*
X68075000Y91511788D01*
X68075000Y91288212D01*
X68118617Y91068933D01*
X68204176Y90862376D01*
X68328388Y90676480D01*
X68486480Y90518388D01*
X68672376Y90394176D01*
X68878933Y90308617D01*
X69092232Y90266189D01*
X69595000Y89763421D01*
X69595001Y65096580D01*
X69092232Y64593811D01*
X68878933Y64551383D01*
X68672376Y64465824D01*
X68486480Y64341612D01*
X68328388Y64183520D01*
X68204176Y63997624D01*
X68118617Y63791067D01*
X68076190Y63577768D01*
X64398422Y59900000D01*
X61985885Y59900000D01*
X60757513Y61128371D01*
X60766543Y61131110D01*
X60876857Y61190074D01*
X60973549Y61269427D01*
X61078680Y61378903D01*
X61078680Y61603409D01*
X60495847Y62186242D01*
X60481705Y62172099D01*
X60302100Y62351704D01*
X60316242Y62365847D01*
X60675452Y62365847D01*
X61258285Y61783014D01*
X61482791Y61783014D01*
X61592267Y61888145D01*
X61671620Y61984837D01*
X61730584Y62095151D01*
X61766893Y62214849D01*
X61779154Y62339330D01*
X61766893Y62463812D01*
X61730584Y62583510D01*
X61671620Y62693824D01*
X61592267Y62790516D01*
X61456275Y62922163D01*
X61231768Y62922163D01*
X60675452Y62365847D01*
X60316242Y62365847D01*
X59733409Y62948680D01*
X59508903Y62948680D01*
X59399427Y62843549D01*
X59320074Y62746857D01*
X59261110Y62636543D01*
X59258371Y62627513D01*
X59240840Y62645044D01*
X59213123Y62678817D01*
X59078365Y62789411D01*
X58924619Y62871589D01*
X58757796Y62922195D01*
X58627783Y62935000D01*
X58627775Y62935000D01*
X58584306Y62939281D01*
X58540837Y62935000D01*
X58358450Y62935000D01*
X58177624Y63055824D01*
X57971067Y63141383D01*
X57751788Y63185000D01*
X57528212Y63185000D01*
X57308933Y63141383D01*
X57102376Y63055824D01*
X56916480Y62931612D01*
X56758388Y62773520D01*
X56634176Y62587624D01*
X56548617Y62381067D01*
X56505000Y62161788D01*
X40365999Y62161788D01*
X40365999Y63352791D01*
X59913014Y63352791D01*
X59913014Y63128285D01*
X60495847Y62545452D01*
X61052163Y63101768D01*
X61052163Y63326275D01*
X60920516Y63462267D01*
X60823824Y63541620D01*
X60713510Y63600584D01*
X60593812Y63636893D01*
X60469330Y63649154D01*
X60344849Y63636893D01*
X60225151Y63600584D01*
X60114837Y63541620D01*
X60018145Y63462267D01*
X59913014Y63352791D01*
X40365999Y63352791D01*
X40365999Y82113344D01*
X45438001Y77041342D01*
X45438000Y69467553D01*
X45434203Y69429000D01*
X45438000Y69390447D01*
X45438000Y69390440D01*
X45449359Y69275114D01*
X45494246Y69127141D01*
X45567138Y68990768D01*
X45665236Y68871236D01*
X45695191Y68846653D01*
X46047149Y68494695D01*
X46071736Y68464736D01*
X46191267Y68366638D01*
X46301908Y68307500D01*
X46327640Y68293746D01*
X46457558Y68254335D01*
X46503885Y68197885D01*
X46579484Y68135843D01*
X46581000Y68120447D01*
X46581000Y68120440D01*
X46592359Y68005114D01*
X46637246Y67857141D01*
X46710138Y67720768D01*
X46808236Y67601236D01*
X46838190Y67576653D01*
X48053658Y66361185D01*
X48078236Y66331236D01*
X48108184Y66306658D01*
X48108187Y66306655D01*
X48134574Y66285000D01*
X48197767Y66233138D01*
X48334140Y66160246D01*
X48447672Y66125806D01*
X48482112Y66115359D01*
X48496490Y66113943D01*
X48597439Y66104000D01*
X48597446Y66104000D01*
X48635999Y66100203D01*
X48674552Y66104000D01*
X57150043Y66104000D01*
X58118200Y65135843D01*
X58118200Y64999212D01*
X58161817Y64779933D01*
X58247376Y64573376D01*
X58371588Y64387480D01*
X58529680Y64229388D01*
X58715576Y64105176D01*
X58922133Y64019617D01*
X59141412Y63976000D01*
X59364988Y63976000D01*
X59584267Y64019617D01*
X59790824Y64105176D01*
X59976720Y64229388D01*
X60134812Y64387480D01*
X60259024Y64573376D01*
X60344583Y64779933D01*
X60388200Y64999212D01*
X60388200Y65222788D01*
X60344583Y65442067D01*
X60259024Y65648624D01*
X60165431Y65788695D01*
X60194687Y65832480D01*
X60217533Y65823017D01*
X60436812Y65779400D01*
X60660388Y65779400D01*
X60879667Y65823017D01*
X61086224Y65908576D01*
X61272120Y66032788D01*
X61430212Y66190880D01*
X61554424Y66376776D01*
X61639983Y66583333D01*
X61666783Y66718066D01*
X63122006Y65262842D01*
X63122006Y65126212D01*
X63165623Y64906933D01*
X63251182Y64700376D01*
X63375394Y64514480D01*
X63533486Y64356388D01*
X63719382Y64232176D01*
X63925939Y64146617D01*
X64145218Y64103000D01*
X64368794Y64103000D01*
X64588073Y64146617D01*
X64794630Y64232176D01*
X64980526Y64356388D01*
X65138618Y64514480D01*
X65262830Y64700376D01*
X65348389Y64906933D01*
X65392006Y65126212D01*
X65392006Y65349788D01*
X65348389Y65569067D01*
X65262830Y65775624D01*
X65138618Y65961520D01*
X64980526Y66119612D01*
X64794630Y66243824D01*
X64588073Y66329383D01*
X64368794Y66373000D01*
X64232164Y66373000D01*
X61791351Y68813812D01*
X61766770Y68843764D01*
X61647239Y68941862D01*
X61510866Y69014754D01*
X61362893Y69059641D01*
X61247567Y69071000D01*
X61247559Y69071000D01*
X61209006Y69074797D01*
X61170453Y69071000D01*
X59437653Y69071000D01*
X59455000Y69158212D01*
X59455000Y69381788D01*
X59411383Y69601067D01*
X59325824Y69807624D01*
X59201612Y69993520D01*
X59043520Y70151612D01*
X58898968Y70248199D01*
X59019222Y70284677D01*
X59167355Y70363856D01*
X59297195Y70470412D01*
X59659588Y70832805D01*
X59766144Y70962645D01*
X59845323Y71110778D01*
X59894081Y71271512D01*
X59910545Y71438670D01*
X59894081Y71605828D01*
X59845323Y71766562D01*
X59766144Y71914695D01*
X59659588Y72044535D01*
X59350229Y72353894D01*
X59220389Y72460450D01*
X59072256Y72539629D01*
X58911522Y72588387D01*
X58883641Y72591133D01*
X58875199Y72676845D01*
X58838890Y72796543D01*
X58779926Y72906857D01*
X58700573Y73003549D01*
X58591097Y73108680D01*
X58366591Y73108680D01*
X57783758Y72525847D01*
X57797901Y72511704D01*
X57618296Y72332099D01*
X57604153Y72346242D01*
X57021320Y71763409D01*
X57021320Y71538903D01*
X57126451Y71429427D01*
X57223143Y71350074D01*
X57333457Y71291110D01*
X57342487Y71288371D01*
X57235751Y71181635D01*
X57201984Y71153923D01*
X57174271Y71120155D01*
X57174268Y71120152D01*
X57100282Y71030000D01*
X57091390Y71019165D01*
X57009212Y70865419D01*
X56958605Y70698596D01*
X56945800Y70568583D01*
X56945800Y70568575D01*
X56941519Y70525106D01*
X56945800Y70481637D01*
X56945800Y69976357D01*
X54422827Y72499330D01*
X56320846Y72499330D01*
X56333107Y72374849D01*
X56369416Y72255151D01*
X56428380Y72144837D01*
X56507733Y72048145D01*
X56617209Y71943014D01*
X56841715Y71943014D01*
X57424548Y72525847D01*
X56868232Y73082163D01*
X56643725Y73082163D01*
X56507733Y72950516D01*
X56428380Y72853824D01*
X56369416Y72743510D01*
X56333107Y72623812D01*
X56320846Y72499330D01*
X54422827Y72499330D01*
X53435882Y73486275D01*
X57047837Y73486275D01*
X57047837Y73261768D01*
X57604153Y72705452D01*
X58186986Y73288285D01*
X58186986Y73512791D01*
X58081855Y73622267D01*
X57985163Y73701620D01*
X57874849Y73760584D01*
X57755151Y73796893D01*
X57630670Y73809154D01*
X57506188Y73796893D01*
X57386490Y73760584D01*
X57276176Y73701620D01*
X57179484Y73622267D01*
X57047837Y73486275D01*
X53435882Y73486275D01*
X53060597Y73861560D01*
X53187624Y73914176D01*
X53373520Y74038388D01*
X53531612Y74196480D01*
X53655824Y74382376D01*
X53741383Y74588933D01*
X53785000Y74808212D01*
X53785000Y75031788D01*
X53741383Y75251067D01*
X53655824Y75457624D01*
X53531612Y75643520D01*
X53373520Y75801612D01*
X53187624Y75925824D01*
X52981067Y76011383D01*
X52924600Y76022615D01*
X52924600Y76254414D01*
X53071355Y76332856D01*
X53201195Y76439412D01*
X53563588Y76801805D01*
X53670144Y76931645D01*
X53749323Y77079778D01*
X53798081Y77240512D01*
X53814545Y77407670D01*
X53798081Y77574828D01*
X53749323Y77735562D01*
X53670144Y77883695D01*
X53563588Y78013535D01*
X53254229Y78322894D01*
X53124389Y78429450D01*
X52976256Y78508629D01*
X52815522Y78557387D01*
X52787641Y78560133D01*
X52779199Y78645845D01*
X52742890Y78765543D01*
X52683926Y78875857D01*
X52604573Y78972549D01*
X52495097Y79077680D01*
X52270591Y79077680D01*
X51687758Y78494847D01*
X51701901Y78480704D01*
X51522296Y78301099D01*
X51508153Y78315242D01*
X50925320Y77732409D01*
X50925320Y77507903D01*
X51030451Y77398427D01*
X51127143Y77319074D01*
X51237457Y77260110D01*
X51276327Y77248319D01*
X51218012Y77139219D01*
X51167405Y76972396D01*
X51150319Y76798906D01*
X51154601Y76755428D01*
X51154600Y75767557D01*
X48453827Y78468330D01*
X50224846Y78468330D01*
X50237107Y78343849D01*
X50273416Y78224151D01*
X50332380Y78113837D01*
X50411733Y78017145D01*
X50521209Y77912014D01*
X50745715Y77912014D01*
X51328548Y78494847D01*
X50772232Y79051163D01*
X50547725Y79051163D01*
X50411733Y78919516D01*
X50332380Y78822824D01*
X50273416Y78712510D01*
X50237107Y78592812D01*
X50224846Y78468330D01*
X48453827Y78468330D01*
X47466882Y79455275D01*
X50951837Y79455275D01*
X50951837Y79230768D01*
X51508153Y78674452D01*
X52090986Y79257285D01*
X52090986Y79481791D01*
X51985855Y79591267D01*
X51889163Y79670620D01*
X51778849Y79729584D01*
X51659151Y79765893D01*
X51534670Y79778154D01*
X51410188Y79765893D01*
X51290490Y79729584D01*
X51180176Y79670620D01*
X51083484Y79591267D01*
X50951837Y79455275D01*
X47466882Y79455275D01*
X46376455Y80545702D01*
X46517624Y80604176D01*
X46703520Y80728388D01*
X46861612Y80886480D01*
X46985824Y81072376D01*
X47071383Y81278933D01*
X47115000Y81498212D01*
X47115000Y81721788D01*
X47071383Y81941067D01*
X46985824Y82147624D01*
X46861612Y82333520D01*
X46703520Y82491612D01*
X46587141Y82569374D01*
X46700222Y82603677D01*
X46848355Y82682856D01*
X46978195Y82789412D01*
X47340588Y83151805D01*
X47447144Y83281645D01*
X47526323Y83429778D01*
X47575081Y83590512D01*
X47582215Y83662943D01*
X49485050Y85565777D01*
X49518817Y85593489D01*
X49629411Y85728247D01*
X49711589Y85881993D01*
X49762195Y86048816D01*
X49775000Y86178829D01*
X49775000Y86178839D01*
X49779281Y86222305D01*
X49775000Y86265771D01*
X49775000Y117351550D01*
X49895824Y117532376D01*
X49981383Y117738933D01*
X50025000Y117958212D01*
X50025000Y118181788D01*
X49981383Y118401067D01*
X49895824Y118607624D01*
X49775000Y118788450D01*
X49775000Y123985961D01*
X49828943Y123963617D01*
X50048222Y123920000D01*
X50271798Y123920000D01*
X50491077Y123963617D01*
X50697634Y124049176D01*
X50883530Y124173388D01*
X51041622Y124331480D01*
X51165834Y124517376D01*
X51251393Y124723933D01*
X51295010Y124943212D01*
X51295010Y125079853D01*
X56485158Y130270000D01*
X56621788Y130270000D01*
X56841067Y130313617D01*
X57047624Y130399176D01*
X57233520Y130523388D01*
X57391612Y130681480D01*
X57515824Y130867376D01*
X57601383Y131073933D01*
X57645000Y131293212D01*
X57645000Y131516788D01*
X57601383Y131736067D01*
X57515824Y131942624D01*
X57391612Y132128520D01*
X57233520Y132286612D01*
X57047624Y132410824D01*
X56841067Y132496383D01*
X56621788Y132540000D01*
X56398212Y132540000D01*
X56178933Y132496383D01*
X55972376Y132410824D01*
X55786480Y132286612D01*
X55628388Y132128520D01*
X55504176Y131942624D01*
X55418617Y131736067D01*
X55375000Y131516788D01*
X55375000Y131380158D01*
X50184843Y126190000D01*
X50048222Y126190000D01*
X49828943Y126146383D01*
X49775000Y126124039D01*
X49775000Y141354548D01*
X49895824Y141535374D01*
X49981383Y141741931D01*
X50025000Y141961210D01*
X50025000Y142184786D01*
X49981383Y142404065D01*
X49895824Y142610622D01*
X49771612Y142796518D01*
X49613520Y142954610D01*
X49427624Y143078822D01*
X49221067Y143164381D01*
X49001788Y143207998D01*
X48778212Y143207998D01*
X48558933Y143164381D01*
X48352376Y143078822D01*
X48166480Y142954610D01*
X48008388Y142796518D01*
X47884176Y142610622D01*
X47798617Y142404065D01*
X47755000Y142184786D01*
X47755000Y141961210D01*
X47798617Y141741931D01*
X47884176Y141535374D01*
X48005001Y141354547D01*
X48005000Y118788450D01*
X47884176Y118607624D01*
X47798617Y118401067D01*
X47755000Y118181788D01*
X47755000Y117958212D01*
X47798617Y117738933D01*
X47884176Y117532376D01*
X48005001Y117351549D01*
X48005000Y86588885D01*
X46522629Y85106513D01*
X46519890Y85115543D01*
X46460926Y85225857D01*
X46381573Y85322549D01*
X46272097Y85427680D01*
X46047591Y85427680D01*
X45464758Y84844847D01*
X45478901Y84830704D01*
X45299296Y84651099D01*
X45285153Y84665242D01*
X44702320Y84082409D01*
X44702320Y83857903D01*
X44807451Y83748427D01*
X44904143Y83669074D01*
X45014457Y83610110D01*
X45023487Y83607371D01*
X44840551Y83424435D01*
X44806784Y83396723D01*
X44779071Y83362955D01*
X44779068Y83362952D01*
X44742365Y83318229D01*
X44696190Y83261965D01*
X44614012Y83108219D01*
X44563405Y82941396D01*
X44550600Y82811383D01*
X44550600Y82811375D01*
X44546319Y82767906D01*
X44550600Y82724437D01*
X44550600Y82371557D01*
X42182000Y84740157D01*
X42182000Y84818330D01*
X44001846Y84818330D01*
X44014107Y84693849D01*
X44050416Y84574151D01*
X44109380Y84463837D01*
X44188733Y84367145D01*
X44298209Y84262014D01*
X44522715Y84262014D01*
X45105548Y84844847D01*
X44549232Y85401163D01*
X44324725Y85401163D01*
X44188733Y85269516D01*
X44109380Y85172824D01*
X44050416Y85062510D01*
X44014107Y84942812D01*
X44001846Y84818330D01*
X42182000Y84818330D01*
X42182000Y85805275D01*
X44728837Y85805275D01*
X44728837Y85580768D01*
X45285153Y85024452D01*
X45867986Y85607285D01*
X45867986Y85831791D01*
X45762855Y85941267D01*
X45666163Y86020620D01*
X45555849Y86079584D01*
X45436151Y86115893D01*
X45311670Y86128154D01*
X45187188Y86115893D01*
X45067490Y86079584D01*
X44957176Y86020620D01*
X44860484Y85941267D01*
X44728837Y85805275D01*
X42182000Y85805275D01*
X42182000Y91383737D01*
X42432811Y91634548D01*
X42462764Y91659130D01*
X42560862Y91778661D01*
X42633754Y91915034D01*
X42678641Y92063007D01*
X42681864Y92095732D01*
X42786612Y92200480D01*
X42910824Y92386376D01*
X42996383Y92592933D01*
X43040000Y92812212D01*
X43040000Y93035788D01*
X43017682Y93147987D01*
X43243868Y93147987D01*
X43340480Y93051375D01*
X43526376Y92927163D01*
X43732933Y92841604D01*
X43952212Y92797987D01*
X44175788Y92797987D01*
X44395067Y92841604D01*
X44601624Y92927163D01*
X44787520Y93051375D01*
X44945612Y93209467D01*
X45069824Y93395363D01*
X45155383Y93601920D01*
X45199000Y93821199D01*
X45199000Y94044775D01*
X45155383Y94264054D01*
X45069824Y94470611D01*
X44959990Y94634989D01*
X45069824Y94799368D01*
X45155383Y95005925D01*
X45199000Y95225204D01*
X45199000Y95448780D01*
X45155383Y95668059D01*
X45069824Y95874616D01*
X44945612Y96060512D01*
X44907128Y96098996D01*
X44945612Y96137480D01*
X45069824Y96323376D01*
X45155383Y96529933D01*
X45199000Y96749212D01*
X45199000Y96972788D01*
X45155383Y97192067D01*
X45069824Y97398624D01*
X44945612Y97584520D01*
X44787520Y97742612D01*
X44601624Y97866824D01*
X44395067Y97952383D01*
X44175788Y97996000D01*
X43952212Y97996000D01*
X43732933Y97952383D01*
X43526376Y97866824D01*
X43340480Y97742612D01*
X43243868Y97646000D01*
X41689556Y97646000D01*
X41651000Y97649797D01*
X41612444Y97646000D01*
X41612439Y97646000D01*
X41572026Y97642020D01*
X41497113Y97634642D01*
X41349140Y97589754D01*
X41212767Y97516862D01*
X41152559Y97467450D01*
X41123187Y97443345D01*
X41123184Y97443342D01*
X41093236Y97418764D01*
X41068658Y97388816D01*
X36043185Y92363342D01*
X36013237Y92338764D01*
X35988659Y92308816D01*
X35988655Y92308812D01*
X35966333Y92281612D01*
X35915139Y92219233D01*
X35893278Y92178333D01*
X35842246Y92082859D01*
X35797359Y91934886D01*
X35782203Y91781000D01*
X35786001Y91742437D01*
X35786000Y90188136D01*
X35689388Y90091524D01*
X35638067Y90014716D01*
X35548195Y90104588D01*
X35418355Y90211144D01*
X35270222Y90290323D01*
X35109488Y90339081D01*
X34942330Y90355545D01*
X34775172Y90339081D01*
X34614438Y90290323D01*
X34466305Y90211144D01*
X34336465Y90104588D01*
X34027106Y89795229D01*
X33920550Y89665389D01*
X33841371Y89517256D01*
X33792613Y89356522D01*
X33780855Y89237145D01*
X33661478Y89225387D01*
X33500744Y89176629D01*
X33352611Y89097450D01*
X33222771Y88990894D01*
X32913412Y88681535D01*
X32806856Y88551695D01*
X32727677Y88403562D01*
X32678919Y88242828D01*
X32662455Y88075670D01*
X32678919Y87908512D01*
X32727677Y87747778D01*
X32806856Y87599645D01*
X32913412Y87469805D01*
X33275805Y87107412D01*
X33405645Y87000856D01*
X33553778Y86921677D01*
X33714512Y86872919D01*
X33786519Y86865827D01*
X33812489Y86834183D01*
X33846260Y86806468D01*
X33947247Y86723589D01*
X34100992Y86641411D01*
X34161365Y86623097D01*
X34267816Y86590805D01*
X34397829Y86578000D01*
X34397837Y86578000D01*
X34441306Y86573719D01*
X34484775Y86578000D01*
X35050320Y86578000D01*
X35050320Y86398591D01*
X35633153Y85815758D01*
X35647296Y85829900D01*
X35826901Y85650295D01*
X35812758Y85636153D01*
X36395591Y85053320D01*
X36620097Y85053320D01*
X36729573Y85158451D01*
X36808926Y85255143D01*
X36863616Y85357460D01*
X36864955Y85356361D01*
X36936360Y85284956D01*
X36964077Y85251183D01*
X37098835Y85140589D01*
X37252581Y85058411D01*
X37419404Y85007805D01*
X37549417Y84995000D01*
X37549427Y84995000D01*
X37587104Y84991289D01*
X37762376Y84874176D01*
X37896473Y84818631D01*
X35484298Y82406456D01*
X35425824Y82547624D01*
X35301612Y82733520D01*
X35143520Y82891612D01*
X34957624Y83015824D01*
X34751067Y83101383D01*
X34531788Y83145000D01*
X34308212Y83145000D01*
X34088933Y83101383D01*
X33882376Y83015824D01*
X33815252Y82970973D01*
X33810323Y82987222D01*
X33731144Y83135355D01*
X33624588Y83265195D01*
X33262195Y83627588D01*
X33132355Y83734144D01*
X32984222Y83813323D01*
X32823488Y83862081D01*
X32656330Y83878545D01*
X32489172Y83862081D01*
X32328438Y83813323D01*
X32180305Y83734144D01*
X32050465Y83627588D01*
X31741106Y83318229D01*
X31634550Y83188389D01*
X31555371Y83040256D01*
X31506613Y82879522D01*
X31503867Y82851641D01*
X31418155Y82843199D01*
X31298457Y82806890D01*
X31188143Y82747926D01*
X31091451Y82668573D01*
X30986320Y82559097D01*
X30986320Y82334591D01*
X31569153Y81751758D01*
X31583296Y81765900D01*
X31762901Y81586295D01*
X31748758Y81572153D01*
X32331591Y80989320D01*
X32556097Y80989320D01*
X32665573Y81094451D01*
X32744926Y81191143D01*
X32803890Y81301457D01*
X32808501Y81316657D01*
X32864635Y81270589D01*
X33018381Y81188411D01*
X33134597Y81153157D01*
X33185203Y81137805D01*
X33200000Y81136348D01*
X33315217Y81125000D01*
X33315225Y81125000D01*
X33358694Y81120719D01*
X33402163Y81125000D01*
X33701550Y81125000D01*
X33882376Y81004176D01*
X34023544Y80945702D01*
X31561369Y78483527D01*
X31505824Y78617624D01*
X31381612Y78803520D01*
X31223520Y78961612D01*
X31037624Y79085824D01*
X30831067Y79171383D01*
X30611788Y79215000D01*
X30388212Y79215000D01*
X30168933Y79171383D01*
X30020718Y79109990D01*
X30000323Y79177222D01*
X29921144Y79325355D01*
X29814588Y79455195D01*
X29452195Y79817588D01*
X29322355Y79924144D01*
X29174222Y80003323D01*
X29013488Y80052081D01*
X28846330Y80068545D01*
X28679172Y80052081D01*
X28518438Y80003323D01*
X28370305Y79924144D01*
X28240465Y79817588D01*
X27931106Y79508229D01*
X27824550Y79378389D01*
X27745371Y79230256D01*
X27696613Y79069522D01*
X27693867Y79041641D01*
X27608155Y79033199D01*
X27488457Y78996890D01*
X27378143Y78937926D01*
X27281451Y78858573D01*
X27176320Y78749097D01*
X27176320Y78524591D01*
X27759153Y77941758D01*
X27773296Y77955900D01*
X27952901Y77776295D01*
X27938758Y77762153D01*
X28521591Y77179320D01*
X28746097Y77179320D01*
X28855573Y77284451D01*
X28934926Y77381143D01*
X28993890Y77491457D01*
X28996629Y77500486D01*
X29012164Y77484951D01*
X29039877Y77451183D01*
X29073645Y77423470D01*
X29073647Y77423468D01*
X29174635Y77340589D01*
X29328380Y77258411D01*
X29495204Y77207805D01*
X29625217Y77195000D01*
X29625225Y77195000D01*
X29668694Y77190719D01*
X29712163Y77195000D01*
X29781550Y77195000D01*
X29962376Y77074176D01*
X30096473Y77018631D01*
X28011369Y74933527D01*
X27955824Y75067624D01*
X27831612Y75253520D01*
X27673520Y75411612D01*
X27487624Y75535824D01*
X27281067Y75621383D01*
X27061788Y75665000D01*
X26838212Y75665000D01*
X26618933Y75621383D01*
X26463770Y75557112D01*
X26444323Y75621222D01*
X26365144Y75769355D01*
X26258588Y75899195D01*
X25896195Y76261588D01*
X25766355Y76368144D01*
X25618222Y76447323D01*
X25457488Y76496081D01*
X25290330Y76512545D01*
X25123172Y76496081D01*
X24962438Y76447323D01*
X24814305Y76368144D01*
X24684465Y76261588D01*
X24375106Y75952229D01*
X24268550Y75822389D01*
X24189371Y75674256D01*
X24140613Y75513522D01*
X24137867Y75485641D01*
X24052155Y75477199D01*
X23932457Y75440890D01*
X23822143Y75381926D01*
X23725451Y75302573D01*
X23620320Y75193097D01*
X23620320Y74968591D01*
X24203153Y74385758D01*
X24217296Y74399900D01*
X24396901Y74220295D01*
X24382758Y74206153D01*
X24965591Y73623320D01*
X25190097Y73623320D01*
X25299573Y73728451D01*
X25378926Y73825143D01*
X25437890Y73935457D01*
X25440629Y73944486D01*
X25450164Y73934951D01*
X25477877Y73901183D01*
X25511645Y73873470D01*
X25511647Y73873468D01*
X25528337Y73859771D01*
X25612635Y73790589D01*
X25766381Y73708411D01*
X25933204Y73657805D01*
X26063217Y73645000D01*
X26063227Y73645000D01*
X26106693Y73640719D01*
X26150159Y73645000D01*
X26231550Y73645000D01*
X26412376Y73524176D01*
X26546474Y73468631D01*
X24497227Y71419384D01*
X24435824Y71567624D01*
X24311612Y71753520D01*
X24153520Y71911612D01*
X23967624Y72035824D01*
X23761067Y72121383D01*
X23541788Y72165000D01*
X23318212Y72165000D01*
X23098933Y72121383D01*
X22930922Y72051790D01*
X22888323Y72192222D01*
X22809144Y72340355D01*
X22702588Y72470195D01*
X22340195Y72832588D01*
X22210355Y72939144D01*
X22062222Y73018323D01*
X21901488Y73067081D01*
X21734330Y73083545D01*
X21567172Y73067081D01*
X21406438Y73018323D01*
X21258305Y72939144D01*
X21128465Y72832588D01*
X20819106Y72523229D01*
X20712550Y72393389D01*
X20633371Y72245256D01*
X20584613Y72084522D01*
X20581867Y72056641D01*
X20496155Y72048199D01*
X20376457Y72011890D01*
X20266143Y71952926D01*
X20169451Y71873573D01*
X20064320Y71764097D01*
X20064320Y71539591D01*
X20647153Y70956758D01*
X20661296Y70970900D01*
X20840901Y70791295D01*
X20826758Y70777153D01*
X21409591Y70194320D01*
X21634097Y70194320D01*
X21743573Y70299451D01*
X21822926Y70396143D01*
X21881890Y70506457D01*
X21884629Y70515486D01*
X21965164Y70434951D01*
X21992877Y70401183D01*
X22026645Y70373470D01*
X22026647Y70373468D01*
X22127635Y70290589D01*
X22281380Y70208411D01*
X22448204Y70157805D01*
X22578217Y70145000D01*
X22578225Y70145000D01*
X22621694Y70140719D01*
X22665163Y70145000D01*
X22711550Y70145000D01*
X22892376Y70024176D01*
X23040616Y69962773D01*
X21640843Y68563000D01*
X21402157Y68563000D01*
X20414991Y69550166D01*
X20429490Y69542416D01*
X20549188Y69506107D01*
X20673670Y69493846D01*
X20798151Y69506107D01*
X20917849Y69542416D01*
X21028163Y69601380D01*
X21124855Y69680733D01*
X21229986Y69790209D01*
X21229986Y70014715D01*
X20647153Y70597548D01*
X20633011Y70583405D01*
X20453406Y70763010D01*
X20467548Y70777153D01*
X19884715Y71359986D01*
X19660209Y71359986D01*
X19550733Y71254855D01*
X19471380Y71158163D01*
X19412416Y71047849D01*
X19376107Y70928151D01*
X19363846Y70803670D01*
X19376107Y70679188D01*
X19412416Y70559490D01*
X19471380Y70449176D01*
X19550733Y70352484D01*
X19645157Y70261077D01*
X19600860Y70284754D01*
X19452887Y70329641D01*
X19337561Y70341000D01*
X19337553Y70341000D01*
X19299000Y70344797D01*
X19260447Y70341000D01*
X17833140Y70341000D01*
X17736528Y70437612D01*
X17550632Y70561824D01*
X17344075Y70647383D01*
X17124796Y70691000D01*
X16901220Y70691000D01*
X16681941Y70647383D01*
X16475384Y70561824D01*
X16289488Y70437612D01*
X16131396Y70279520D01*
X16007184Y70093624D01*
X15921625Y69887067D01*
X15878008Y69667788D01*
X15878008Y69444212D01*
X15921625Y69224933D01*
X16007184Y69018376D01*
X16131396Y68832480D01*
X16289488Y68674388D01*
X16475384Y68550176D01*
X16681941Y68464617D01*
X16901220Y68421000D01*
X17124796Y68421000D01*
X17203215Y68436598D01*
X17190858Y68432850D01*
X17042725Y68353671D01*
X16912885Y68247115D01*
X16806329Y68117275D01*
X16727150Y67969142D01*
X16678392Y67808408D01*
X16661928Y67641250D01*
X16661928Y67203750D01*
X16678392Y67036592D01*
X16727150Y66875858D01*
X16806329Y66727725D01*
X16824100Y66706070D01*
X16769463Y66639494D01*
X16710498Y66529180D01*
X16674188Y66409482D01*
X16661928Y66285000D01*
X16665000Y66133250D01*
X16823750Y65974500D01*
X17648000Y65974500D01*
X17648000Y65994500D01*
X17902000Y65994500D01*
X17902000Y65974500D01*
X18726250Y65974500D01*
X18885000Y66133250D01*
X18888072Y66285000D01*
X18875812Y66409482D01*
X18839502Y66529180D01*
X18835055Y66537500D01*
X18922009Y66537500D01*
X18922008Y65096587D01*
X18170422Y64345000D01*
X11508450Y64345000D01*
X11327624Y64465824D01*
X11121067Y64551383D01*
X10907769Y64593810D01*
X10405000Y65096578D01*
X10405000Y65410000D01*
X16661928Y65410000D01*
X16674188Y65285518D01*
X16710498Y65165820D01*
X16769463Y65055506D01*
X16848815Y64958815D01*
X16945506Y64879463D01*
X17055820Y64820498D01*
X17175518Y64784188D01*
X17300000Y64771928D01*
X17489250Y64775000D01*
X17648000Y64933750D01*
X17648000Y65720500D01*
X17902000Y65720500D01*
X17902000Y64933750D01*
X18060750Y64775000D01*
X18250000Y64771928D01*
X18374482Y64784188D01*
X18494180Y64820498D01*
X18604494Y64879463D01*
X18701185Y64958815D01*
X18780537Y65055506D01*
X18839502Y65165820D01*
X18875812Y65285518D01*
X18888072Y65410000D01*
X18885000Y65561750D01*
X18726250Y65720500D01*
X17902000Y65720500D01*
X17648000Y65720500D01*
X16823750Y65720500D01*
X16665000Y65561750D01*
X16661928Y65410000D01*
X10405000Y65410000D01*
X10405000Y73470232D01*
X23646837Y73470232D01*
X23646837Y73245725D01*
X23778484Y73109733D01*
X23875176Y73030380D01*
X23985490Y72971416D01*
X24105188Y72935107D01*
X24229670Y72922846D01*
X24354151Y72935107D01*
X24473849Y72971416D01*
X24584163Y73030380D01*
X24680855Y73109733D01*
X24785986Y73219209D01*
X24785986Y73443715D01*
X24203153Y74026548D01*
X23646837Y73470232D01*
X10405000Y73470232D01*
X10405000Y74232670D01*
X22919846Y74232670D01*
X22932107Y74108188D01*
X22968416Y73988490D01*
X23027380Y73878176D01*
X23106733Y73781484D01*
X23242725Y73649837D01*
X23467232Y73649837D01*
X24023548Y74206153D01*
X23440715Y74788986D01*
X23216209Y74788986D01*
X23106733Y74683855D01*
X23027380Y74587163D01*
X22968416Y74476849D01*
X22932107Y74357151D01*
X22919846Y74232670D01*
X10405000Y74232670D01*
X10405000Y77026232D01*
X27202837Y77026232D01*
X27202837Y76801725D01*
X27334484Y76665733D01*
X27431176Y76586380D01*
X27541490Y76527416D01*
X27661188Y76491107D01*
X27785670Y76478846D01*
X27910151Y76491107D01*
X28029849Y76527416D01*
X28140163Y76586380D01*
X28236855Y76665733D01*
X28341986Y76775209D01*
X28341986Y76999715D01*
X27759153Y77582548D01*
X27202837Y77026232D01*
X10405000Y77026232D01*
X10405000Y77788670D01*
X26475846Y77788670D01*
X26488107Y77664188D01*
X26524416Y77544490D01*
X26583380Y77434176D01*
X26662733Y77337484D01*
X26798725Y77205837D01*
X27023232Y77205837D01*
X27579548Y77762153D01*
X26996715Y78344986D01*
X26772209Y78344986D01*
X26662733Y78239855D01*
X26583380Y78143163D01*
X26524416Y78032849D01*
X26488107Y77913151D01*
X26475846Y77788670D01*
X10405000Y77788670D01*
X10405000Y80836232D01*
X31012837Y80836232D01*
X31012837Y80611725D01*
X31144484Y80475733D01*
X31241176Y80396380D01*
X31351490Y80337416D01*
X31471188Y80301107D01*
X31595670Y80288846D01*
X31720151Y80301107D01*
X31839849Y80337416D01*
X31950163Y80396380D01*
X32046855Y80475733D01*
X32151986Y80585209D01*
X32151986Y80809715D01*
X31569153Y81392548D01*
X31012837Y80836232D01*
X10405000Y80836232D01*
X10405000Y81598670D01*
X30285846Y81598670D01*
X30298107Y81474188D01*
X30334416Y81354490D01*
X30393380Y81244176D01*
X30472733Y81147484D01*
X30608725Y81015837D01*
X30833232Y81015837D01*
X31389548Y81572153D01*
X30806715Y82154986D01*
X30582209Y82154986D01*
X30472733Y82049855D01*
X30393380Y81953163D01*
X30334416Y81842849D01*
X30298107Y81723151D01*
X30285846Y81598670D01*
X10405000Y81598670D01*
X10405000Y84900232D01*
X35076837Y84900232D01*
X35076837Y84675725D01*
X35208484Y84539733D01*
X35305176Y84460380D01*
X35415490Y84401416D01*
X35535188Y84365107D01*
X35659670Y84352846D01*
X35784151Y84365107D01*
X35903849Y84401416D01*
X36014163Y84460380D01*
X36110855Y84539733D01*
X36215986Y84649209D01*
X36215986Y84873715D01*
X35633153Y85456548D01*
X35076837Y84900232D01*
X10405000Y84900232D01*
X10405000Y85662670D01*
X34349846Y85662670D01*
X34362107Y85538188D01*
X34398416Y85418490D01*
X34457380Y85308176D01*
X34536733Y85211484D01*
X34672725Y85079837D01*
X34897232Y85079837D01*
X35453548Y85636153D01*
X34870715Y86218986D01*
X34646209Y86218986D01*
X34536733Y86113855D01*
X34457380Y86017163D01*
X34398416Y85906849D01*
X34362107Y85787151D01*
X34349846Y85662670D01*
X10405000Y85662670D01*
X10405000Y89763422D01*
X10907768Y90266190D01*
X11121067Y90308617D01*
X11327624Y90394176D01*
X11513520Y90518388D01*
X11671612Y90676480D01*
X11795824Y90862376D01*
X11881383Y91068933D01*
X11925000Y91288212D01*
X11925000Y91511788D01*
X11881383Y91731067D01*
X11795824Y91937624D01*
X11671612Y92123520D01*
X11513520Y92281612D01*
X11327624Y92405824D01*
X11121067Y92491383D01*
X10907769Y92533810D01*
X10405000Y93036578D01*
X10405000Y115163422D01*
X10907768Y115666190D01*
X11121067Y115708617D01*
X11327624Y115794176D01*
X11513520Y115918388D01*
X11671612Y116076480D01*
X11795824Y116262376D01*
X11881383Y116468933D01*
X11925000Y116688212D01*
X11925000Y116911788D01*
X11881383Y117131067D01*
X11795824Y117337624D01*
X11671612Y117523520D01*
X11513520Y117681612D01*
X11327624Y117805824D01*
X11121067Y117891383D01*
X10907769Y117933810D01*
X10405000Y118436578D01*
X10405000Y140563422D01*
X10907768Y141066190D01*
X11121067Y141108617D01*
X11327624Y141194176D01*
X11513520Y141318388D01*
X11671612Y141476480D01*
X11795824Y141662376D01*
X11881383Y141868933D01*
X11925000Y142088212D01*
X11925000Y142311788D01*
X11881383Y142531067D01*
X11795824Y142737624D01*
X11671612Y142923520D01*
X11513520Y143081612D01*
X11327624Y143205824D01*
X11121067Y143291383D01*
X10901788Y143335000D01*
X10678212Y143335000D01*
X10458933Y143291383D01*
X10252376Y143205824D01*
X10066480Y143081612D01*
X9908388Y142923520D01*
X9784176Y142737624D01*
X9698617Y142531067D01*
X9656190Y142317768D01*
X8924956Y141586534D01*
X8891183Y141558817D01*
X8780589Y141424058D01*
X8698411Y141270312D01*
X8675315Y141194176D01*
X8647806Y141103491D01*
X8647805Y141103489D01*
X8635000Y140973476D01*
X8635000Y140973469D01*
X8630719Y140930000D01*
X660000Y140930000D01*
X660000Y144340000D01*
X79340000Y144340000D01*
X79340001Y660000D01*
G37*
X79340001Y660000D02*
X660000Y660000D01*
X660000Y140930000D01*
X8630719Y140930000D01*
X8635000Y140886531D01*
X8635001Y118113479D01*
X8630719Y118070000D01*
X8647805Y117896510D01*
X8698412Y117729687D01*
X8780590Y117575941D01*
X8863468Y117474954D01*
X8863469Y117474953D01*
X8891184Y117441183D01*
X8924951Y117413471D01*
X9538421Y116800000D01*
X8924956Y116186534D01*
X8891183Y116158817D01*
X8780589Y116024058D01*
X8698411Y115870312D01*
X8675315Y115794176D01*
X8647806Y115703491D01*
X8647805Y115703489D01*
X8635000Y115573476D01*
X8635000Y115573469D01*
X8630719Y115530000D01*
X8635000Y115486531D01*
X8635001Y92713479D01*
X8630719Y92670000D01*
X8647805Y92496510D01*
X8698412Y92329687D01*
X8780590Y92175941D01*
X8863468Y92074954D01*
X8863469Y92074953D01*
X8891184Y92041183D01*
X8924951Y92013471D01*
X9538421Y91400000D01*
X8924956Y90786534D01*
X8891183Y90758817D01*
X8780589Y90624058D01*
X8698411Y90470312D01*
X8663596Y90355545D01*
X8647806Y90303491D01*
X8647805Y90303489D01*
X8635000Y90173476D01*
X8635000Y90173469D01*
X8630719Y90130000D01*
X8635000Y90086531D01*
X8635001Y64773479D01*
X8630719Y64730000D01*
X8647805Y64556510D01*
X8698412Y64389687D01*
X8780590Y64235941D01*
X8863468Y64134954D01*
X8863469Y64134953D01*
X8891184Y64101183D01*
X8924951Y64073471D01*
X9538421Y63460000D01*
X8924956Y62846534D01*
X8891183Y62818817D01*
X8780589Y62684058D01*
X8698411Y62530312D01*
X8694326Y62516845D01*
X8647806Y62363491D01*
X8647805Y62363489D01*
X8635000Y62233476D01*
X8635000Y62233469D01*
X8630719Y62190000D01*
X8635000Y62146531D01*
X8635001Y39335479D01*
X8630719Y39292000D01*
X8647805Y39118510D01*
X8698412Y38951687D01*
X8780590Y38797941D01*
X8863468Y38696954D01*
X8863471Y38696951D01*
X8891184Y38663183D01*
X8924951Y38635471D01*
X9500421Y38060000D01*
X8924956Y37484534D01*
X8891183Y37456817D01*
X8780589Y37322058D01*
X8698411Y37168312D01*
X8647805Y37001489D01*
X8635000Y36871476D01*
X8635000Y36871469D01*
X8630719Y36828000D01*
X8635000Y36784531D01*
X8635001Y13973479D01*
X8630719Y13930000D01*
X8647805Y13756510D01*
X8698412Y13589687D01*
X8780590Y13435941D01*
X8863468Y13334954D01*
X8863469Y13334953D01*
X8891184Y13301183D01*
X8924951Y13273471D01*
X9656190Y12542231D01*
X9698617Y12328933D01*
X9784176Y12122376D01*
X9908388Y11936480D01*
X10066480Y11778388D01*
X10252376Y11654176D01*
X10458933Y11568617D01*
X10678212Y11525000D01*
X10901788Y11525000D01*
X11121067Y11568617D01*
X11327624Y11654176D01*
X11513520Y11778388D01*
X11671612Y11936480D01*
X11795824Y12122376D01*
X11881383Y12328933D01*
X11925000Y12548212D01*
X11925000Y12771788D01*
X11881383Y12991067D01*
X11795824Y13197624D01*
X11671612Y13383520D01*
X11513520Y13541612D01*
X11327624Y13665824D01*
X11121067Y13751383D01*
X10907769Y13793810D01*
X10405000Y14296578D01*
X10405000Y36461422D01*
X10869768Y36926190D01*
X11083067Y36968617D01*
X11289624Y37054176D01*
X11475520Y37178388D01*
X11633612Y37336480D01*
X11757824Y37522376D01*
X11843383Y37728933D01*
X11887000Y37948212D01*
X11887000Y38171788D01*
X11843383Y38391067D01*
X11757824Y38597624D01*
X11633612Y38783520D01*
X11475520Y38941612D01*
X11289624Y39065824D01*
X11083067Y39151383D01*
X10869769Y39193810D01*
X10405000Y39658578D01*
X10405000Y47569788D01*
X22101000Y47569788D01*
X22101000Y47346212D01*
X22144617Y47126933D01*
X22230176Y46920376D01*
X22354388Y46734480D01*
X22512480Y46576388D01*
X22698376Y46452176D01*
X22904933Y46366617D01*
X23124212Y46323000D01*
X23347788Y46323000D01*
X23567067Y46366617D01*
X23773624Y46452176D01*
X23959520Y46576388D01*
X24117612Y46734480D01*
X24241824Y46920376D01*
X24327383Y47126933D01*
X24371000Y47346212D01*
X24371000Y47506409D01*
X33145320Y47506409D01*
X33145320Y47281903D01*
X33250451Y47172427D01*
X33347143Y47093074D01*
X33457457Y47034110D01*
X33577155Y46997801D01*
X33662867Y46989359D01*
X33665613Y46961478D01*
X33714371Y46800744D01*
X33793550Y46652611D01*
X33900106Y46522771D01*
X34209465Y46213412D01*
X34339305Y46106856D01*
X34487438Y46027677D01*
X34648172Y45978919D01*
X34815330Y45962455D01*
X34982488Y45978919D01*
X35143222Y46027677D01*
X35291355Y46106856D01*
X35421195Y46213412D01*
X35783588Y46575805D01*
X35890144Y46705645D01*
X35966740Y46848946D01*
X35968388Y46846480D01*
X36126480Y46688388D01*
X36312376Y46564176D01*
X36518933Y46478617D01*
X36738212Y46435000D01*
X36961788Y46435000D01*
X37181067Y46478617D01*
X37387624Y46564176D01*
X37573520Y46688388D01*
X37731612Y46846480D01*
X37855824Y47032376D01*
X37941383Y47238933D01*
X37985000Y47458212D01*
X37985000Y47681788D01*
X37941383Y47901067D01*
X37855824Y48107624D01*
X37731612Y48293520D01*
X37573520Y48451612D01*
X37387624Y48575824D01*
X37181067Y48661383D01*
X36971146Y48703139D01*
X36955817Y48721817D01*
X36821059Y48832411D01*
X36667313Y48914589D01*
X36500490Y48965195D01*
X36370477Y48978000D01*
X36370469Y48978000D01*
X36327000Y48982281D01*
X36283531Y48978000D01*
X35823163Y48978000D01*
X35779694Y48982281D01*
X35736225Y48978000D01*
X35736217Y48978000D01*
X35621000Y48966652D01*
X35606203Y48965195D01*
X35555597Y48949843D01*
X35439381Y48914589D01*
X35285635Y48832411D01*
X35257451Y48809281D01*
X35184647Y48749532D01*
X35184645Y48749530D01*
X35150877Y48721817D01*
X35123164Y48688049D01*
X34965629Y48530514D01*
X34962890Y48539543D01*
X34903926Y48649857D01*
X34824573Y48746549D01*
X34715097Y48851680D01*
X34490591Y48851680D01*
X33907758Y48268847D01*
X33921901Y48254704D01*
X33742296Y48075099D01*
X33728153Y48089242D01*
X33145320Y47506409D01*
X24371000Y47506409D01*
X24371000Y47569788D01*
X24327383Y47789067D01*
X24241824Y47995624D01*
X24121000Y48176450D01*
X24121000Y48242330D01*
X32444846Y48242330D01*
X32457107Y48117849D01*
X32493416Y47998151D01*
X32552380Y47887837D01*
X32631733Y47791145D01*
X32741209Y47686014D01*
X32965715Y47686014D01*
X33548548Y48268847D01*
X32992232Y48825163D01*
X32767725Y48825163D01*
X32631733Y48693516D01*
X32552380Y48596824D01*
X32493416Y48486510D01*
X32457107Y48366812D01*
X32444846Y48242330D01*
X24121000Y48242330D01*
X24121000Y49229275D01*
X33171837Y49229275D01*
X33171837Y49004768D01*
X33728153Y48448452D01*
X34310986Y49031285D01*
X34310986Y49255791D01*
X34205855Y49365267D01*
X34109163Y49444620D01*
X33998849Y49503584D01*
X33879151Y49539893D01*
X33754670Y49552154D01*
X33630188Y49539893D01*
X33510490Y49503584D01*
X33400176Y49444620D01*
X33303484Y49365267D01*
X33171837Y49229275D01*
X24121000Y49229275D01*
X24121000Y50168728D01*
X26284681Y52332409D01*
X28319320Y52332409D01*
X28319320Y52107903D01*
X28424451Y51998427D01*
X28521143Y51919074D01*
X28631457Y51860110D01*
X28751155Y51823801D01*
X28836867Y51815359D01*
X28839613Y51787478D01*
X28888371Y51626744D01*
X28967550Y51478611D01*
X29074106Y51348771D01*
X29383465Y51039412D01*
X29513305Y50932856D01*
X29661438Y50853677D01*
X29822172Y50804919D01*
X29989330Y50788455D01*
X30156488Y50804919D01*
X30317222Y50853677D01*
X30465355Y50932856D01*
X30595195Y51039412D01*
X30957588Y51401805D01*
X31064144Y51531645D01*
X31143323Y51679778D01*
X31192081Y51840512D01*
X31206283Y51984705D01*
X31307768Y52086190D01*
X31521067Y52128617D01*
X31727624Y52214176D01*
X31913520Y52338388D01*
X32071612Y52496480D01*
X32195824Y52682376D01*
X32281383Y52888933D01*
X32325000Y53108212D01*
X32325000Y53331788D01*
X32281383Y53551067D01*
X32195824Y53757624D01*
X32071612Y53943520D01*
X31913520Y54101612D01*
X31727624Y54225824D01*
X31521067Y54311383D01*
X31301788Y54355000D01*
X31078212Y54355000D01*
X30858933Y54311383D01*
X30652376Y54225824D01*
X30466480Y54101612D01*
X30308388Y53943520D01*
X30184176Y53757624D01*
X30098617Y53551067D01*
X30082103Y53468043D01*
X30077926Y53475857D01*
X29998573Y53572549D01*
X29889097Y53677680D01*
X29664591Y53677680D01*
X29081758Y53094847D01*
X29095901Y53080704D01*
X28916296Y52901099D01*
X28902153Y52915242D01*
X28319320Y52332409D01*
X26284681Y52332409D01*
X27020602Y53068330D01*
X27618846Y53068330D01*
X27631107Y52943849D01*
X27667416Y52824151D01*
X27726380Y52713837D01*
X27805733Y52617145D01*
X27915209Y52512014D01*
X28139715Y52512014D01*
X28722548Y53094847D01*
X28166232Y53651163D01*
X27941725Y53651163D01*
X27805733Y53519516D01*
X27726380Y53422824D01*
X27667416Y53312510D01*
X27631107Y53192812D01*
X27618846Y53068330D01*
X27020602Y53068330D01*
X27417058Y53464785D01*
X27489488Y53471919D01*
X27650222Y53520677D01*
X27798355Y53599856D01*
X27928195Y53706412D01*
X28277058Y54055275D01*
X28345837Y54055275D01*
X28345837Y53830768D01*
X28902153Y53274452D01*
X29484986Y53857285D01*
X29484986Y54081791D01*
X29379855Y54191267D01*
X29283163Y54270620D01*
X29172849Y54329584D01*
X29053151Y54365893D01*
X28928670Y54378154D01*
X28804188Y54365893D01*
X28684490Y54329584D01*
X28574176Y54270620D01*
X28477484Y54191267D01*
X28345837Y54055275D01*
X28277058Y54055275D01*
X28290588Y54068805D01*
X28397144Y54198645D01*
X28471183Y54337162D01*
X28539913Y54358011D01*
X28693659Y54440189D01*
X28828417Y54550783D01*
X28833846Y54557399D01*
X29041067Y54598617D01*
X29247624Y54684176D01*
X29433520Y54808388D01*
X29591612Y54966480D01*
X29715824Y55152376D01*
X29801383Y55358933D01*
X29845000Y55578212D01*
X29845000Y55801788D01*
X29801383Y56021067D01*
X29715824Y56227624D01*
X29591612Y56413520D01*
X29433520Y56571612D01*
X29247624Y56695824D01*
X29041067Y56781383D01*
X28821788Y56825000D01*
X28598212Y56825000D01*
X28378933Y56781383D01*
X28172376Y56695824D01*
X27986480Y56571612D01*
X27828388Y56413520D01*
X27704176Y56227624D01*
X27620501Y56025615D01*
X27539980Y56001189D01*
X27487853Y55973326D01*
X27469890Y56032543D01*
X27410926Y56142857D01*
X27331573Y56239549D01*
X27222097Y56344680D01*
X26997591Y56344680D01*
X26414758Y55761847D01*
X26428901Y55747704D01*
X26249296Y55568099D01*
X26235153Y55582242D01*
X25652320Y54999409D01*
X25652320Y54774903D01*
X25757451Y54665427D01*
X25854143Y54586074D01*
X25964457Y54527110D01*
X25973486Y54524371D01*
X22640951Y51191836D01*
X22607184Y51164123D01*
X22579471Y51130355D01*
X22579468Y51130352D01*
X22496590Y51029365D01*
X22414412Y50875619D01*
X22363805Y50708796D01*
X22346719Y50535306D01*
X22351001Y50491827D01*
X22351000Y48176450D01*
X22230176Y47995624D01*
X22144617Y47789067D01*
X22101000Y47569788D01*
X10405000Y47569788D01*
X10405000Y55735330D01*
X24951846Y55735330D01*
X24964107Y55610849D01*
X25000416Y55491151D01*
X25059380Y55380837D01*
X25138733Y55284145D01*
X25248209Y55179014D01*
X25472715Y55179014D01*
X26055548Y55761847D01*
X25499232Y56318163D01*
X25274725Y56318163D01*
X25138733Y56186516D01*
X25059380Y56089824D01*
X25000416Y55979510D01*
X24964107Y55859812D01*
X24951846Y55735330D01*
X10405000Y55735330D01*
X10405000Y56722275D01*
X25678837Y56722275D01*
X25678837Y56497768D01*
X26235153Y55941452D01*
X26817986Y56524285D01*
X26817986Y56748791D01*
X26712855Y56858267D01*
X26616163Y56937620D01*
X26505849Y56996584D01*
X26386151Y57032893D01*
X26261670Y57045154D01*
X26137188Y57032893D01*
X26017490Y56996584D01*
X25907176Y56937620D01*
X25810484Y56858267D01*
X25678837Y56722275D01*
X10405000Y56722275D01*
X10405000Y59952409D01*
X20699320Y59952409D01*
X20699320Y59727903D01*
X20804451Y59618427D01*
X20901143Y59539074D01*
X21011457Y59480110D01*
X21131155Y59443801D01*
X21216867Y59435359D01*
X21219613Y59407478D01*
X21268371Y59246744D01*
X21347550Y59098611D01*
X21454106Y58968771D01*
X21763465Y58659412D01*
X21893305Y58552856D01*
X22041438Y58473677D01*
X22202172Y58424919D01*
X22369330Y58408455D01*
X22536488Y58424919D01*
X22697222Y58473677D01*
X22845355Y58552856D01*
X22975195Y58659412D01*
X23337588Y59021805D01*
X23444144Y59151645D01*
X23523323Y59299778D01*
X23529383Y59319754D01*
X23598388Y59216480D01*
X23756480Y59058388D01*
X23942376Y58934176D01*
X24148933Y58848617D01*
X24368212Y58805000D01*
X24591788Y58805000D01*
X24811067Y58848617D01*
X25017624Y58934176D01*
X25203520Y59058388D01*
X25361612Y59216480D01*
X25485824Y59402376D01*
X25571383Y59608933D01*
X25615000Y59828212D01*
X25615000Y60051788D01*
X25571383Y60271067D01*
X25485824Y60477624D01*
X25361612Y60663520D01*
X25203520Y60821612D01*
X25017624Y60945824D01*
X24811067Y61031383D01*
X24591788Y61075000D01*
X24586578Y61075000D01*
X24527534Y61134044D01*
X24499817Y61167817D01*
X24365059Y61278411D01*
X24211313Y61360589D01*
X24044490Y61411195D01*
X23914477Y61424000D01*
X23914469Y61424000D01*
X23871000Y61428281D01*
X23827531Y61424000D01*
X23377163Y61424000D01*
X23333694Y61428281D01*
X23290225Y61424000D01*
X23290217Y61424000D01*
X23175000Y61412652D01*
X23160203Y61411195D01*
X23141163Y61405419D01*
X22993381Y61360589D01*
X22839635Y61278411D01*
X22828688Y61269427D01*
X22738647Y61195532D01*
X22738645Y61195530D01*
X22704877Y61167817D01*
X22677164Y61134049D01*
X22519629Y60976514D01*
X22516890Y60985543D01*
X22457926Y61095857D01*
X22378573Y61192549D01*
X22269097Y61297680D01*
X22044591Y61297680D01*
X21461758Y60714847D01*
X21475901Y60700704D01*
X21296296Y60521099D01*
X21282153Y60535242D01*
X20699320Y59952409D01*
X10405000Y59952409D01*
X10405000Y60688330D01*
X19998846Y60688330D01*
X20011107Y60563849D01*
X20047416Y60444151D01*
X20106380Y60333837D01*
X20185733Y60237145D01*
X20295209Y60132014D01*
X20519715Y60132014D01*
X21102548Y60714847D01*
X20546232Y61271163D01*
X20321725Y61271163D01*
X20185733Y61139516D01*
X20106380Y61042824D01*
X20047416Y60932510D01*
X20011107Y60812812D01*
X19998846Y60688330D01*
X10405000Y60688330D01*
X10405000Y61675275D01*
X20725837Y61675275D01*
X20725837Y61450768D01*
X21282153Y60894452D01*
X21864986Y61477285D01*
X21864986Y61701791D01*
X21759855Y61811267D01*
X21663163Y61890620D01*
X21552849Y61949584D01*
X21433151Y61985893D01*
X21308670Y61998154D01*
X21184188Y61985893D01*
X21064490Y61949584D01*
X20954176Y61890620D01*
X20857484Y61811267D01*
X20725837Y61675275D01*
X10405000Y61675275D01*
X10405000Y61823422D01*
X10907768Y62326190D01*
X11121067Y62368617D01*
X11327624Y62454176D01*
X11508450Y62575000D01*
X18493531Y62575000D01*
X18537000Y62570719D01*
X18580469Y62575000D01*
X18580477Y62575000D01*
X18710490Y62587805D01*
X18877313Y62638411D01*
X19031059Y62720589D01*
X19165817Y62831183D01*
X19193534Y62864956D01*
X20402058Y64073479D01*
X20435825Y64101191D01*
X20473106Y64146617D01*
X20546419Y64235949D01*
X20628597Y64389694D01*
X20679203Y64556518D01*
X20682993Y64595000D01*
X20692008Y64686531D01*
X20692008Y64686539D01*
X20696289Y64730008D01*
X20692008Y64773477D01*
X20692008Y66742050D01*
X20812832Y66922876D01*
X20855126Y67024982D01*
X20923113Y67004358D01*
X20998026Y66996980D01*
X21038439Y66993000D01*
X21038444Y66993000D01*
X21077000Y66989203D01*
X21115556Y66993000D01*
X21927447Y66993000D01*
X21966000Y66989203D01*
X22004553Y66993000D01*
X22004561Y66993000D01*
X22119887Y67004359D01*
X22267860Y67049246D01*
X22404233Y67122138D01*
X22523764Y67220236D01*
X22548347Y67250190D01*
X38796000Y83497842D01*
X38795999Y43089554D01*
X38792202Y43051001D01*
X38795999Y43012448D01*
X38795999Y43012441D01*
X38807358Y42897115D01*
X38852245Y42749142D01*
X38925137Y42612769D01*
X39023235Y42493237D01*
X39053189Y42468654D01*
X40389000Y41132842D01*
X40389000Y40996212D01*
X40432617Y40776933D01*
X40518176Y40570376D01*
X40642388Y40384480D01*
X40800480Y40226388D01*
X40986376Y40102176D01*
X41192933Y40016617D01*
X41412212Y39973000D01*
X41635788Y39973000D01*
X41855067Y40016617D01*
X42061624Y40102176D01*
X42247520Y40226388D01*
X42405612Y40384480D01*
X42529824Y40570376D01*
X42615383Y40776933D01*
X42659000Y40996212D01*
X42659000Y41219788D01*
X42615383Y41439067D01*
X42529824Y41645624D01*
X42405612Y41831520D01*
X42247520Y41989612D01*
X42061624Y42113824D01*
X41855067Y42199383D01*
X41635788Y42243000D01*
X41499158Y42243000D01*
X40365999Y43376158D01*
X40365999Y43567341D01*
X40394941Y43543589D01*
X40548687Y43461411D01*
X40552755Y43460177D01*
X40552919Y43458512D01*
X40601677Y43297778D01*
X40680856Y43149645D01*
X40787412Y43019805D01*
X41149805Y42657412D01*
X41279645Y42550856D01*
X41427778Y42471677D01*
X41588512Y42422919D01*
X41755670Y42406455D01*
X41922828Y42422919D01*
X42083562Y42471677D01*
X42231695Y42550856D01*
X42361535Y42657412D01*
X42670894Y42966771D01*
X42777450Y43096611D01*
X42856629Y43244744D01*
X42905387Y43405478D01*
X42908133Y43433359D01*
X42993845Y43441801D01*
X43113543Y43478110D01*
X43223857Y43537074D01*
X43320549Y43616427D01*
X43425680Y43725903D01*
X43425680Y43950409D01*
X42842847Y44533242D01*
X42828705Y44519099D01*
X42649100Y44698704D01*
X42663242Y44712847D01*
X43022452Y44712847D01*
X43605285Y44130014D01*
X43829791Y44130014D01*
X43939267Y44235145D01*
X44018620Y44331837D01*
X44077584Y44442151D01*
X44113893Y44561849D01*
X44126154Y44686330D01*
X44113893Y44810812D01*
X44077584Y44930510D01*
X44018620Y45040824D01*
X43939267Y45137516D01*
X43803275Y45269163D01*
X43578768Y45269163D01*
X43022452Y44712847D01*
X42663242Y44712847D01*
X42080409Y45295680D01*
X41855903Y45295680D01*
X41746427Y45190549D01*
X41667074Y45093857D01*
X41608110Y44983543D01*
X41603848Y44969491D01*
X41539365Y45022411D01*
X41486595Y45050617D01*
X41472383Y45122067D01*
X41386824Y45328624D01*
X41262612Y45514520D01*
X41104520Y45672612D01*
X41063844Y45699791D01*
X42260014Y45699791D01*
X42260014Y45475285D01*
X42842847Y44892452D01*
X43399163Y45448768D01*
X43399163Y45673275D01*
X43267516Y45809267D01*
X43170824Y45888620D01*
X43060510Y45947584D01*
X42940812Y45983893D01*
X42816330Y45996154D01*
X42691849Y45983893D01*
X42572151Y45947584D01*
X42461837Y45888620D01*
X42365145Y45809267D01*
X42260014Y45699791D01*
X41063844Y45699791D01*
X40918624Y45796824D01*
X40712067Y45882383D01*
X40492788Y45926000D01*
X40365999Y45926000D01*
X40365999Y48031788D01*
X42375000Y48031788D01*
X42375000Y47808212D01*
X42418617Y47588933D01*
X42504176Y47382376D01*
X42628388Y47196480D01*
X42786480Y47038388D01*
X42972376Y46914176D01*
X43178933Y46828617D01*
X43396638Y46785313D01*
X43477941Y46718589D01*
X43502158Y46705645D01*
X43631686Y46636411D01*
X43766250Y46595591D01*
X43798510Y46585805D01*
X43928523Y46573000D01*
X43928531Y46573000D01*
X43972000Y46568719D01*
X43994073Y46570893D01*
X44031703Y46500492D01*
X44138259Y46370652D01*
X44500652Y46008259D01*
X44630492Y45901703D01*
X44778625Y45822524D01*
X44939359Y45773766D01*
X45106517Y45757302D01*
X45273675Y45773766D01*
X45434409Y45822524D01*
X45582542Y45901703D01*
X45712382Y46008259D01*
X46021741Y46317618D01*
X46128297Y46447458D01*
X46207476Y46595591D01*
X46256234Y46756325D01*
X46258980Y46784206D01*
X46344692Y46792648D01*
X46464390Y46828957D01*
X46574704Y46887921D01*
X46671396Y46967274D01*
X46776527Y47076750D01*
X46776527Y47301256D01*
X46193694Y47884089D01*
X46179552Y47869946D01*
X45999947Y48049551D01*
X46014089Y48063694D01*
X46373299Y48063694D01*
X46956132Y47480861D01*
X47180638Y47480861D01*
X47290114Y47585992D01*
X47369467Y47682684D01*
X47428431Y47792998D01*
X47464740Y47912696D01*
X47477001Y48037177D01*
X47464740Y48161659D01*
X47428431Y48281357D01*
X47369467Y48391671D01*
X47290114Y48488363D01*
X47154122Y48620010D01*
X46929615Y48620010D01*
X46373299Y48063694D01*
X46014089Y48063694D01*
X45431256Y48646527D01*
X45206750Y48646527D01*
X45097274Y48541396D01*
X45017921Y48444704D01*
X44958957Y48334390D01*
X44938145Y48265781D01*
X44912313Y48279589D01*
X44745490Y48330195D01*
X44615477Y48343000D01*
X44615469Y48343000D01*
X44572000Y48347281D01*
X44561940Y48346290D01*
X44515824Y48457624D01*
X44391612Y48643520D01*
X44233520Y48801612D01*
X44047624Y48925824D01*
X43841067Y49011383D01*
X43643718Y49050638D01*
X45610861Y49050638D01*
X45610861Y48826132D01*
X46193694Y48243299D01*
X46750010Y48799615D01*
X46750010Y49024122D01*
X46618363Y49160114D01*
X46521671Y49239467D01*
X46411357Y49298431D01*
X46291659Y49334740D01*
X46167177Y49347001D01*
X46042696Y49334740D01*
X45922998Y49298431D01*
X45812684Y49239467D01*
X45715992Y49160114D01*
X45610861Y49050638D01*
X43643718Y49050638D01*
X43621788Y49055000D01*
X43398212Y49055000D01*
X43178933Y49011383D01*
X42972376Y48925824D01*
X42786480Y48801612D01*
X42628388Y48643520D01*
X42504176Y48457624D01*
X42418617Y48251067D01*
X42375000Y48031788D01*
X40365999Y48031788D01*
X40365999Y51561788D01*
X45905000Y51561788D01*
X45905000Y51338212D01*
X45948617Y51118933D01*
X46034176Y50912376D01*
X46158388Y50726480D01*
X46316480Y50568388D01*
X46502376Y50444176D01*
X46708933Y50358617D01*
X46928212Y50315000D01*
X47151788Y50315000D01*
X47371067Y50358617D01*
X47542172Y50429491D01*
X47586677Y50282778D01*
X47665856Y50134645D01*
X47772412Y50004805D01*
X48134805Y49642412D01*
X48264645Y49535856D01*
X48412778Y49456677D01*
X48573512Y49407919D01*
X48740670Y49391455D01*
X48907828Y49407919D01*
X49068562Y49456677D01*
X49216695Y49535856D01*
X49346535Y49642412D01*
X49655894Y49951771D01*
X49762450Y50081611D01*
X49841629Y50229744D01*
X49890387Y50390478D01*
X49893133Y50418359D01*
X49978845Y50426801D01*
X50098543Y50463110D01*
X50208857Y50522074D01*
X50305549Y50601427D01*
X50410680Y50710903D01*
X50410680Y50935409D01*
X49827847Y51518242D01*
X49813705Y51504099D01*
X49634100Y51683704D01*
X49648242Y51697847D01*
X50007452Y51697847D01*
X50590285Y51115014D01*
X50814791Y51115014D01*
X50924267Y51220145D01*
X51003620Y51316837D01*
X51062584Y51427151D01*
X51098893Y51546849D01*
X51111154Y51671330D01*
X51098893Y51795812D01*
X51062584Y51915510D01*
X51003620Y52025824D01*
X50924267Y52122516D01*
X50788275Y52254163D01*
X50563768Y52254163D01*
X50007452Y51697847D01*
X49648242Y51697847D01*
X49065409Y52280680D01*
X48840903Y52280680D01*
X48731427Y52175549D01*
X48652074Y52078857D01*
X48593110Y51968543D01*
X48590371Y51959513D01*
X48504840Y52045044D01*
X48477123Y52078817D01*
X48342365Y52189411D01*
X48188619Y52271589D01*
X48021796Y52322195D01*
X47891783Y52335000D01*
X47891775Y52335000D01*
X47848306Y52339281D01*
X47804837Y52335000D01*
X47758450Y52335000D01*
X47577624Y52455824D01*
X47371067Y52541383D01*
X47151788Y52585000D01*
X46928212Y52585000D01*
X46708933Y52541383D01*
X46502376Y52455824D01*
X46316480Y52331612D01*
X46158388Y52173520D01*
X46034176Y51987624D01*
X45948617Y51781067D01*
X45905000Y51561788D01*
X40365999Y51561788D01*
X40365999Y52684791D01*
X49245014Y52684791D01*
X49245014Y52460285D01*
X49827847Y51877452D01*
X50384163Y52433768D01*
X50384163Y52658275D01*
X50252516Y52794267D01*
X50155824Y52873620D01*
X50045510Y52932584D01*
X49925812Y52968893D01*
X49801330Y52981154D01*
X49676849Y52968893D01*
X49557151Y52932584D01*
X49446837Y52873620D01*
X49350145Y52794267D01*
X49245014Y52684791D01*
X40365999Y52684791D01*
X40365999Y55091788D01*
X49445000Y55091788D01*
X49445000Y54868212D01*
X49488617Y54648933D01*
X49574176Y54442376D01*
X49698388Y54256480D01*
X49856480Y54098388D01*
X50042376Y53974176D01*
X50248933Y53888617D01*
X50468212Y53845000D01*
X50691788Y53845000D01*
X50911067Y53888617D01*
X50963206Y53910214D01*
X50966919Y53872512D01*
X51015677Y53711778D01*
X51094856Y53563645D01*
X51201412Y53433805D01*
X51563805Y53071412D01*
X51693645Y52964856D01*
X51841778Y52885677D01*
X52002512Y52836919D01*
X52169670Y52820455D01*
X52336828Y52836919D01*
X52497562Y52885677D01*
X52645695Y52964856D01*
X52775535Y53071412D01*
X53084894Y53380771D01*
X53191450Y53510611D01*
X53270629Y53658744D01*
X53319387Y53819478D01*
X53322133Y53847359D01*
X53407845Y53855801D01*
X53527543Y53892110D01*
X53637857Y53951074D01*
X53734549Y54030427D01*
X53839680Y54139903D01*
X53839680Y54364409D01*
X53256847Y54947242D01*
X53242705Y54933099D01*
X53063100Y55112704D01*
X53077242Y55126847D01*
X53436452Y55126847D01*
X54019285Y54544014D01*
X54243791Y54544014D01*
X54353267Y54649145D01*
X54432620Y54745837D01*
X54491584Y54856151D01*
X54527893Y54975849D01*
X54540154Y55100330D01*
X54527893Y55224812D01*
X54491584Y55344510D01*
X54432620Y55454824D01*
X54353267Y55551516D01*
X54217275Y55683163D01*
X53992768Y55683163D01*
X53436452Y55126847D01*
X53077242Y55126847D01*
X52494409Y55709680D01*
X52269903Y55709680D01*
X52160427Y55604549D01*
X52081074Y55507857D01*
X52022110Y55397543D01*
X52019371Y55388513D01*
X51832840Y55575044D01*
X51805123Y55608817D01*
X51670365Y55719411D01*
X51516619Y55801589D01*
X51349796Y55852195D01*
X51308910Y55856222D01*
X51303520Y55861612D01*
X51117624Y55985824D01*
X50911067Y56071383D01*
X50697867Y56113791D01*
X52674014Y56113791D01*
X52674014Y55889285D01*
X53256847Y55306452D01*
X53813163Y55862768D01*
X53813163Y56087275D01*
X53681516Y56223267D01*
X53584824Y56302620D01*
X53474510Y56361584D01*
X53354812Y56397893D01*
X53230330Y56410154D01*
X53105849Y56397893D01*
X52986151Y56361584D01*
X52875837Y56302620D01*
X52779145Y56223267D01*
X52674014Y56113791D01*
X50697867Y56113791D01*
X50691788Y56115000D01*
X50468212Y56115000D01*
X50248933Y56071383D01*
X50042376Y55985824D01*
X49856480Y55861612D01*
X49698388Y55703520D01*
X49574176Y55517624D01*
X49488617Y55311067D01*
X49445000Y55091788D01*
X40365999Y55091788D01*
X40365999Y58611788D01*
X52945000Y58611788D01*
X52945000Y58388212D01*
X52988617Y58168933D01*
X53074176Y57962376D01*
X53198388Y57776480D01*
X53356480Y57618388D01*
X53542376Y57494176D01*
X53748933Y57408617D01*
X53968212Y57365000D01*
X54191788Y57365000D01*
X54411067Y57408617D01*
X54617624Y57494176D01*
X54659947Y57522455D01*
X54698677Y57394778D01*
X54777856Y57246645D01*
X54884412Y57116805D01*
X55246805Y56754412D01*
X55376645Y56647856D01*
X55524778Y56568677D01*
X55685512Y56519919D01*
X55852670Y56503455D01*
X56019828Y56519919D01*
X56180562Y56568677D01*
X56328695Y56647856D01*
X56458535Y56754412D01*
X56767894Y57063771D01*
X56874450Y57193611D01*
X56953629Y57341744D01*
X57002387Y57502478D01*
X57005133Y57530359D01*
X57090845Y57538801D01*
X57210543Y57575110D01*
X57320857Y57634074D01*
X57417549Y57713427D01*
X57522680Y57822903D01*
X57522680Y58047409D01*
X56939847Y58630242D01*
X56925705Y58616099D01*
X56746100Y58795704D01*
X56760242Y58809847D01*
X57119452Y58809847D01*
X57702285Y58227014D01*
X57926791Y58227014D01*
X58036267Y58332145D01*
X58115620Y58428837D01*
X58174584Y58539151D01*
X58210893Y58658849D01*
X58223154Y58783330D01*
X58210893Y58907812D01*
X58174584Y59027510D01*
X58115620Y59137824D01*
X58036267Y59234516D01*
X57900275Y59366163D01*
X57675768Y59366163D01*
X57119452Y58809847D01*
X56760242Y58809847D01*
X56177409Y59392680D01*
X55952903Y59392680D01*
X55843427Y59287549D01*
X55764074Y59190857D01*
X55705110Y59080543D01*
X55702371Y59071513D01*
X55678840Y59095044D01*
X55651123Y59128817D01*
X55516365Y59239411D01*
X55362619Y59321589D01*
X55195796Y59372195D01*
X55065783Y59385000D01*
X55065775Y59385000D01*
X55022306Y59389281D01*
X54978837Y59385000D01*
X54798450Y59385000D01*
X54617624Y59505824D01*
X54411067Y59591383D01*
X54191788Y59635000D01*
X53968212Y59635000D01*
X53748933Y59591383D01*
X53542376Y59505824D01*
X53356480Y59381612D01*
X53198388Y59223520D01*
X53074176Y59037624D01*
X52988617Y58831067D01*
X52945000Y58611788D01*
X40365999Y58611788D01*
X40365999Y59796791D01*
X56357014Y59796791D01*
X56357014Y59572285D01*
X56939847Y58989452D01*
X57496163Y59545768D01*
X57496163Y59770275D01*
X57364516Y59906267D01*
X57267824Y59985620D01*
X57157510Y60044584D01*
X57037812Y60080893D01*
X56913330Y60093154D01*
X56788849Y60080893D01*
X56669151Y60044584D01*
X56558837Y59985620D01*
X56462145Y59906267D01*
X56357014Y59796791D01*
X40365999Y59796791D01*
X40365999Y62161788D01*
X56505000Y62161788D01*
X56505000Y61938212D01*
X56548617Y61718933D01*
X56634176Y61512376D01*
X56758388Y61326480D01*
X56916480Y61168388D01*
X57102376Y61044176D01*
X57308933Y60958617D01*
X57528212Y60915000D01*
X57751788Y60915000D01*
X57971067Y60958617D01*
X58177624Y61044176D01*
X58218134Y61071244D01*
X58254677Y60950778D01*
X58333856Y60802645D01*
X58440412Y60672805D01*
X58802805Y60310412D01*
X58932645Y60203856D01*
X59080778Y60124677D01*
X59241512Y60075919D01*
X59313943Y60068785D01*
X60962776Y58419951D01*
X60990489Y58386183D01*
X61024257Y58358470D01*
X61024259Y58358468D01*
X61063200Y58326510D01*
X61125247Y58275589D01*
X61278993Y58193411D01*
X61445816Y58142805D01*
X61575829Y58130000D01*
X61575839Y58130000D01*
X61619305Y58125719D01*
X61662771Y58130000D01*
X64721531Y58130000D01*
X64765000Y58125719D01*
X64808469Y58130000D01*
X64808477Y58130000D01*
X64938490Y58142805D01*
X65105313Y58193411D01*
X65259059Y58275589D01*
X65393817Y58386183D01*
X65421534Y58419956D01*
X69210000Y62208421D01*
X69595000Y61823421D01*
X69595001Y39696580D01*
X69092232Y39193811D01*
X68878933Y39151383D01*
X68672376Y39065824D01*
X68486480Y38941612D01*
X68328388Y38783520D01*
X68204176Y38597624D01*
X68118617Y38391067D01*
X68075000Y38171788D01*
X68075000Y37948212D01*
X68118617Y37728933D01*
X68204176Y37522376D01*
X68328388Y37336480D01*
X68486480Y37178388D01*
X68672376Y37054176D01*
X68878933Y36968617D01*
X69092232Y36926189D01*
X69595000Y36423421D01*
X69595001Y14296580D01*
X69092232Y13793811D01*
X68878933Y13751383D01*
X68672376Y13665824D01*
X68486480Y13541612D01*
X68328388Y13383520D01*
X68204176Y13197624D01*
X68118617Y12991067D01*
X68075000Y12771788D01*
X68075000Y12548212D01*
X68118617Y12328933D01*
X68204176Y12122376D01*
X68328388Y11936480D01*
X68486480Y11778388D01*
X68672376Y11654176D01*
X68878933Y11568617D01*
X69098212Y11525000D01*
X69321788Y11525000D01*
X69541067Y11568617D01*
X69747624Y11654176D01*
X69933520Y11778388D01*
X70091612Y11936480D01*
X70215824Y12122376D01*
X70301383Y12328933D01*
X70343811Y12542232D01*
X71075049Y13273470D01*
X71108817Y13301183D01*
X71136533Y13334954D01*
X71219410Y13435940D01*
X71219411Y13435941D01*
X71301589Y13589687D01*
X71352195Y13756510D01*
X71365000Y13886523D01*
X71365000Y13886533D01*
X71369281Y13929999D01*
X71365000Y13973465D01*
X71365000Y36746535D01*
X71369281Y36790001D01*
X71365000Y36833467D01*
X71365000Y36833477D01*
X71352195Y36963490D01*
X71301589Y37130313D01*
X71219411Y37284059D01*
X71108817Y37418817D01*
X71075050Y37446529D01*
X70461578Y38060000D01*
X71075049Y38673470D01*
X71108817Y38701183D01*
X71219411Y38835941D01*
X71301589Y38989687D01*
X71352195Y39156510D01*
X71365000Y39286523D01*
X71365000Y39286533D01*
X71369281Y39329999D01*
X71365000Y39373465D01*
X71365000Y62146535D01*
X71369281Y62190001D01*
X71365000Y62233467D01*
X71365000Y62233477D01*
X71352195Y62363490D01*
X71301589Y62530313D01*
X71219411Y62684059D01*
X71145992Y62773520D01*
X71136532Y62785047D01*
X71136530Y62785049D01*
X71108817Y62818817D01*
X71075050Y62846529D01*
X70461578Y63460000D01*
X71075049Y64073470D01*
X71108817Y64101183D01*
X71136533Y64134954D01*
X71219410Y64235940D01*
X71219415Y64235949D01*
X71301589Y64389687D01*
X71352195Y64556510D01*
X71365000Y64686523D01*
X71365000Y64686533D01*
X71369281Y64729999D01*
X71365000Y64773465D01*
X71365000Y90086535D01*
X71369281Y90130001D01*
X71365000Y90173467D01*
X71365000Y90173477D01*
X71352195Y90303490D01*
X71301589Y90470313D01*
X71219411Y90624059D01*
X71150706Y90707776D01*
X71136532Y90725047D01*
X71136530Y90725049D01*
X71108817Y90758817D01*
X71075050Y90786529D01*
X70461578Y91400000D01*
X71075049Y92013470D01*
X71108817Y92041183D01*
X71136533Y92074954D01*
X71219410Y92175940D01*
X71219411Y92175941D01*
X71301589Y92329687D01*
X71352195Y92496510D01*
X71365000Y92626523D01*
X71365000Y92626533D01*
X71369281Y92669999D01*
X71365000Y92713465D01*
X71365000Y115486535D01*
X71369281Y115530001D01*
X71365000Y115573467D01*
X71365000Y115573477D01*
X71352195Y115703490D01*
X71301589Y115870313D01*
X71219411Y116024059D01*
X71176390Y116076480D01*
X71136532Y116125047D01*
X71136530Y116125049D01*
X71108817Y116158817D01*
X71075050Y116186529D01*
X70461578Y116800000D01*
X71075050Y117413471D01*
X71108817Y117441183D01*
X71136533Y117474954D01*
X71219410Y117575940D01*
X71219411Y117575941D01*
X71301589Y117729687D01*
X71352195Y117896510D01*
X71365000Y118026523D01*
X71365000Y118026533D01*
X71369281Y118069999D01*
X71365000Y118113465D01*
X71365000Y140886535D01*
X71369281Y140930001D01*
X71365000Y140973467D01*
X71365000Y140973477D01*
X71352195Y141103490D01*
X71301589Y141270313D01*
X71219411Y141424059D01*
X71176390Y141476480D01*
X71136532Y141525047D01*
X71136530Y141525049D01*
X71108817Y141558817D01*
X71075049Y141586530D01*
X70343811Y142317768D01*
X70301383Y142531067D01*
X70215824Y142737624D01*
X70091612Y142923520D01*
X69933520Y143081612D01*
X69747624Y143205824D01*
X69541067Y143291383D01*
X69321788Y143335000D01*
X69098212Y143335000D01*
X68878933Y143291383D01*
X68672376Y143205824D01*
X68486480Y143081612D01*
X68328388Y142923520D01*
X68204176Y142737624D01*
X68118617Y142531067D01*
X68075000Y142311788D01*
X68075000Y142088212D01*
X68118617Y141868933D01*
X68204176Y141662376D01*
X68328388Y141476480D01*
X68486480Y141318388D01*
X68672376Y141194176D01*
X68878933Y141108617D01*
X69092232Y141066189D01*
X69595001Y140563420D01*
X69595000Y118436579D01*
X69092232Y117933811D01*
X68878933Y117891383D01*
X68672376Y117805824D01*
X68486480Y117681612D01*
X68328388Y117523520D01*
X68204176Y117337624D01*
X68118617Y117131067D01*
X68075000Y116911788D01*
X68075000Y116688212D01*
X68118617Y116468933D01*
X68204176Y116262376D01*
X68328388Y116076480D01*
X68486480Y115918388D01*
X68672376Y115794176D01*
X68878933Y115708617D01*
X69092232Y115666189D01*
X69595000Y115163421D01*
X69595001Y93036580D01*
X69092232Y92533811D01*
X68878933Y92491383D01*
X68672376Y92405824D01*
X68486480Y92281612D01*
X68328388Y92123520D01*
X68204176Y91937624D01*
X68118617Y91731067D01*
X68075000Y91511788D01*
X68075000Y91288212D01*
X68118617Y91068933D01*
X68204176Y90862376D01*
X68328388Y90676480D01*
X68486480Y90518388D01*
X68672376Y90394176D01*
X68878933Y90308617D01*
X69092232Y90266189D01*
X69595000Y89763421D01*
X69595001Y65096580D01*
X69092232Y64593811D01*
X68878933Y64551383D01*
X68672376Y64465824D01*
X68486480Y64341612D01*
X68328388Y64183520D01*
X68204176Y63997624D01*
X68118617Y63791067D01*
X68076190Y63577768D01*
X64398422Y59900000D01*
X61985885Y59900000D01*
X60757513Y61128371D01*
X60766543Y61131110D01*
X60876857Y61190074D01*
X60973549Y61269427D01*
X61078680Y61378903D01*
X61078680Y61603409D01*
X60495847Y62186242D01*
X60481705Y62172099D01*
X60302100Y62351704D01*
X60316242Y62365847D01*
X60675452Y62365847D01*
X61258285Y61783014D01*
X61482791Y61783014D01*
X61592267Y61888145D01*
X61671620Y61984837D01*
X61730584Y62095151D01*
X61766893Y62214849D01*
X61779154Y62339330D01*
X61766893Y62463812D01*
X61730584Y62583510D01*
X61671620Y62693824D01*
X61592267Y62790516D01*
X61456275Y62922163D01*
X61231768Y62922163D01*
X60675452Y62365847D01*
X60316242Y62365847D01*
X59733409Y62948680D01*
X59508903Y62948680D01*
X59399427Y62843549D01*
X59320074Y62746857D01*
X59261110Y62636543D01*
X59258371Y62627513D01*
X59240840Y62645044D01*
X59213123Y62678817D01*
X59078365Y62789411D01*
X58924619Y62871589D01*
X58757796Y62922195D01*
X58627783Y62935000D01*
X58627775Y62935000D01*
X58584306Y62939281D01*
X58540837Y62935000D01*
X58358450Y62935000D01*
X58177624Y63055824D01*
X57971067Y63141383D01*
X57751788Y63185000D01*
X57528212Y63185000D01*
X57308933Y63141383D01*
X57102376Y63055824D01*
X56916480Y62931612D01*
X56758388Y62773520D01*
X56634176Y62587624D01*
X56548617Y62381067D01*
X56505000Y62161788D01*
X40365999Y62161788D01*
X40365999Y63352791D01*
X59913014Y63352791D01*
X59913014Y63128285D01*
X60495847Y62545452D01*
X61052163Y63101768D01*
X61052163Y63326275D01*
X60920516Y63462267D01*
X60823824Y63541620D01*
X60713510Y63600584D01*
X60593812Y63636893D01*
X60469330Y63649154D01*
X60344849Y63636893D01*
X60225151Y63600584D01*
X60114837Y63541620D01*
X60018145Y63462267D01*
X59913014Y63352791D01*
X40365999Y63352791D01*
X40365999Y82113344D01*
X45438001Y77041342D01*
X45438000Y69467553D01*
X45434203Y69429000D01*
X45438000Y69390447D01*
X45438000Y69390440D01*
X45449359Y69275114D01*
X45494246Y69127141D01*
X45567138Y68990768D01*
X45665236Y68871236D01*
X45695191Y68846653D01*
X46047149Y68494695D01*
X46071736Y68464736D01*
X46191267Y68366638D01*
X46301908Y68307500D01*
X46327640Y68293746D01*
X46457558Y68254335D01*
X46503885Y68197885D01*
X46579484Y68135843D01*
X46581000Y68120447D01*
X46581000Y68120440D01*
X46592359Y68005114D01*
X46637246Y67857141D01*
X46710138Y67720768D01*
X46808236Y67601236D01*
X46838190Y67576653D01*
X48053658Y66361185D01*
X48078236Y66331236D01*
X48108184Y66306658D01*
X48108187Y66306655D01*
X48134574Y66285000D01*
X48197767Y66233138D01*
X48334140Y66160246D01*
X48447672Y66125806D01*
X48482112Y66115359D01*
X48496490Y66113943D01*
X48597439Y66104000D01*
X48597446Y66104000D01*
X48635999Y66100203D01*
X48674552Y66104000D01*
X57150043Y66104000D01*
X58118200Y65135843D01*
X58118200Y64999212D01*
X58161817Y64779933D01*
X58247376Y64573376D01*
X58371588Y64387480D01*
X58529680Y64229388D01*
X58715576Y64105176D01*
X58922133Y64019617D01*
X59141412Y63976000D01*
X59364988Y63976000D01*
X59584267Y64019617D01*
X59790824Y64105176D01*
X59976720Y64229388D01*
X60134812Y64387480D01*
X60259024Y64573376D01*
X60344583Y64779933D01*
X60388200Y64999212D01*
X60388200Y65222788D01*
X60344583Y65442067D01*
X60259024Y65648624D01*
X60165431Y65788695D01*
X60194687Y65832480D01*
X60217533Y65823017D01*
X60436812Y65779400D01*
X60660388Y65779400D01*
X60879667Y65823017D01*
X61086224Y65908576D01*
X61272120Y66032788D01*
X61430212Y66190880D01*
X61554424Y66376776D01*
X61639983Y66583333D01*
X61666783Y66718066D01*
X63122006Y65262842D01*
X63122006Y65126212D01*
X63165623Y64906933D01*
X63251182Y64700376D01*
X63375394Y64514480D01*
X63533486Y64356388D01*
X63719382Y64232176D01*
X63925939Y64146617D01*
X64145218Y64103000D01*
X64368794Y64103000D01*
X64588073Y64146617D01*
X64794630Y64232176D01*
X64980526Y64356388D01*
X65138618Y64514480D01*
X65262830Y64700376D01*
X65348389Y64906933D01*
X65392006Y65126212D01*
X65392006Y65349788D01*
X65348389Y65569067D01*
X65262830Y65775624D01*
X65138618Y65961520D01*
X64980526Y66119612D01*
X64794630Y66243824D01*
X64588073Y66329383D01*
X64368794Y66373000D01*
X64232164Y66373000D01*
X61791351Y68813812D01*
X61766770Y68843764D01*
X61647239Y68941862D01*
X61510866Y69014754D01*
X61362893Y69059641D01*
X61247567Y69071000D01*
X61247559Y69071000D01*
X61209006Y69074797D01*
X61170453Y69071000D01*
X59437653Y69071000D01*
X59455000Y69158212D01*
X59455000Y69381788D01*
X59411383Y69601067D01*
X59325824Y69807624D01*
X59201612Y69993520D01*
X59043520Y70151612D01*
X58898968Y70248199D01*
X59019222Y70284677D01*
X59167355Y70363856D01*
X59297195Y70470412D01*
X59659588Y70832805D01*
X59766144Y70962645D01*
X59845323Y71110778D01*
X59894081Y71271512D01*
X59910545Y71438670D01*
X59894081Y71605828D01*
X59845323Y71766562D01*
X59766144Y71914695D01*
X59659588Y72044535D01*
X59350229Y72353894D01*
X59220389Y72460450D01*
X59072256Y72539629D01*
X58911522Y72588387D01*
X58883641Y72591133D01*
X58875199Y72676845D01*
X58838890Y72796543D01*
X58779926Y72906857D01*
X58700573Y73003549D01*
X58591097Y73108680D01*
X58366591Y73108680D01*
X57783758Y72525847D01*
X57797901Y72511704D01*
X57618296Y72332099D01*
X57604153Y72346242D01*
X57021320Y71763409D01*
X57021320Y71538903D01*
X57126451Y71429427D01*
X57223143Y71350074D01*
X57333457Y71291110D01*
X57342487Y71288371D01*
X57235751Y71181635D01*
X57201984Y71153923D01*
X57174271Y71120155D01*
X57174268Y71120152D01*
X57100282Y71030000D01*
X57091390Y71019165D01*
X57009212Y70865419D01*
X56958605Y70698596D01*
X56945800Y70568583D01*
X56945800Y70568575D01*
X56941519Y70525106D01*
X56945800Y70481637D01*
X56945800Y69976357D01*
X54422827Y72499330D01*
X56320846Y72499330D01*
X56333107Y72374849D01*
X56369416Y72255151D01*
X56428380Y72144837D01*
X56507733Y72048145D01*
X56617209Y71943014D01*
X56841715Y71943014D01*
X57424548Y72525847D01*
X56868232Y73082163D01*
X56643725Y73082163D01*
X56507733Y72950516D01*
X56428380Y72853824D01*
X56369416Y72743510D01*
X56333107Y72623812D01*
X56320846Y72499330D01*
X54422827Y72499330D01*
X53435882Y73486275D01*
X57047837Y73486275D01*
X57047837Y73261768D01*
X57604153Y72705452D01*
X58186986Y73288285D01*
X58186986Y73512791D01*
X58081855Y73622267D01*
X57985163Y73701620D01*
X57874849Y73760584D01*
X57755151Y73796893D01*
X57630670Y73809154D01*
X57506188Y73796893D01*
X57386490Y73760584D01*
X57276176Y73701620D01*
X57179484Y73622267D01*
X57047837Y73486275D01*
X53435882Y73486275D01*
X53060597Y73861560D01*
X53187624Y73914176D01*
X53373520Y74038388D01*
X53531612Y74196480D01*
X53655824Y74382376D01*
X53741383Y74588933D01*
X53785000Y74808212D01*
X53785000Y75031788D01*
X53741383Y75251067D01*
X53655824Y75457624D01*
X53531612Y75643520D01*
X53373520Y75801612D01*
X53187624Y75925824D01*
X52981067Y76011383D01*
X52924600Y76022615D01*
X52924600Y76254414D01*
X53071355Y76332856D01*
X53201195Y76439412D01*
X53563588Y76801805D01*
X53670144Y76931645D01*
X53749323Y77079778D01*
X53798081Y77240512D01*
X53814545Y77407670D01*
X53798081Y77574828D01*
X53749323Y77735562D01*
X53670144Y77883695D01*
X53563588Y78013535D01*
X53254229Y78322894D01*
X53124389Y78429450D01*
X52976256Y78508629D01*
X52815522Y78557387D01*
X52787641Y78560133D01*
X52779199Y78645845D01*
X52742890Y78765543D01*
X52683926Y78875857D01*
X52604573Y78972549D01*
X52495097Y79077680D01*
X52270591Y79077680D01*
X51687758Y78494847D01*
X51701901Y78480704D01*
X51522296Y78301099D01*
X51508153Y78315242D01*
X50925320Y77732409D01*
X50925320Y77507903D01*
X51030451Y77398427D01*
X51127143Y77319074D01*
X51237457Y77260110D01*
X51276327Y77248319D01*
X51218012Y77139219D01*
X51167405Y76972396D01*
X51150319Y76798906D01*
X51154601Y76755428D01*
X51154600Y75767557D01*
X48453827Y78468330D01*
X50224846Y78468330D01*
X50237107Y78343849D01*
X50273416Y78224151D01*
X50332380Y78113837D01*
X50411733Y78017145D01*
X50521209Y77912014D01*
X50745715Y77912014D01*
X51328548Y78494847D01*
X50772232Y79051163D01*
X50547725Y79051163D01*
X50411733Y78919516D01*
X50332380Y78822824D01*
X50273416Y78712510D01*
X50237107Y78592812D01*
X50224846Y78468330D01*
X48453827Y78468330D01*
X47466882Y79455275D01*
X50951837Y79455275D01*
X50951837Y79230768D01*
X51508153Y78674452D01*
X52090986Y79257285D01*
X52090986Y79481791D01*
X51985855Y79591267D01*
X51889163Y79670620D01*
X51778849Y79729584D01*
X51659151Y79765893D01*
X51534670Y79778154D01*
X51410188Y79765893D01*
X51290490Y79729584D01*
X51180176Y79670620D01*
X51083484Y79591267D01*
X50951837Y79455275D01*
X47466882Y79455275D01*
X46376455Y80545702D01*
X46517624Y80604176D01*
X46703520Y80728388D01*
X46861612Y80886480D01*
X46985824Y81072376D01*
X47071383Y81278933D01*
X47115000Y81498212D01*
X47115000Y81721788D01*
X47071383Y81941067D01*
X46985824Y82147624D01*
X46861612Y82333520D01*
X46703520Y82491612D01*
X46587141Y82569374D01*
X46700222Y82603677D01*
X46848355Y82682856D01*
X46978195Y82789412D01*
X47340588Y83151805D01*
X47447144Y83281645D01*
X47526323Y83429778D01*
X47575081Y83590512D01*
X47582215Y83662943D01*
X49485050Y85565777D01*
X49518817Y85593489D01*
X49629411Y85728247D01*
X49711589Y85881993D01*
X49762195Y86048816D01*
X49775000Y86178829D01*
X49775000Y86178839D01*
X49779281Y86222305D01*
X49775000Y86265771D01*
X49775000Y117351550D01*
X49895824Y117532376D01*
X49981383Y117738933D01*
X50025000Y117958212D01*
X50025000Y118181788D01*
X49981383Y118401067D01*
X49895824Y118607624D01*
X49775000Y118788450D01*
X49775000Y123985961D01*
X49828943Y123963617D01*
X50048222Y123920000D01*
X50271798Y123920000D01*
X50491077Y123963617D01*
X50697634Y124049176D01*
X50883530Y124173388D01*
X51041622Y124331480D01*
X51165834Y124517376D01*
X51251393Y124723933D01*
X51295010Y124943212D01*
X51295010Y125079853D01*
X56485158Y130270000D01*
X56621788Y130270000D01*
X56841067Y130313617D01*
X57047624Y130399176D01*
X57233520Y130523388D01*
X57391612Y130681480D01*
X57515824Y130867376D01*
X57601383Y131073933D01*
X57645000Y131293212D01*
X57645000Y131516788D01*
X57601383Y131736067D01*
X57515824Y131942624D01*
X57391612Y132128520D01*
X57233520Y132286612D01*
X57047624Y132410824D01*
X56841067Y132496383D01*
X56621788Y132540000D01*
X56398212Y132540000D01*
X56178933Y132496383D01*
X55972376Y132410824D01*
X55786480Y132286612D01*
X55628388Y132128520D01*
X55504176Y131942624D01*
X55418617Y131736067D01*
X55375000Y131516788D01*
X55375000Y131380158D01*
X50184843Y126190000D01*
X50048222Y126190000D01*
X49828943Y126146383D01*
X49775000Y126124039D01*
X49775000Y141354548D01*
X49895824Y141535374D01*
X49981383Y141741931D01*
X50025000Y141961210D01*
X50025000Y142184786D01*
X49981383Y142404065D01*
X49895824Y142610622D01*
X49771612Y142796518D01*
X49613520Y142954610D01*
X49427624Y143078822D01*
X49221067Y143164381D01*
X49001788Y143207998D01*
X48778212Y143207998D01*
X48558933Y143164381D01*
X48352376Y143078822D01*
X48166480Y142954610D01*
X48008388Y142796518D01*
X47884176Y142610622D01*
X47798617Y142404065D01*
X47755000Y142184786D01*
X47755000Y141961210D01*
X47798617Y141741931D01*
X47884176Y141535374D01*
X48005001Y141354547D01*
X48005000Y118788450D01*
X47884176Y118607624D01*
X47798617Y118401067D01*
X47755000Y118181788D01*
X47755000Y117958212D01*
X47798617Y117738933D01*
X47884176Y117532376D01*
X48005001Y117351549D01*
X48005000Y86588885D01*
X46522629Y85106513D01*
X46519890Y85115543D01*
X46460926Y85225857D01*
X46381573Y85322549D01*
X46272097Y85427680D01*
X46047591Y85427680D01*
X45464758Y84844847D01*
X45478901Y84830704D01*
X45299296Y84651099D01*
X45285153Y84665242D01*
X44702320Y84082409D01*
X44702320Y83857903D01*
X44807451Y83748427D01*
X44904143Y83669074D01*
X45014457Y83610110D01*
X45023487Y83607371D01*
X44840551Y83424435D01*
X44806784Y83396723D01*
X44779071Y83362955D01*
X44779068Y83362952D01*
X44742365Y83318229D01*
X44696190Y83261965D01*
X44614012Y83108219D01*
X44563405Y82941396D01*
X44550600Y82811383D01*
X44550600Y82811375D01*
X44546319Y82767906D01*
X44550600Y82724437D01*
X44550600Y82371557D01*
X42182000Y84740157D01*
X42182000Y84818330D01*
X44001846Y84818330D01*
X44014107Y84693849D01*
X44050416Y84574151D01*
X44109380Y84463837D01*
X44188733Y84367145D01*
X44298209Y84262014D01*
X44522715Y84262014D01*
X45105548Y84844847D01*
X44549232Y85401163D01*
X44324725Y85401163D01*
X44188733Y85269516D01*
X44109380Y85172824D01*
X44050416Y85062510D01*
X44014107Y84942812D01*
X44001846Y84818330D01*
X42182000Y84818330D01*
X42182000Y85805275D01*
X44728837Y85805275D01*
X44728837Y85580768D01*
X45285153Y85024452D01*
X45867986Y85607285D01*
X45867986Y85831791D01*
X45762855Y85941267D01*
X45666163Y86020620D01*
X45555849Y86079584D01*
X45436151Y86115893D01*
X45311670Y86128154D01*
X45187188Y86115893D01*
X45067490Y86079584D01*
X44957176Y86020620D01*
X44860484Y85941267D01*
X44728837Y85805275D01*
X42182000Y85805275D01*
X42182000Y91383737D01*
X42432811Y91634548D01*
X42462764Y91659130D01*
X42560862Y91778661D01*
X42633754Y91915034D01*
X42678641Y92063007D01*
X42681864Y92095732D01*
X42786612Y92200480D01*
X42910824Y92386376D01*
X42996383Y92592933D01*
X43040000Y92812212D01*
X43040000Y93035788D01*
X43017682Y93147987D01*
X43243868Y93147987D01*
X43340480Y93051375D01*
X43526376Y92927163D01*
X43732933Y92841604D01*
X43952212Y92797987D01*
X44175788Y92797987D01*
X44395067Y92841604D01*
X44601624Y92927163D01*
X44787520Y93051375D01*
X44945612Y93209467D01*
X45069824Y93395363D01*
X45155383Y93601920D01*
X45199000Y93821199D01*
X45199000Y94044775D01*
X45155383Y94264054D01*
X45069824Y94470611D01*
X44959990Y94634989D01*
X45069824Y94799368D01*
X45155383Y95005925D01*
X45199000Y95225204D01*
X45199000Y95448780D01*
X45155383Y95668059D01*
X45069824Y95874616D01*
X44945612Y96060512D01*
X44907128Y96098996D01*
X44945612Y96137480D01*
X45069824Y96323376D01*
X45155383Y96529933D01*
X45199000Y96749212D01*
X45199000Y96972788D01*
X45155383Y97192067D01*
X45069824Y97398624D01*
X44945612Y97584520D01*
X44787520Y97742612D01*
X44601624Y97866824D01*
X44395067Y97952383D01*
X44175788Y97996000D01*
X43952212Y97996000D01*
X43732933Y97952383D01*
X43526376Y97866824D01*
X43340480Y97742612D01*
X43243868Y97646000D01*
X41689556Y97646000D01*
X41651000Y97649797D01*
X41612444Y97646000D01*
X41612439Y97646000D01*
X41572026Y97642020D01*
X41497113Y97634642D01*
X41349140Y97589754D01*
X41212767Y97516862D01*
X41152559Y97467450D01*
X41123187Y97443345D01*
X41123184Y97443342D01*
X41093236Y97418764D01*
X41068658Y97388816D01*
X36043185Y92363342D01*
X36013237Y92338764D01*
X35988659Y92308816D01*
X35988655Y92308812D01*
X35966333Y92281612D01*
X35915139Y92219233D01*
X35893278Y92178333D01*
X35842246Y92082859D01*
X35797359Y91934886D01*
X35782203Y91781000D01*
X35786001Y91742437D01*
X35786000Y90188136D01*
X35689388Y90091524D01*
X35638067Y90014716D01*
X35548195Y90104588D01*
X35418355Y90211144D01*
X35270222Y90290323D01*
X35109488Y90339081D01*
X34942330Y90355545D01*
X34775172Y90339081D01*
X34614438Y90290323D01*
X34466305Y90211144D01*
X34336465Y90104588D01*
X34027106Y89795229D01*
X33920550Y89665389D01*
X33841371Y89517256D01*
X33792613Y89356522D01*
X33780855Y89237145D01*
X33661478Y89225387D01*
X33500744Y89176629D01*
X33352611Y89097450D01*
X33222771Y88990894D01*
X32913412Y88681535D01*
X32806856Y88551695D01*
X32727677Y88403562D01*
X32678919Y88242828D01*
X32662455Y88075670D01*
X32678919Y87908512D01*
X32727677Y87747778D01*
X32806856Y87599645D01*
X32913412Y87469805D01*
X33275805Y87107412D01*
X33405645Y87000856D01*
X33553778Y86921677D01*
X33714512Y86872919D01*
X33786519Y86865827D01*
X33812489Y86834183D01*
X33846260Y86806468D01*
X33947247Y86723589D01*
X34100992Y86641411D01*
X34161365Y86623097D01*
X34267816Y86590805D01*
X34397829Y86578000D01*
X34397837Y86578000D01*
X34441306Y86573719D01*
X34484775Y86578000D01*
X35050320Y86578000D01*
X35050320Y86398591D01*
X35633153Y85815758D01*
X35647296Y85829900D01*
X35826901Y85650295D01*
X35812758Y85636153D01*
X36395591Y85053320D01*
X36620097Y85053320D01*
X36729573Y85158451D01*
X36808926Y85255143D01*
X36863616Y85357460D01*
X36864955Y85356361D01*
X36936360Y85284956D01*
X36964077Y85251183D01*
X37098835Y85140589D01*
X37252581Y85058411D01*
X37419404Y85007805D01*
X37549417Y84995000D01*
X37549427Y84995000D01*
X37587104Y84991289D01*
X37762376Y84874176D01*
X37896473Y84818631D01*
X35484298Y82406456D01*
X35425824Y82547624D01*
X35301612Y82733520D01*
X35143520Y82891612D01*
X34957624Y83015824D01*
X34751067Y83101383D01*
X34531788Y83145000D01*
X34308212Y83145000D01*
X34088933Y83101383D01*
X33882376Y83015824D01*
X33815252Y82970973D01*
X33810323Y82987222D01*
X33731144Y83135355D01*
X33624588Y83265195D01*
X33262195Y83627588D01*
X33132355Y83734144D01*
X32984222Y83813323D01*
X32823488Y83862081D01*
X32656330Y83878545D01*
X32489172Y83862081D01*
X32328438Y83813323D01*
X32180305Y83734144D01*
X32050465Y83627588D01*
X31741106Y83318229D01*
X31634550Y83188389D01*
X31555371Y83040256D01*
X31506613Y82879522D01*
X31503867Y82851641D01*
X31418155Y82843199D01*
X31298457Y82806890D01*
X31188143Y82747926D01*
X31091451Y82668573D01*
X30986320Y82559097D01*
X30986320Y82334591D01*
X31569153Y81751758D01*
X31583296Y81765900D01*
X31762901Y81586295D01*
X31748758Y81572153D01*
X32331591Y80989320D01*
X32556097Y80989320D01*
X32665573Y81094451D01*
X32744926Y81191143D01*
X32803890Y81301457D01*
X32808501Y81316657D01*
X32864635Y81270589D01*
X33018381Y81188411D01*
X33134597Y81153157D01*
X33185203Y81137805D01*
X33200000Y81136348D01*
X33315217Y81125000D01*
X33315225Y81125000D01*
X33358694Y81120719D01*
X33402163Y81125000D01*
X33701550Y81125000D01*
X33882376Y81004176D01*
X34023544Y80945702D01*
X31561369Y78483527D01*
X31505824Y78617624D01*
X31381612Y78803520D01*
X31223520Y78961612D01*
X31037624Y79085824D01*
X30831067Y79171383D01*
X30611788Y79215000D01*
X30388212Y79215000D01*
X30168933Y79171383D01*
X30020718Y79109990D01*
X30000323Y79177222D01*
X29921144Y79325355D01*
X29814588Y79455195D01*
X29452195Y79817588D01*
X29322355Y79924144D01*
X29174222Y80003323D01*
X29013488Y80052081D01*
X28846330Y80068545D01*
X28679172Y80052081D01*
X28518438Y80003323D01*
X28370305Y79924144D01*
X28240465Y79817588D01*
X27931106Y79508229D01*
X27824550Y79378389D01*
X27745371Y79230256D01*
X27696613Y79069522D01*
X27693867Y79041641D01*
X27608155Y79033199D01*
X27488457Y78996890D01*
X27378143Y78937926D01*
X27281451Y78858573D01*
X27176320Y78749097D01*
X27176320Y78524591D01*
X27759153Y77941758D01*
X27773296Y77955900D01*
X27952901Y77776295D01*
X27938758Y77762153D01*
X28521591Y77179320D01*
X28746097Y77179320D01*
X28855573Y77284451D01*
X28934926Y77381143D01*
X28993890Y77491457D01*
X28996629Y77500486D01*
X29012164Y77484951D01*
X29039877Y77451183D01*
X29073645Y77423470D01*
X29073647Y77423468D01*
X29174635Y77340589D01*
X29328380Y77258411D01*
X29495204Y77207805D01*
X29625217Y77195000D01*
X29625225Y77195000D01*
X29668694Y77190719D01*
X29712163Y77195000D01*
X29781550Y77195000D01*
X29962376Y77074176D01*
X30096473Y77018631D01*
X28011369Y74933527D01*
X27955824Y75067624D01*
X27831612Y75253520D01*
X27673520Y75411612D01*
X27487624Y75535824D01*
X27281067Y75621383D01*
X27061788Y75665000D01*
X26838212Y75665000D01*
X26618933Y75621383D01*
X26463770Y75557112D01*
X26444323Y75621222D01*
X26365144Y75769355D01*
X26258588Y75899195D01*
X25896195Y76261588D01*
X25766355Y76368144D01*
X25618222Y76447323D01*
X25457488Y76496081D01*
X25290330Y76512545D01*
X25123172Y76496081D01*
X24962438Y76447323D01*
X24814305Y76368144D01*
X24684465Y76261588D01*
X24375106Y75952229D01*
X24268550Y75822389D01*
X24189371Y75674256D01*
X24140613Y75513522D01*
X24137867Y75485641D01*
X24052155Y75477199D01*
X23932457Y75440890D01*
X23822143Y75381926D01*
X23725451Y75302573D01*
X23620320Y75193097D01*
X23620320Y74968591D01*
X24203153Y74385758D01*
X24217296Y74399900D01*
X24396901Y74220295D01*
X24382758Y74206153D01*
X24965591Y73623320D01*
X25190097Y73623320D01*
X25299573Y73728451D01*
X25378926Y73825143D01*
X25437890Y73935457D01*
X25440629Y73944486D01*
X25450164Y73934951D01*
X25477877Y73901183D01*
X25511645Y73873470D01*
X25511647Y73873468D01*
X25528337Y73859771D01*
X25612635Y73790589D01*
X25766381Y73708411D01*
X25933204Y73657805D01*
X26063217Y73645000D01*
X26063227Y73645000D01*
X26106693Y73640719D01*
X26150159Y73645000D01*
X26231550Y73645000D01*
X26412376Y73524176D01*
X26546474Y73468631D01*
X24497227Y71419384D01*
X24435824Y71567624D01*
X24311612Y71753520D01*
X24153520Y71911612D01*
X23967624Y72035824D01*
X23761067Y72121383D01*
X23541788Y72165000D01*
X23318212Y72165000D01*
X23098933Y72121383D01*
X22930922Y72051790D01*
X22888323Y72192222D01*
X22809144Y72340355D01*
X22702588Y72470195D01*
X22340195Y72832588D01*
X22210355Y72939144D01*
X22062222Y73018323D01*
X21901488Y73067081D01*
X21734330Y73083545D01*
X21567172Y73067081D01*
X21406438Y73018323D01*
X21258305Y72939144D01*
X21128465Y72832588D01*
X20819106Y72523229D01*
X20712550Y72393389D01*
X20633371Y72245256D01*
X20584613Y72084522D01*
X20581867Y72056641D01*
X20496155Y72048199D01*
X20376457Y72011890D01*
X20266143Y71952926D01*
X20169451Y71873573D01*
X20064320Y71764097D01*
X20064320Y71539591D01*
X20647153Y70956758D01*
X20661296Y70970900D01*
X20840901Y70791295D01*
X20826758Y70777153D01*
X21409591Y70194320D01*
X21634097Y70194320D01*
X21743573Y70299451D01*
X21822926Y70396143D01*
X21881890Y70506457D01*
X21884629Y70515486D01*
X21965164Y70434951D01*
X21992877Y70401183D01*
X22026645Y70373470D01*
X22026647Y70373468D01*
X22127635Y70290589D01*
X22281380Y70208411D01*
X22448204Y70157805D01*
X22578217Y70145000D01*
X22578225Y70145000D01*
X22621694Y70140719D01*
X22665163Y70145000D01*
X22711550Y70145000D01*
X22892376Y70024176D01*
X23040616Y69962773D01*
X21640843Y68563000D01*
X21402157Y68563000D01*
X20414991Y69550166D01*
X20429490Y69542416D01*
X20549188Y69506107D01*
X20673670Y69493846D01*
X20798151Y69506107D01*
X20917849Y69542416D01*
X21028163Y69601380D01*
X21124855Y69680733D01*
X21229986Y69790209D01*
X21229986Y70014715D01*
X20647153Y70597548D01*
X20633011Y70583405D01*
X20453406Y70763010D01*
X20467548Y70777153D01*
X19884715Y71359986D01*
X19660209Y71359986D01*
X19550733Y71254855D01*
X19471380Y71158163D01*
X19412416Y71047849D01*
X19376107Y70928151D01*
X19363846Y70803670D01*
X19376107Y70679188D01*
X19412416Y70559490D01*
X19471380Y70449176D01*
X19550733Y70352484D01*
X19645157Y70261077D01*
X19600860Y70284754D01*
X19452887Y70329641D01*
X19337561Y70341000D01*
X19337553Y70341000D01*
X19299000Y70344797D01*
X19260447Y70341000D01*
X17833140Y70341000D01*
X17736528Y70437612D01*
X17550632Y70561824D01*
X17344075Y70647383D01*
X17124796Y70691000D01*
X16901220Y70691000D01*
X16681941Y70647383D01*
X16475384Y70561824D01*
X16289488Y70437612D01*
X16131396Y70279520D01*
X16007184Y70093624D01*
X15921625Y69887067D01*
X15878008Y69667788D01*
X15878008Y69444212D01*
X15921625Y69224933D01*
X16007184Y69018376D01*
X16131396Y68832480D01*
X16289488Y68674388D01*
X16475384Y68550176D01*
X16681941Y68464617D01*
X16901220Y68421000D01*
X17124796Y68421000D01*
X17203215Y68436598D01*
X17190858Y68432850D01*
X17042725Y68353671D01*
X16912885Y68247115D01*
X16806329Y68117275D01*
X16727150Y67969142D01*
X16678392Y67808408D01*
X16661928Y67641250D01*
X16661928Y67203750D01*
X16678392Y67036592D01*
X16727150Y66875858D01*
X16806329Y66727725D01*
X16824100Y66706070D01*
X16769463Y66639494D01*
X16710498Y66529180D01*
X16674188Y66409482D01*
X16661928Y66285000D01*
X16665000Y66133250D01*
X16823750Y65974500D01*
X17648000Y65974500D01*
X17648000Y65994500D01*
X17902000Y65994500D01*
X17902000Y65974500D01*
X18726250Y65974500D01*
X18885000Y66133250D01*
X18888072Y66285000D01*
X18875812Y66409482D01*
X18839502Y66529180D01*
X18835055Y66537500D01*
X18922009Y66537500D01*
X18922008Y65096587D01*
X18170422Y64345000D01*
X11508450Y64345000D01*
X11327624Y64465824D01*
X11121067Y64551383D01*
X10907769Y64593810D01*
X10405000Y65096578D01*
X10405000Y65410000D01*
X16661928Y65410000D01*
X16674188Y65285518D01*
X16710498Y65165820D01*
X16769463Y65055506D01*
X16848815Y64958815D01*
X16945506Y64879463D01*
X17055820Y64820498D01*
X17175518Y64784188D01*
X17300000Y64771928D01*
X17489250Y64775000D01*
X17648000Y64933750D01*
X17648000Y65720500D01*
X17902000Y65720500D01*
X17902000Y64933750D01*
X18060750Y64775000D01*
X18250000Y64771928D01*
X18374482Y64784188D01*
X18494180Y64820498D01*
X18604494Y64879463D01*
X18701185Y64958815D01*
X18780537Y65055506D01*
X18839502Y65165820D01*
X18875812Y65285518D01*
X18888072Y65410000D01*
X18885000Y65561750D01*
X18726250Y65720500D01*
X17902000Y65720500D01*
X17648000Y65720500D01*
X16823750Y65720500D01*
X16665000Y65561750D01*
X16661928Y65410000D01*
X10405000Y65410000D01*
X10405000Y73470232D01*
X23646837Y73470232D01*
X23646837Y73245725D01*
X23778484Y73109733D01*
X23875176Y73030380D01*
X23985490Y72971416D01*
X24105188Y72935107D01*
X24229670Y72922846D01*
X24354151Y72935107D01*
X24473849Y72971416D01*
X24584163Y73030380D01*
X24680855Y73109733D01*
X24785986Y73219209D01*
X24785986Y73443715D01*
X24203153Y74026548D01*
X23646837Y73470232D01*
X10405000Y73470232D01*
X10405000Y74232670D01*
X22919846Y74232670D01*
X22932107Y74108188D01*
X22968416Y73988490D01*
X23027380Y73878176D01*
X23106733Y73781484D01*
X23242725Y73649837D01*
X23467232Y73649837D01*
X24023548Y74206153D01*
X23440715Y74788986D01*
X23216209Y74788986D01*
X23106733Y74683855D01*
X23027380Y74587163D01*
X22968416Y74476849D01*
X22932107Y74357151D01*
X22919846Y74232670D01*
X10405000Y74232670D01*
X10405000Y77026232D01*
X27202837Y77026232D01*
X27202837Y76801725D01*
X27334484Y76665733D01*
X27431176Y76586380D01*
X27541490Y76527416D01*
X27661188Y76491107D01*
X27785670Y76478846D01*
X27910151Y76491107D01*
X28029849Y76527416D01*
X28140163Y76586380D01*
X28236855Y76665733D01*
X28341986Y76775209D01*
X28341986Y76999715D01*
X27759153Y77582548D01*
X27202837Y77026232D01*
X10405000Y77026232D01*
X10405000Y77788670D01*
X26475846Y77788670D01*
X26488107Y77664188D01*
X26524416Y77544490D01*
X26583380Y77434176D01*
X26662733Y77337484D01*
X26798725Y77205837D01*
X27023232Y77205837D01*
X27579548Y77762153D01*
X26996715Y78344986D01*
X26772209Y78344986D01*
X26662733Y78239855D01*
X26583380Y78143163D01*
X26524416Y78032849D01*
X26488107Y77913151D01*
X26475846Y77788670D01*
X10405000Y77788670D01*
X10405000Y80836232D01*
X31012837Y80836232D01*
X31012837Y80611725D01*
X31144484Y80475733D01*
X31241176Y80396380D01*
X31351490Y80337416D01*
X31471188Y80301107D01*
X31595670Y80288846D01*
X31720151Y80301107D01*
X31839849Y80337416D01*
X31950163Y80396380D01*
X32046855Y80475733D01*
X32151986Y80585209D01*
X32151986Y80809715D01*
X31569153Y81392548D01*
X31012837Y80836232D01*
X10405000Y80836232D01*
X10405000Y81598670D01*
X30285846Y81598670D01*
X30298107Y81474188D01*
X30334416Y81354490D01*
X30393380Y81244176D01*
X30472733Y81147484D01*
X30608725Y81015837D01*
X30833232Y81015837D01*
X31389548Y81572153D01*
X30806715Y82154986D01*
X30582209Y82154986D01*
X30472733Y82049855D01*
X30393380Y81953163D01*
X30334416Y81842849D01*
X30298107Y81723151D01*
X30285846Y81598670D01*
X10405000Y81598670D01*
X10405000Y84900232D01*
X35076837Y84900232D01*
X35076837Y84675725D01*
X35208484Y84539733D01*
X35305176Y84460380D01*
X35415490Y84401416D01*
X35535188Y84365107D01*
X35659670Y84352846D01*
X35784151Y84365107D01*
X35903849Y84401416D01*
X36014163Y84460380D01*
X36110855Y84539733D01*
X36215986Y84649209D01*
X36215986Y84873715D01*
X35633153Y85456548D01*
X35076837Y84900232D01*
X10405000Y84900232D01*
X10405000Y85662670D01*
X34349846Y85662670D01*
X34362107Y85538188D01*
X34398416Y85418490D01*
X34457380Y85308176D01*
X34536733Y85211484D01*
X34672725Y85079837D01*
X34897232Y85079837D01*
X35453548Y85636153D01*
X34870715Y86218986D01*
X34646209Y86218986D01*
X34536733Y86113855D01*
X34457380Y86017163D01*
X34398416Y85906849D01*
X34362107Y85787151D01*
X34349846Y85662670D01*
X10405000Y85662670D01*
X10405000Y89763422D01*
X10907768Y90266190D01*
X11121067Y90308617D01*
X11327624Y90394176D01*
X11513520Y90518388D01*
X11671612Y90676480D01*
X11795824Y90862376D01*
X11881383Y91068933D01*
X11925000Y91288212D01*
X11925000Y91511788D01*
X11881383Y91731067D01*
X11795824Y91937624D01*
X11671612Y92123520D01*
X11513520Y92281612D01*
X11327624Y92405824D01*
X11121067Y92491383D01*
X10907769Y92533810D01*
X10405000Y93036578D01*
X10405000Y115163422D01*
X10907768Y115666190D01*
X11121067Y115708617D01*
X11327624Y115794176D01*
X11513520Y115918388D01*
X11671612Y116076480D01*
X11795824Y116262376D01*
X11881383Y116468933D01*
X11925000Y116688212D01*
X11925000Y116911788D01*
X11881383Y117131067D01*
X11795824Y117337624D01*
X11671612Y117523520D01*
X11513520Y117681612D01*
X11327624Y117805824D01*
X11121067Y117891383D01*
X10907769Y117933810D01*
X10405000Y118436578D01*
X10405000Y140563422D01*
X10907768Y141066190D01*
X11121067Y141108617D01*
X11327624Y141194176D01*
X11513520Y141318388D01*
X11671612Y141476480D01*
X11795824Y141662376D01*
X11881383Y141868933D01*
X11925000Y142088212D01*
X11925000Y142311788D01*
X11881383Y142531067D01*
X11795824Y142737624D01*
X11671612Y142923520D01*
X11513520Y143081612D01*
X11327624Y143205824D01*
X11121067Y143291383D01*
X10901788Y143335000D01*
X10678212Y143335000D01*
X10458933Y143291383D01*
X10252376Y143205824D01*
X10066480Y143081612D01*
X9908388Y142923520D01*
X9784176Y142737624D01*
X9698617Y142531067D01*
X9656190Y142317768D01*
X8924956Y141586534D01*
X8891183Y141558817D01*
X8780589Y141424058D01*
X8698411Y141270312D01*
X8675315Y141194176D01*
X8647806Y141103491D01*
X8647805Y141103489D01*
X8635000Y140973476D01*
X8635000Y140973469D01*
X8630719Y140930000D01*
X660000Y140930000D01*
X660000Y144340000D01*
X79340000Y144340000D01*
X79340001Y660000D01*
M02*
