M48
; DRILL file {KiCad 5.1.6-c6e7f7d~87~ubuntu18.04.1} date Sat Aug 29 05:24:10 2020
; FORMAT={-:-/ absolute / metric / decimal}
; #@! TF.CreationDate,2020-08-29T05:24:10+09:00
; #@! TF.GenerationSoftware,Kicad,Pcbnew,5.1.6-c6e7f7d~87~ubuntu18.04.1
; #@! TF.FileFunction,Plated,1,2,PTH
FMAT,2
METRIC
T1C0.400
%
G90
G05
T1
X5.71Y129.5
X5.71Y104.1
X5.71Y78.7
X5.71Y50.76
X5.71Y25.36
X5.71Y2.5
X5.964Y66.0
X10.752Y38.06
X10.79Y142.2
X10.79Y129.5
X10.79Y116.8
X10.79Y104.1
X10.79Y91.4
X10.79Y78.7
X10.79Y63.46
X10.79Y50.76
X10.79Y25.36
X10.79Y12.66
X10.79Y2.5
X13.076Y140.676
X15.616Y38.06
X15.616Y32.726
X15.616Y12.152
X16.632Y129.5
X17.013Y69.556
X19.807Y67.46
X20.188Y118.324
X21.204Y32.726
X21.585Y139.66
X21.61Y69.175
X21.65Y62.77
X22.982Y13.93
X23.236Y47.458
X23.236Y3.262
X23.43Y71.03
X23.592Y66.051
X24.252Y20.788
X24.48Y59.94
X24.76Y38.441
X25.014Y48.474
X25.18Y72.78
X25.268Y129.5
X25.268Y118.324
X25.522Y105.37
X26.95Y74.53
X27.31Y57.12
X28.71Y55.69
X28.74Y76.32
X29.84Y118.07
X29.84Y72.604
X29.967Y54.443
X30.094Y130.008
X30.094Y99.274
X30.5Y78.08
X31.19Y53.22
X32.29Y79.86
X32.634Y29.424
X32.634Y23.074
X33.523Y92.67
X34.02Y50.4
X34.42Y82.01
X35.555Y139.66
X36.53Y84.1
X36.571Y89.368
X36.85Y47.57
X37.46Y73.112
X37.46Y64.476
X37.46Y56.856
X37.46Y51.014
X37.79Y80.961
X38.222Y96.226
X38.222Y3.262
X38.3Y85.88
X38.603Y92.543
X38.603Y91.146
X38.603Y89.749
X39.746Y27.392
X39.746Y17.486
X40.381Y44.791
X41.422Y80.173
X41.524Y41.108
X41.73Y46.14
X41.778Y49.744
X41.905Y92.924
X42.032Y73.112
X42.032Y64.476
X42.032Y56.856
X42.286Y139.66
X42.286Y118.07
X42.286Y100.036
X42.794Y13.93
X43.12Y84.45
X43.48Y36.688
X43.51Y47.92
X44.064Y96.861
X44.064Y95.337
X44.064Y93.933
X45.27Y49.68
X45.588Y27.392
X45.588Y16.47
X45.98Y81.61
X46.096Y95.464
X46.35Y142.098
X46.604Y109.688
X46.858Y118.07
X47.04Y51.45
X47.366Y71.969
X47.366Y7.58
X48.79Y78.79
X48.8Y53.21
X48.89Y142.073
X48.89Y118.07
X50.16Y71.969
X50.16Y125.055
X50.414Y127.214
X50.58Y54.98
X50.828Y5.2
X50.922Y12.66
X50.922Y1.738
X51.557Y28.332
X51.582Y17.715
X51.684Y42.099
X51.684Y36.282
X51.938Y116.292
X51.938Y109.688
X52.192Y101.56
X52.38Y56.71
X52.65Y74.92
X52.7Y71.969
X53.97Y22.058
X54.08Y58.5
X54.224Y7.58
X54.732Y104.1
X55.088Y125.893
X55.24Y118.578
X55.494Y64.603
X55.51Y72.06
X55.88Y60.27
X56.256Y34.25
X56.51Y131.405
X57.018Y106.386
X57.64Y62.05
X58.288Y13.574
X58.32Y69.27
X58.404Y139.66
X59.235Y66.439
X59.253Y65.111
X59.329Y63.714
X60.066Y23.328
X60.549Y66.914
X60.574Y117.054
X60.828Y75.906
X61.336Y14.438
X64.13Y128.484
X64.257Y65.238
X66.416Y1.484
X68.702Y139.914
X69.21Y142.2
X69.21Y129.5
X69.21Y116.8
X69.21Y104.1
X69.21Y91.4
X69.21Y78.7
X69.21Y63.46
X69.21Y50.76
X69.21Y38.06
X69.21Y25.36
X69.21Y12.66
X74.29Y129.5
X74.29Y104.1
X74.29Y78.7
X74.29Y65.746
X74.29Y50.76
X74.29Y25.36
T0
M30
